<?xml version="1.0" encoding="UTF-8"?>
<svg width="500px" height="500px" viewBox="0 0 500 500" version="1.1" xmlns="http://www.w3.org/2000/svg" xmlns:xlink="http://www.w3.org/1999/xlink">
    <!-- Generator: Sketch 52.2 (67145) - http://www.bohemiancoding.com/sketch -->
    <title>earth</title>
    <desc>Created with Sketch.</desc>
    <g id="earth" stroke="none" stroke-width="1" fill="none" fill-rule="evenodd">
        <g id="网状地球-copy" transform="translate(0.000000, 6.000000)" fill="#FFFFFF">
            <path d="M444.358432,101.101064 L492.094862,242.83092 L489.505015,242.83092 L442.02202,103.123185 L444.358432,101.101064 Z M440.442213,98.7000659 L437.980625,167.068968 L439.685608,167.257172 L441.95974,100.910391 L440.442213,98.7000659 Z M437.917729,169.344702 L427.05702,325.162758 L428.762003,325.29049 L439.432789,171.555027 L437.917729,169.344702 Z M206.308327,486.166008 L313.273942,486.166008 L313.273942,483.890891 L206.308327,483.890891 L206.308327,486.166008 Z M177.895239,476.560781 L196.206074,482.878288 L197.468316,480.605639 L180.104008,474.916921 L177.895239,476.560781 Z M168.929435,31.7849684 L95.6207319,60.9776754 L94.8616601,60.2810096 L168.929435,29.1939143 L168.929435,31.7849684 Z M178.020414,26.6028602 L202.456854,12.1326964 L202.456854,10.8695652 L176.126743,25.4020526 L178.020414,26.6028602 Z" id="Fill-1"></path>
            <path d="M180.100845,25.0321675 L312.11787,14.8221344 L312.11787,16.2179019 L180.100845,26.8706917 L180.100845,25.0321675 Z M178.715758,30.1675268 L272.347953,68.7226626 L272.977203,66.6302498 L179.282329,28.1382765 L178.715758,29.5965873 L178.715758,30.1675268 Z M314.319014,16.0915769 L279.143724,65.9936709 L281.032702,67.4526009 L316.205534,17.3591617 L314.319014,16.0915769 Z M12.8458498,185.967133 L28.7657379,200.233809 L30.5895781,197.253405 L14.6703045,184.508203 L12.8458498,185.967133 Z M77.28001,68.5313174 L102.577804,199.916758 L103.079237,200.741586 L104.589067,199.220112 L78.3504715,67.4526009 L77.28001,68.5313174 Z M236.10466,173.983596 L300.728086,251.976285 L301.671346,251.722396 L300.665407,249.821329 L236.481349,173.22193 L236.10466,173.983596 Z" id="Fill-2"></path>
            <polygon id="Fill-3" points="234.612376 173.913043 102.030121 199.642288 101.778656 200.592885 103.978056 200.52976 235.177866 174.611757"></polygon>
            <path d="M165.988034,92.4189858 L150.197628,238.64621 L151.896281,238.64621 L167.49747,92.4189858 L165.988034,92.4189858 Z M319.297436,19.7457612 L380.253575,83.4364368 L381.38642,82.297482 L319.297436,17.7865613 L319.297436,19.7457612 Z M280.795459,69.775773 L379.437731,84.4493902 L379.437731,85.6513458 L280.795459,71.4835876 L280.795459,69.775773 Z M389.187936,87.4845442 L434.41879,94.0619466 L434.41879,96.3392387 L388.494345,88.561116 L389.187936,87.4845442 Z M386.041896,90.5851696 L434.41879,163.444308 L435.488971,162.116969 L387.236789,88.8143543 L386.041896,90.5851696 Z M272.429978,72.6225424 L232.483072,173.502811 L234.182339,173.502811 L273.814089,72.6225424 L272.429978,72.6225424 Z M383.462278,85.7137289 L298.409843,251.108007 L300.046448,251.108007 L384.847003,85.7137289 L383.462278,85.7137289 Z M439.513519,170.211948 L487.010062,241.430596 L488.142292,240.417025 L442.345631,170.211948 L439.513519,170.211948 Z M232.734951,173.502811 L178.38052,390.316206 L179.702582,390.316206 L234.182339,173.502811 L232.734951,173.502811 Z" id="Fill-4"></path>
            <path d="M156.790608,244.412942 L310.798546,194.664032 L311.998529,196.299902 L157.927078,245.92397 L156.790608,244.412942 Z M33.5968379,201.904296 L70.029221,377.541431 L71.7971307,377.541431 L35.3647477,201.904296 L33.5968379,201.904296 Z M100.654079,201.904296 L82.4705696,369.606844 L84.0485539,369.606844 L102.675428,201.904296 L100.654079,201.904296 Z M147.256722,251.026533 L88.1529163,366.207186 L89.9208261,366.207186 L148.140369,252.789706 L147.256722,251.026533 Z M88.0277382,369.796261 L299.621928,249.830379 L299.49675,251.593553 L87.9000935,371.559434 L87.712018,370.615426 L88.0277382,369.796261 Z M301.8961,249.450931 L351.778656,450.592885 L350.073644,450.088594 L300.190471,248.883912 L301.137015,248.948485 L301.8961,249.450931 Z" id="Fill-5"></path>
            <path d="M38.5592755,202.56917 L147.470741,244.871595 L146.457786,246.328551 L37.5494071,204.025507 L38.5592755,202.56917 Z M461.747829,312.43699 L462.442268,310.664031 L303.658984,250.761259 L303.658984,252.468667 L461.747829,312.43699 Z M493.035848,249.87447 L464.653362,307.30858 L466.172485,308.827995 L495.059289,249.87447 L493.035848,249.87447 Z M461.050922,315.982909 L444.99673,393.048818 L447.082516,393.048818 L462.126221,315.982909 L461.050922,315.982909 Z M430.01537,328.397334 L441.58256,393.048818 L443.414644,393.048818 L431.848071,328.397334 L430.01537,328.397334 Z M91.5298349,373.103489 L252.648903,378.294358 L252.648903,380.320862 L91.5298349,374.559827 L91.5298349,373.103489 Z M76.1700825,383.10862 L177.811236,391.529403 L177.811236,392.860823 L76.1700825,384.81912 L76.1700825,383.10862 Z M72.7559126,385.386814 L81.7953457,429.841897 L82.8712629,429.841897 L74.5886138,385.386814 L72.7559126,385.386814 Z" id="Fill-6"></path>
            <path d="M72.5212441,387.005038 L172.564776,471.806409 L173.639902,470.476901 L73.6593228,385.35615 L72.5212441,387.005038 Z M178.063843,396.891558 L176.231438,468.194206 L177.936087,468.194206 L179.580253,395.624563 L178.063843,396.891558 Z M181.349706,395.75021 L268.121414,442.969437 L269.827914,441.383682 L181.349706,392.834327 L181.349706,395.75021 Z M277.0341,441.132388 L379.290837,402.469553 L379.290837,404.369735 L277.0341,443.603244 L277.0341,441.132388 Z M388.642337,400.314981 L435.789282,399.236767 L435.789282,400.314981 L388.642337,402.469553 L388.642337,400.314981 Z M380.175254,404.369735 L351.734398,448.230529 L354.07289,449.435009 L381.691664,404.369735 L380.175254,404.369735 Z M180.024005,469.652456 L268.565166,444.427688 L269.827914,446.010967 L180.024005,471.806409 L180.024005,469.652456 Z M274.251856,444.870239 L313.373,480.237154 L313.373,478.145715 L276.402726,444.870239 L274.251856,444.870239 Z M81.938166,68.2621034 C81.938166,71.811174 79.0929694,74.6645426 75.5540632,74.6645426 C72.0151571,74.6645426 69.1699605,71.811174 69.1699605,68.2621034 C69.1699605,64.7124138 72.0151571,61.86214 75.5540632,61.86214 C79.0929694,61.86214 81.938166,64.7124138 81.938166,68.2621034 Z M174.081185,87.6575823 C174.081185,91.6492036 170.857658,94.8819897 166.877468,94.8819897 C162.89481,94.8819897 159.60833,91.6492036 159.60833,87.6575823 C159.60833,83.6634853 162.831858,80.4306991 166.877468,80.4306991 C170.794705,80.367566 174.081185,83.6634853 174.081185,87.6575823 Z M179.011214,26.6202527 C179.011214,29.7905247 176.484481,32.3263709 173.323906,32.3263709 C170.163331,32.3263709 167.636599,29.7905247 167.636599,26.6202527 C167.636599,23.4530755 170.163331,20.9172292 173.323906,20.9172292 C176.484481,20.9797434 179.011214,23.5162086 179.011214,26.6202527 Z M213.833704,6.59406167 C213.833704,10.2687795 210.86322,13.1846623 207.261362,13.1846623 C203.597168,13.1846623 200.689637,10.2062654 200.689637,6.59406167 C200.689637,2.91686801 203.659504,0.000985275917 207.261362,0.000985275917 C210.86322,-0.0621478251 213.833704,2.91686801 213.833704,6.59406167 Z M281.142045,70.2278948 C281.142045,73.1431586 278.803553,75.4889866 275.896021,75.4889866 C272.989107,75.4889866 270.649997,73.1431586 270.649997,70.2278948 C270.649997,67.3120121 272.989107,64.9668031 275.896021,64.9668031 C278.803553,64.90367 281.142045,67.3120121 281.142045,70.2278948 Z M344.215302,47.028956 C344.215302,51.0230531 340.991775,54.1927061 337.072069,54.1927061 C333.091262,54.1927061 329.930687,50.9605389 329.930687,47.028956 C329.930687,43.0373348 333.154214,39.8676817 337.072069,39.8676817 C340.991775,39.8045486 344.215302,43.0373348 344.215302,47.028956 Z M390.918495,86.1993315 C390.918495,89.3689845 388.326342,91.9029739 385.231187,91.9029739 C382.070612,91.9029739 379.541411,89.3689845 379.541411,86.1993315 C379.541411,83.0296785 382.070612,80.4956891 385.231187,80.4956891 C388.389294,80.4956891 390.918495,83.0296785 390.918495,86.1993315 Z M436.358321,324.890113 C436.358321,329.13798 432.88175,332.624537 428.6479,332.624537 C424.414667,332.624537 420.938096,329.13798 420.938096,324.890113 C420.938096,320.644721 424.414667,317.158165 428.6479,317.158165 C432.88175,317.220679 436.358321,320.644721 436.358321,324.890113 Z M326.075785,194.010862 C326.075785,198.89006 322.095596,202.884157 317.227902,202.884157 C312.360209,202.884157 308.38002,198.89006 308.38002,194.010862 C308.38002,189.129187 312.360209,185.137566 317.227902,185.137566 C322.095596,185.071957 326.075785,189.066673 326.075785,194.010862 Z M434.525916,95.3263973 C434.525916,99.3186375 437.749443,102.488291 441.66668,102.488291 C445.584535,102.488291 448.807445,99.2555044 448.807445,95.3263973 C448.807445,91.3323002 445.584535,88.165123 441.66668,88.165123 C437.749443,88.165123 434.525916,91.3323002 434.525916,95.3263973 Z M446.596709,166.375275 C446.596709,170.686276 443.120755,174.235965 438.82457,174.235965 C434.525916,174.235965 430.98701,170.749409 430.98701,166.375275 C430.98701,162.06675 434.462964,158.580813 438.82457,158.580813 C443.120755,158.51768 446.596709,162.00176 446.596709,166.375275 Z M466.187832,312.784031 C466.187832,315.828037 463.723435,318.299512 460.690615,318.299512 C457.655328,318.299512 455.191548,315.828037 455.191548,312.784031 C455.191548,309.742501 457.655328,307.334778 460.690615,307.334778 C463.786387,307.271645 466.187832,309.742501 466.187832,312.784031 Z M500,247.566919 C500,251.370379 496.967181,254.411909 493.174614,254.411909 C489.382664,254.411909 486.349845,251.370379 486.349845,247.566919 C486.349845,243.764078 489.382664,240.722548 493.174614,240.722548 C496.904229,240.722548 500,243.764078 500,247.566919 Z M303.956079,251.242256 C303.956079,253.461817 302.186626,255.298867 299.911085,255.298867 C297.700349,255.298867 295.930279,253.524331 295.930279,251.242256 C295.930279,249.02517 297.700349,247.187501 299.911085,247.187501 C302.12429,247.250015 303.956079,249.02517 303.956079,251.242256 Z M237.722864,174.172832 C237.722864,176.389918 235.953411,178.227586 233.679722,178.227586 C231.466517,178.227586 229.697064,176.453051 229.697064,174.172832 C229.697064,171.95327 231.466517,170.115602 233.679722,170.115602 C235.890459,170.178735 237.722864,171.95327 237.722864,174.172832 Z" id="Fill-7"></path>
            <path d="M324.460413,481.805203 C324.460413,485.2902 321.62024,488.142292 318.149809,488.142292 C314.679993,488.142292 311.842285,485.2902 311.842285,481.805203 C311.842285,478.322681 314.679993,475.471208 318.149809,475.471208 C321.62024,475.471208 324.460413,478.322681 324.460413,481.805203 Z M355.497765,451.715321 C355.497765,455.071633 352.78574,457.858146 349.378149,457.858146 C346.035248,457.858146 343.260381,455.134738 343.260381,451.715321 C343.260381,448.355915 345.972407,445.569402 349.378149,445.569402 C352.78574,445.569402 355.497765,448.29281 355.497765,451.715321 Z M378.146445,400.4618 C378.146445,403.376379 380.480807,405.720539 383.383205,405.720539 C386.285602,405.720539 388.619965,403.376379 388.619965,400.4618 C388.619965,397.547222 386.285602,395.203062 383.383205,395.203062 C380.543649,395.139957 378.146445,397.547222 378.146445,400.4618 Z M448.616601,398.941715 C448.616601,402.552303 445.714204,405.466882 442.118706,405.466882 C438.520743,405.466882 435.618346,402.552303 435.618346,398.941715 C435.618346,395.331128 438.520743,392.416549 442.118706,392.416549 C445.651362,392.416549 448.616601,395.331128 448.616601,398.941715 Z M278.026985,442.464272 C278.026985,445.315746 275.692622,447.659905 272.853066,447.659905 C270.015358,447.659905 267.680996,445.315746 267.680996,442.464272 C267.680996,439.614654 270.015358,437.270494 272.853066,437.270494 C275.755464,437.333599 278.026985,439.614654 278.026985,442.464272 Z M14.3216147,317.344037 C14.3216147,321.333873 11.1037796,324.502726 7.19099571,324.502726 C3.21783504,324.502726 0.0628411208,321.271386 0.0628411208,317.344037 C0.0628411208,313.351726 3.28006007,310.185966 7.19099571,310.185966 C11.1037796,310.120386 14.3216147,313.351726 14.3216147,317.344037 Z M88.5751759,435.559239 C88.5751759,439.044236 85.7350037,441.893853 82.2670363,441.893853 C78.7966046,441.893853 75.9570485,439.044236 75.9570485,435.559239 C75.9570485,432.074861 78.7966046,429.222769 82.2670363,429.222769 C85.7350037,429.222769 88.5751759,432.011756 88.5751759,435.559239 Z M77.2181835,382.531977 C77.2181835,385.512135 74.8209796,387.918781 71.8563573,387.918781 C68.8911189,387.918781 66.4945311,385.512135 66.4945311,382.531977 C66.4945311,379.554912 68.8911189,377.085161 71.8563573,377.085161 C74.8209796,377.147647 77.2181835,379.554912 77.2181835,382.531977 Z M91.6673287,372.966641 C91.6673287,377.338818 88.134672,380.886301 83.780768,380.886301 C79.4274802,380.886301 75.8948235,377.338818 75.8948235,372.966641 C75.8948235,368.595083 79.4274802,365.110086 83.780768,365.110086 C88.134672,365.0476 91.6673287,368.595083 91.6673287,372.966641 Z M0,180.249345 C0,182.84778 1.38866555,185.19194 3.59549786,186.458368 C5.80479452,187.724796 8.51682014,187.724796 10.7236524,186.458368 C12.9329491,185.19194 14.3216147,182.782201 14.3216147,180.249345 C14.3216147,177.651528 12.9329491,175.307368 10.7236524,174.04094 C8.51682014,172.774512 5.80479452,172.774512 3.59549786,174.04094 C1.32582443,175.307368 0,177.714633 0,180.249345 Z M182.95453,393.175663 C182.95453,395.519823 181.060671,397.421631 178.726309,397.421631 C176.391946,397.421631 174.499935,395.519823 174.499935,393.175663 C174.499935,390.830885 176.391946,388.931552 178.726309,388.931552 C181.060671,388.931552 182.95453,390.830885 182.95453,393.175663 Z M209.073025,481.300364 C209.073025,484.847848 206.171244,487.762426 202.637971,487.762426 C199.105314,487.762426 196.202917,484.847848 196.202917,481.300364 C196.202917,477.752881 199.105314,474.838303 202.637971,474.838303 C206.171244,474.900789 209.073025,477.752881 209.073025,481.300364 Z M181.881302,471.86062 C181.881302,474.710237 179.609165,477.054397 176.709232,477.054397 C173.869676,477.054397 171.535313,474.710237 171.535313,471.86062 C171.535313,469.009146 173.806835,466.727472 176.709232,466.727472 C179.54694,466.664986 181.881302,469.009146 181.881302,471.86062 Z M25.6761427,200.965681 C25.6761427,205.274753 29.1465744,208.69417 33.3723317,208.69417 C37.6633945,208.69417 41.0709851,205.209174 41.0709851,200.965681 C41.0709851,196.656609 37.6005534,193.237192 33.3723317,193.237192 C29.1465744,193.174087 25.6761427,196.656609 25.6761427,200.965681 Z M106.176851,199.887949 C106.176851,202.613831 103.967554,204.893031 101.192687,204.893031 C98.4806616,204.893031 96.2085238,202.676318 96.2085238,199.887949 C96.2085238,197.101436 98.4153561,194.882867 101.192687,194.882867 C103.904713,194.882867 106.176851,197.163922 106.176851,199.887949 Z M157.971488,246.960463 C157.971488,251.583204 154.24846,255.321857 149.64504,255.321857 C145.038539,255.321857 141.25267,251.583204 141.25267,246.960463 C141.25267,242.334629 144.975698,238.595976 149.64504,238.595976 C154.24846,238.595976 157.971488,242.334629 157.971488,246.960463 Z M266.923206,380.253396 C266.923206,384.941716 263.137336,388.805961 258.406385,388.805961 C253.73766,388.805961 249.888949,385.004821 249.888949,380.253396 C249.888949,375.565077 253.674819,371.700832 258.406385,371.700832 C263.075111,371.700832 266.923206,375.501972 266.923206,380.253396 Z M323.071747,13.3790575 C323.071747,16.9265406 320.16935,19.841119 316.636077,19.841119 C313.10342,19.841119 310.201023,16.9265406 310.201023,13.3790575 C310.201023,9.83095581 313.10342,6.91699605 316.636077,6.91699605 C320.231575,6.91699605 323.071747,9.83095581 323.071747,13.3790575 Z M80.0577397,64.6950644 L201.942406,7.42430964 L203.393913,9.45170796 L81.1938086,66.7224627 L80.0577397,64.6950644 Z" id="Fill-9"></path>
            <path d="M213.49779,5.92885375 L311.648599,12.6187693 L311.648599,14.3861844 L213.49779,7.94902085 L213.49779,5.92885375 Z M320.414265,18.9949025 L436.226996,93.6745066 L437.300066,92.2221069 L321.487951,16.6591035 L320.414265,18.9949025 Z M494.071146,251.110068 L446.256075,392.134006 L444.112399,392.134006 L491.92439,251.110068 L494.071146,251.110068 Z M323.947019,479.249012 L440.264869,402.361218 L438.4988,401.225066 L323.947019,477.481597 L323.947019,479.249012 Z M86.585373,438.407977 L173.253346,471.610351 L173.253346,469.024266 L87.9085388,436.260201 L86.585373,438.407977 Z M8.93562463,321.623578 L78.4474108,430.704588 L80.4032075,429.633165 L10.8895733,321.623578 L8.93562463,321.623578 Z M6.91699605,311.333487 L8.30545769,311.333487 L8.30545769,185.586253 L6.91699605,185.586253 L6.91699605,311.333487 Z M10.3216223,174.475026 L73.2736356,71.0747733 L75.355096,71.0747733 L12.0876913,176.242441 L10.3216223,174.475026 Z" id="Fill-10"></path>
            <path d="M75.2389784,74.5684241 L36.3893293,196.682842 L39.2209633,197.758161 L77.3161249,74.5684241 L75.2389784,74.5684241 Z M205.389607,12.8458498 L170.757586,82.9069281 L172.585697,84.2321062 L207.846765,12.8458498 L205.389607,12.8458498 Z M175.292505,86.9503252 L334.029417,49.4862829 L334.029417,51.6356871 L175.292505,89.3508224 L175.292505,86.9503252 Z M173.781685,91.0566498 L312.24336,189.544895 L310.73254,191.692449 L173.781685,93.6453123 L173.781685,91.0566498 Z M34.1215625,208.558856 L9.88142292,313.934572 L12.5882313,313.934572 L36.1993239,208.558856 L34.1215625,208.558856 Z M319.295696,21.4372975 L334.281527,43.6130542 L336.801405,43.6130542 L321.435563,19.1645061 L319.295696,21.4372975 Z M344.105852,52.5203731 L437.042477,96.1105877 L437.042477,93.898256 L344.105852,49.4862829 L344.105852,52.5203731 Z M337.178341,54.730237 L318.85604,186.891454 L321.500743,186.891454 L339.318208,54.730237 L337.178341,54.730237 Z M322.507341,202.114962 L428.03782,324.86359 L430.242866,323.600722 L324.712388,201.230893 L322.507341,202.114962 Z M13.5948296,322.463093 L79.8987227,372.117169 L81.8510436,370.791374 L14.9181035,321.135447 L13.5948296,322.463093 Z M434.460494,319.682563 L491.320074,252.530337 L493.083004,253.730277 L435.908594,320.819576 L434.460494,319.682563 Z M426.589105,330.548653 L385.8517,396.755733 L385.8517,399.218541 L427.912994,332.129242 L426.589105,330.548653 Z M268.35703,378.814007 L424.449239,327.201159 L424.449239,329.413491 L268.35703,380.836322 L268.35703,378.814007 Z M355.565207,449.506211 L438.428471,401.430873 L439.43507,403.453188 L356.571806,450.959711 L355.565207,449.506211 Z M208.978188,481.914464 L346.49783,453.106648 L346.49783,455.191274 L210.301462,484.189723 L208.978188,481.914464 Z M40.3548467,197.758161 L162.824092,92.5730779 L164.020081,93.8353286 L42.3698878,199.39921 L40.3548467,197.758161 Z M299.462575,254.299092 L262.501297,373.885924 L264.516338,373.885924 L300.721284,255.434254 L299.462575,254.299092 Z M82.5428109,72.2308544 L161.755388,89.3508224 L161.755388,87.1384906 L84.0536306,69.765579 L82.5428109,72.2308544 Z M326.033202,192.576518 L438.616017,167.559155 L440.064117,169.456232 L326.033202,194.535906 L326.033202,192.576518 Z M264.516338,385.195591 L347.189597,450.012098 L347.189597,448.053327 L266.781646,384.310905 L264.516338,385.195591 Z M207.846765,477.302252 L256.330118,387.470233 L258.280595,387.470233 L209.41969,478.376954 L207.846765,477.302252 Z M85.0626884,431.502174 L86.6983336,431.502174 L86.6983336,381.214504 L85.0626884,381.214504 L85.0626884,431.502174 Z M155.204814,254.487257 L254.377797,376.351199 L256.078008,375.276497 L157.347755,253.099152 L155.204814,254.487257 Z" id="Fill-11"></path>
        </g>
    </g>
</svg>