<?xml version="1.0" encoding="utf-8"?>
<!-- Generator: Adobe Illustrator 22.1.0, SVG Export Plug-In . SVG Version: 6.00 Build 0)  -->
<svg version="1.1" id="图层_1" xmlns="http://www.w3.org/2000/svg" xmlns:xlink="http://www.w3.org/1999/xlink" x="0px" y="0px"
	 viewBox="0 0 127 127" style="enable-background:new 0 0 127 127;" xml:space="preserve">
<style type="text/css">
	.st0{fill:#1B1D22;}
	.st1{fill:#2C2F37;}
	.st2{fill:#363A44;}
	.st3{fill:#33373F;}
	.st4{fill:#292D34;}
	.st5{fill:#22252B;}
	.st6{fill:#1B1D23;}
	.st7{fill:#14161A;}
	.st8{fill:#22252C;}
	.st9{fill:#24272E;}
	.st10{fill:#2A2D35;}
	.st11{fill:#383C46;}
	.st12{fill:#2E323B;}
	.st13{fill:#333740;}
	.st14{fill:#393D47;}
	.st15{fill:#383D46;}
	.st16{fill:#131519;}
	.st17{fill:#1A1C20;}
	.st18{fill:#282D39;}
	.st19{clip-path:url(#SVGID_2_);fill:#1A1C20;}
	.st20{clip-path:url(#SVGID_4_);fill:#282D39;}
	.st21{fill:#272B32;}
	.st22{fill:#15171B;}
	.st23{fill:#40454F;}
	.st24{clip-path:url(#SVGID_6_);fill:#282D39;}
	.st25{clip-path:url(#SVGID_8_);fill:#15171B;}
	.st26{clip-path:url(#SVGID_10_);fill:#40454F;}
	.st27{fill:#3C4048;}
	.st28{fill:#EF6019;}
	.st29{clip-path:url(#SVGID_12_);fill:#15171B;}
	.st30{clip-path:url(#SVGID_14_);fill:#282D39;}
	.st31{fill:#484E5A;}
</style>
<g>
	<path class="st0" d="M39.9,104.9l2.5,2v8.4l-1.8-1.5L39.9,104.9z"/>
	<path class="st1" d="M56.4,108.7l0.3,11c0,0,1.9-0.6,3.3-1.4l-0.6-11.1L56.4,108.7z"/>
	<path class="st2" d="M51.9,109.8c0,0,2-0.2,2.9-0.6l0.2,11c0,0-1.7,0.5-3,0.3L51.9,109.8z"/>
	<path class="st3" d="M54.9,109.2l1.5-0.5l0.3,11l-1.6,0.5L54.9,109.2z M51.9,109.8H51v10.5c0,0,0.4,0.1,1.1,0.2L51.9,109.8z"/>
	<path class="st4" d="M51,109.8h-1v10.3l1,0.2V109.8z"/>
	<path class="st5" d="M50,109.8c0,0-1.4-0.1-1.5-0.2v10c0,0,0.7,0.4,1.5,0.6V109.8z"/>
	<path class="st6" d="M48.5,109.5c0,0-0.7-0.1-1-0.2v9.8c0,0,0.1,0.1,1,0.5V109.5z"/>
	<path class="st7" d="M47.7,108.9c0,0-2,0.6-5.3-2v8.4c0,0,2.5,2.5,5.2,3.7L47.7,108.9z"/>
	<path class="st8" d="M59.4,107.5l0.6,10.7l57-36.8l-0.7-9.2L59.4,107.5z"/>
	<path class="st9" d="M116.2,72.3l1.4-0.9l0.6,9.3l-1.3,0.8L116.2,72.3z"/>
	<path class="st10" d="M117.6,71.4l1.7-0.9l0.6,9c0,0-0.5,0.5-1.7,1.2L117.6,71.4z"/>
	<path class="st11" d="M123.1,66.3l-0.9,10.3c0,0,0,0.2-0.1,0.4l0.7-9.6C122.7,67.4,123,66.9,123.1,66.3"/>
	<path class="st12" d="M119.9,79.5l0.6-0.5l-0.6-8.8l-0.7,0.4L119.9,79.5z"/>
	<path class="st13" d="M119.9,70.2c0,0,0.6-0.4,0.7-0.5l0.7,8.5c0,0-0.3,0.4-0.7,0.8L119.9,70.2z"/>
	<path class="st2" d="M120.6,69.7c0,0,0.7-0.5,0.7-0.6c0-0.1,0.4,8.3,0.4,8.3s-0.1,0.3-0.5,0.7L120.6,69.7z"/>
	<path class="st14" d="M121.3,69.2l0.6-0.6v8.6l-0.2,0.3L121.3,69.2z"/>
	<path class="st15" d="M121.9,68.6l0.8-1.4L122,77l0,0.1L121.9,68.6L121.9,68.6z"/>
	<path class="st16" d="M10.8,79.9L41,105.6l1.1,9.5L10.8,87.7V79.9z"/>
	<path class="st17" d="M89.1,6.2l-2.3,36.5l4.9,3l1.8-37.5L89.1,6.2z"/>
	<path class="st18" d="M93.8,46.8l-2.1-1.2l1.8-37.5c0,0,1.8,1.2,1.6,2L93.8,46.8z"/>
	<path class="st17" d="M104.5,14.1l3.8,1.8L105.9,54l-5.2-3.1L104.5,14.1z"/>
	<path class="st18" d="M108.3,15.9c0,0,2.2,0.2,2,1.8l-2.4,37.4l-2-1.1L108.3,15.9z"/>
	<g>
		<g>
			<defs>
				<rect id="SVGID_1_" y="6.1" width="127" height="114.7"/>
			</defs>
			<clipPath id="SVGID_2_">
				<use xlink:href="#SVGID_1_"  style="overflow:visible;"/>
			</clipPath>
			<path class="st19" d="M120.8,22.3l4.4,2.3l-4,38.6l-5.6-3.4L120.8,22.3z"/>
		</g>
		<g>
			<defs>
				<rect id="SVGID_3_" y="6.1" width="127" height="114.7"/>
			</defs>
			<clipPath id="SVGID_4_">
				<use xlink:href="#SVGID_3_"  style="overflow:visible;"/>
			</clipPath>
			<path class="st20" d="M123.1,65.8l-1.8-2.6l4-38.6c0,0,2,0.1,1.7,1.8L123.1,65.8z"/>
		</g>
	</g>
	<path class="st21" d="M71.6,39.3L12.5,68.8c0,0-6.1,3.4-4.4,9.3l33.8,28.3c0,0,5.4,6.6,17.4,0.7l61.4-38c0,0,5.4-3.2-0.2-6.7
		L84.4,40.9C84.4,40.9,77.1,36.9,71.6,39.3"/>
	<path class="st18" d="M20.7,58.4l6.9,47.6c0,0-1.9,3-3.1,1.8c-1.1-1.2-4.5-34-5.7-45.1C18.6,61.5,17.3,57.9,20.7,58.4"/>
	<path class="st22" d="M18.8,62.8l5.9,45.2c0,0-4.7-3.3-5.7-5.6l-4.8-43.2L18.8,62.8z"/>
	<path class="st23" d="M17.9,56c0,0-0.5-0.5-1.5,0.2c0,0-1.8,1.6-1.8,1.8c0,0-0.8,1.1-0.5,1.7c0,0,3.1,3.2,4.7,3.1
		c0,0,0-1.5,1.4-3.1c0,0,1.1-1.1,0.1-1.9L17.9,56z"/>
	<g>
		<g>
			<defs>
				<rect id="SVGID_5_" y="6.1" width="127" height="114.7"/>
			</defs>
			<clipPath id="SVGID_6_">
				<use xlink:href="#SVGID_5_"  style="overflow:visible;"/>
			</clipPath>
			<path class="st24" d="M6,47.4l7.7,47.4c0,0-1.3,1.6-2.7,1L4.2,51.7C4.3,51.7,3.3,49.3,6,47.4"/>
		</g>
		<g>
			<defs>
				<rect id="SVGID_7_" y="6.1" width="127" height="114.7"/>
			</defs>
			<clipPath id="SVGID_8_">
				<use xlink:href="#SVGID_7_"  style="overflow:visible;"/>
			</clipPath>
			<path class="st25" d="M5.8,90.9c0,0,3.6,4.4,5.3,4.9c1.7,0.5-6.9-44.1-6.9-44.1s-4-5.5-4.3-3.3C0,50.2,5.8,90.9,5.8,90.9"/>
		</g>
		<g>
			<defs>
				<rect id="SVGID_9_" y="6.1" width="127" height="114.7"/>
			</defs>
			<clipPath id="SVGID_10_">
				<use xlink:href="#SVGID_9_"  style="overflow:visible;"/>
			</clipPath>
			<path class="st26" d="M3.4,45.1l2.4,1.8c0,0,0.7,0.5-0.3,1.7c0,0-1.5,1.8-1.2,3.2c0,0-3.3-1.2-4.3-3.3c0,0-0.1-0.9,0.5-1.5
				l1.7-1.6C2.2,45.3,2.9,44.7,3.4,45.1"/>
		</g>
	</g>
	<path class="st27" d="M98.3,49.1c0,0-2.9-0.2-6,2.6L42.8,93.4c0,0-5.3,5.5-7.1,8.5l6.6,5.4c0,0,7.2,5.9,17.1,0.7l60.5-37.7
		c0,0,6.8-3.4,0.6-7.9L98.3,49.1z"/>
	<path class="st28" d="M69.4,72.7l-5.2,4.6c0,0-0.4,0.4,0,0.6l7.3,3.6c0,0,1.8,0.7,1.6-0.6l-1.8-7.7C71.3,73.3,70.6,71.5,69.4,72.7"
		/>
	<g>
		<g>
			<defs>
				<rect id="SVGID_11_" y="6.1" width="127" height="114.7"/>
			</defs>
			<clipPath id="SVGID_12_">
				<use xlink:href="#SVGID_11_"  style="overflow:visible;"/>
			</clipPath>
			<path class="st29" d="M29.6,71.6l3.5,43.6c0,0,3.9,4.5,6.3,5.4c0,0-4.8-44.3-4.7-45.3L29.6,71.6z"/>
		</g>
		<g>
			<defs>
				<rect id="SVGID_13_" y="6.1" width="127" height="114.7"/>
			</defs>
			<clipPath id="SVGID_14_">
				<use xlink:href="#SVGID_13_"  style="overflow:visible;"/>
			</clipPath>
			<path class="st30" d="M36.6,71.2c0,0-2,2-1.8,3.4l4.1,45.7c0,0,0.8,1.4,2.8-0.8L36.6,71.2z"/>
		</g>
	</g>
	<path class="st31" d="M33.5,67.8c0,0-0.5-0.5-1.5,0.2c0,0-1.8,1.6-1.8,1.8c0,0-0.8,1.1-0.5,1.7c0,0,3.5,3.6,5,3.6
		c0,0,0.1-1.9,1.6-3.4c0,0,0.8-1.3-0.2-2.1L33.5,67.8z"/>
</g>
</svg>
