<?xml version="1.0" encoding="utf-8"?>
<!-- Generator: Adobe Illustrator 22.1.0, SVG Export Plug-In . SVG Version: 6.00 Build 0)  -->
<svg version="1.1" id="图层_1" xmlns="http://www.w3.org/2000/svg" xmlns:xlink="http://www.w3.org/1999/xlink" x="0px" y="0px"
	 viewBox="0 0 127 127" style="enable-background:new 0 0 127 127;" xml:space="preserve">
<style type="text/css">
	.st0{filter:url(#Adobe_OpacityMaskFilter);}
	.st1{fill:#FFFFFF;}
	.st2{mask:url(#mask-2_1_);fill:#24272E;}
	.st3{filter:url(#Adobe_OpacityMaskFilter_1_);}
	.st4{mask:url(#mask-4_1_);fill:#2A2D35;}
	.st5{filter:url(#Adobe_OpacityMaskFilter_2_);}
	.st6{mask:url(#mask-6_1_);fill:#2E323B;}
	.st7{filter:url(#Adobe_OpacityMaskFilter_3_);}
	.st8{mask:url(#mask-8_1_);fill:#333740;}
	.st9{filter:url(#Adobe_OpacityMaskFilter_4_);}
	.st10{mask:url(#mask-10_1_);fill:#363A44;}
	.st11{filter:url(#Adobe_OpacityMaskFilter_5_);}
	.st12{mask:url(#mask-12_1_);fill:#393D47;}
	.st13{filter:url(#Adobe_OpacityMaskFilter_6_);}
	.st14{mask:url(#mask-14_1_);fill:#3A3F49;}
	.st15{filter:url(#Adobe_OpacityMaskFilter_7_);}
	.st16{mask:url(#mask-16_1_);fill:#2C2F37;}
	.st17{filter:url(#Adobe_OpacityMaskFilter_8_);}
	.st18{mask:url(#mask-18_1_);fill:#363A44;}
	.st19{filter:url(#Adobe_OpacityMaskFilter_9_);}
	.st20{mask:url(#mask-20_1_);fill:#33373F;}
	.st21{filter:url(#Adobe_OpacityMaskFilter_10_);}
	.st22{mask:url(#mask-22_1_);fill:#33373F;}
	.st23{filter:url(#Adobe_OpacityMaskFilter_11_);}
	.st24{mask:url(#mask-24_1_);fill:#292D34;}
	.st25{filter:url(#Adobe_OpacityMaskFilter_12_);}
	.st26{mask:url(#mask-26_1_);fill:#22252B;}
	.st27{filter:url(#Adobe_OpacityMaskFilter_13_);}
	.st28{mask:url(#mask-28_1_);fill:#1B1D23;}
	.st29{filter:url(#Adobe_OpacityMaskFilter_14_);}
	.st30{mask:url(#mask-30_1_);fill:#14161A;}
	.st31{fill:#22252C;}
	.st32{fill:#3C4048;}
	.st33{fill:#EF6019;}
	.st34{fill:#15171B;}
	.st35{fill:#282D39;}
	.st36{fill:#484E5A;}
	.st37{filter:url(#Adobe_OpacityMaskFilter_15_);}
	.st38{mask:url(#mask-32_1_);fill:#484E5A;}
</style>
<title>img_W1</title>
<desc>Created with Sketch.</desc>
<g id="img_W1">
	<g id="Group-86" transform="translate(0.000000, 6.000000)">
		<g id="Group-22" transform="translate(116.340528, 59.966385)">
			<g id="Group-3">
				<g id="Clip-2">
				</g>
				<defs>
					<filter id="Adobe_OpacityMaskFilter" filterUnits="userSpaceOnUse" x="-0.2" y="5.5" width="2.4" height="11.6">
						<feColorMatrix  type="matrix" values="1 0 0 0 0  0 1 0 0 0  0 0 1 0 0  0 0 0 1 0"/>
					</filter>
				</defs>
				<mask maskUnits="userSpaceOnUse" x="-0.2" y="5.5" width="2.4" height="11.6" id="mask-2_1_">
					<g class="st0">
						<path id="path-1_1_" class="st1" d="M0.1,6.7l0.5,9.2c0,0,5.2-2.9,5.6-4.5C6.2,11.5,7,0.1,6.8,0c0,0,0,0,0,0
							C6.4,0,6.9,2.5,0.1,6.7z"/>
					</g>
				</mask>
				<polygon id="Fill-1" class="st2" points="-0.2,6.5 1.5,5.5 2.2,16.1 0.6,17.1 				"/>
			</g>
			<g id="Group-6">
				<g id="Clip-5">
				</g>
				<defs>
					<filter id="Adobe_OpacityMaskFilter_1_" filterUnits="userSpaceOnUse" x="1.5" y="4.4" width="2.4" height="11.7">
						<feColorMatrix  type="matrix" values="1 0 0 0 0  0 1 0 0 0  0 0 1 0 0  0 0 0 1 0"/>
					</filter>
				</defs>
				<mask maskUnits="userSpaceOnUse" x="1.5" y="4.4" width="2.4" height="11.7" id="mask-4_1_">
					<g class="st3">
						<path id="path-3_1_" class="st1" d="M0.1,6.7l0.5,9.2c0,0,5.2-2.9,5.6-4.5C6.2,11.5,7,0.1,6.8,0c0,0,0,0,0,0
							C6.4,0,6.9,2.5,0.1,6.7z"/>
					</g>
				</mask>
				<path id="Fill-4" class="st4" d="M1.5,5.5l1.7-1.1l0.6,10.3c0,0-0.5,0.6-1.7,1.4L1.5,5.5z"/>
			</g>
			<g id="Group-9">
				<g id="Clip-8">
				</g>
				<defs>
					<filter id="Adobe_OpacityMaskFilter_2_" filterUnits="userSpaceOnUse" x="3.1" y="4" width="1.4" height="10.7">
						<feColorMatrix  type="matrix" values="1 0 0 0 0  0 1 0 0 0  0 0 1 0 0  0 0 0 1 0"/>
					</filter>
				</defs>
				<mask maskUnits="userSpaceOnUse" x="3.1" y="4" width="1.4" height="10.7" id="mask-6_1_">
					<g class="st5">
						<path id="path-5_1_" class="st1" d="M0.1,6.7l0.5,9.2c0,0,5.2-2.9,5.6-4.5C6.2,11.5,7,0.1,6.8,0c0,0,0,0,0,0
							C6.4,0,6.9,2.5,0.1,6.7z"/>
					</g>
				</mask>
				<polygon id="Fill-7" class="st6" points="3.9,14.7 4.5,14.2 3.9,4 3.1,4.5 				"/>
			</g>
			<g id="Group-12">
				<g id="Clip-11">
				</g>
				<defs>
					<filter id="Adobe_OpacityMaskFilter_3_" filterUnits="userSpaceOnUse" x="3.9" y="3.5" width="1.4" height="10.7">
						<feColorMatrix  type="matrix" values="1 0 0 0 0  0 1 0 0 0  0 0 1 0 0  0 0 0 1 0"/>
					</filter>
				</defs>
				<mask maskUnits="userSpaceOnUse" x="3.9" y="3.5" width="1.4" height="10.7" id="mask-8_1_">
					<g class="st7">
						<path id="path-7_1_" class="st1" d="M0.1,6.7l0.5,9.2c0,0,5.2-2.9,5.6-4.5C6.2,11.5,7,0.1,6.8,0c0,0,0,0,0,0
							C6.4,0,6.9,2.5,0.1,6.7z"/>
					</g>
				</mask>
				<path id="Fill-10" class="st8" d="M3.9,4.1c0,0,0.7-0.5,0.7-0.6l0.7,9.8c0,0-0.3,0.5-0.8,0.9L3.9,4.1z"/>
			</g>
			<g id="Group-15">
				<g id="Clip-14">
				</g>
				<defs>
					<filter id="Adobe_OpacityMaskFilter_4_" filterUnits="userSpaceOnUse" x="4.6" y="2.9" width="1.2" height="10.4">
						<feColorMatrix  type="matrix" values="1 0 0 0 0  0 1 0 0 0  0 0 1 0 0  0 0 0 1 0"/>
					</filter>
				</defs>
				<mask maskUnits="userSpaceOnUse" x="4.6" y="2.9" width="1.2" height="10.4" id="mask-10_1_">
					<g class="st9">
						<path id="path-9_1_" class="st1" d="M0.1,6.7l0.5,9.2c0,0,5.2-2.9,5.6-4.5C6.2,11.5,7,0.1,6.8,0c0,0,0,0,0,0
							C6.4,0,6.9,2.5,0.1,6.7z"/>
					</g>
				</mask>
				<path id="Fill-13" class="st10" d="M4.6,3.5c0,0,0.7-0.6,0.8-0.7c0.1-0.1,0.5,9.5,0.5,9.5s-0.2,0.4-0.5,0.9L4.6,3.5z"/>
			</g>
			<g id="Group-18">
				<g id="Clip-17">
				</g>
				<defs>
					<filter id="Adobe_OpacityMaskFilter_5_" filterUnits="userSpaceOnUse" x="5.3" y="2.2" width="0.6" height="10.2">
						<feColorMatrix  type="matrix" values="1 0 0 0 0  0 1 0 0 0  0 0 1 0 0  0 0 0 1 0"/>
					</filter>
				</defs>
				<mask maskUnits="userSpaceOnUse" x="5.3" y="2.2" width="0.6" height="10.2" id="mask-12_1_">
					<g class="st11">
						<path id="path-11_1_" class="st1" d="M0.1,6.7l0.5,9.2c0,0,5.2-2.9,5.6-4.5C6.2,11.5,7,0.1,6.8,0c0,0,0,0,0,0
							C6.4,0,6.9,2.5,0.1,6.7z"/>
					</g>
				</mask>
				<polygon id="Fill-16" class="st12" points="5.3,2.9 6,2.2 6,12.1 5.8,12.4 				"/>
			</g>
			<g id="Group-21">
				<g id="Clip-20">
				</g>
				<defs>
					<filter id="Adobe_OpacityMaskFilter_6_" filterUnits="userSpaceOnUse" x="6" y="-1" width="1.2" height="13">
						<feColorMatrix  type="matrix" values="1 0 0 0 0  0 1 0 0 0  0 0 1 0 0  0 0 0 1 0"/>
					</filter>
				</defs>
				<mask maskUnits="userSpaceOnUse" x="6" y="-1" width="1.2" height="13" id="mask-14_1_">
					<g class="st13">
						<path id="path-13_1_" class="st1" d="M0.1,6.7l0.5,9.2c0,0,5.2-2.9,5.6-4.5C6.2,11.5,7,0.1,6.8,0c0,0,0,0,0,0
							C6.4,0,6.9,2.5,0.1,6.7"/>
					</g>
				</mask>
				<path id="Fill-19" class="st14" d="M6.5,0.5l0,0.2L6,1.8v10.3L6,11.9l0-0.2l0,0.2c0.1-0.2,0.2-0.5,0.2-0.5L7.1-1
					C7-0.2,6.5,0.5,6.5,0.5"/>
			</g>
		</g>
		<g id="Group-47" transform="translate(42.333333, 101.386049)">
			<g id="Group-25">
				<g id="Clip-24">
				</g>
				<defs>
					<filter id="Adobe_OpacityMaskFilter_7_" filterUnits="userSpaceOnUse" x="13.9" y="0.2" width="3.9" height="13.1">
						<feColorMatrix  type="matrix" values="1 0 0 0 0  0 1 0 0 0  0 0 1 0 0  0 0 0 1 0"/>
					</filter>
				</defs>
				<mask maskUnits="userSpaceOnUse" x="13.9" y="0.2" width="3.9" height="13.1" id="mask-16_1_">
					<g class="st15">
						<path id="path-15_1_" class="st1" d="M0,8.2c0,0,8.2,9.5,17.6,2.8L17.2,0.8c0,0-8.5,5.3-17.2-0.7V8.2z"/>
					</g>
				</mask>
				<path id="Fill-23" class="st16" d="M13.9,1.9l0.3,11.4c0,0,2.1-0.9,3.5-1.8L17.3,0.2L13.9,1.9z"/>
			</g>
			<g id="Group-28">
				<g id="Clip-27">
				</g>
				<defs>
					<filter id="Adobe_OpacityMaskFilter_8_" filterUnits="userSpaceOnUse" x="9.5" y="2" width="3.2" height="11.6">
						<feColorMatrix  type="matrix" values="1 0 0 0 0  0 1 0 0 0  0 0 1 0 0  0 0 0 1 0"/>
					</filter>
				</defs>
				<mask maskUnits="userSpaceOnUse" x="9.5" y="2" width="3.2" height="11.6" id="mask-18_1_">
					<g class="st17">
						<path id="path-17_1_" class="st1" d="M0,8.2c0,0,8.2,9.5,17.6,2.8L17.2,0.8c0,0-8.5,5.3-17.2-0.7V8.2z"/>
					</g>
				</mask>
				<path id="Fill-26" class="st18" d="M9.5,2.7c0,0,2-0.2,2.9-0.6l0.2,11.2c0,0-1.7,0.5-3,0.3L9.5,2.7z"/>
			</g>
			<g id="Group-31">
				<g id="Clip-30">
				</g>
				<defs>
					<filter id="Adobe_OpacityMaskFilter_9_" filterUnits="userSpaceOnUse" x="12.5" y="1.7" width="1.8" height="12.1">
						<feColorMatrix  type="matrix" values="1 0 0 0 0  0 1 0 0 0  0 0 1 0 0  0 0 0 1 0"/>
					</filter>
				</defs>
				<mask maskUnits="userSpaceOnUse" x="12.5" y="1.7" width="1.8" height="12.1" id="mask-20_1_">
					<g class="st19">
						<path id="path-19_1_" class="st1" d="M0,8.2c0,0,8.2,9.5,17.6,2.8L17.2,0.8c0,0-8.5,5.3-17.2-0.7V8.2z"/>
					</g>
				</mask>
				<polygon id="Fill-29" class="st20" points="12.5,2.3 13.9,1.7 14.3,13.3 12.7,13.9 				"/>
			</g>
			<g id="Group-34">
				<g id="Clip-33">
				</g>
				<defs>
					<filter id="Adobe_OpacityMaskFilter_10_" filterUnits="userSpaceOnUse" x="8.6" y="2.6" width="1.1" height="10.9">
						<feColorMatrix  type="matrix" values="1 0 0 0 0  0 1 0 0 0  0 0 1 0 0  0 0 0 1 0"/>
					</filter>
				</defs>
				<mask maskUnits="userSpaceOnUse" x="8.6" y="2.6" width="1.1" height="10.9" id="mask-22_1_">
					<g class="st21">
						<path id="path-21_1_" class="st1" d="M0,8.2c0,0,8.2,9.5,17.6,2.8L17.2,0.8c0,0-8.5,5.3-17.2-0.7V8.2z"/>
					</g>
				</mask>
				<path id="Fill-32" class="st22" d="M9.5,2.6H8.6v10.8c0,0,0.3,0.1,1.1,0.2L9.5,2.6z"/>
			</g>
			<g id="Group-37">
				<g id="Clip-36">
				</g>
				<defs>
					<filter id="Adobe_OpacityMaskFilter_11_" filterUnits="userSpaceOnUse" x="7.6" y="2.6" width="1" height="10.8">
						<feColorMatrix  type="matrix" values="1 0 0 0 0  0 1 0 0 0  0 0 1 0 0  0 0 0 1 0"/>
					</filter>
				</defs>
				<mask maskUnits="userSpaceOnUse" x="7.6" y="2.6" width="1" height="10.8" id="mask-24_1_">
					<g class="st23">
						<path id="path-23_1_" class="st1" d="M0,8.2c0,0,8.2,9.5,17.6,2.8L17.2,0.8c0,0-8.5,5.3-17.2-0.7V8.2z"/>
					</g>
				</mask>
				<polygon id="Fill-35" class="st24" points="8.6,2.6 7.6,2.6 7.6,13.1 8.6,13.4 				"/>
			</g>
			<g id="Group-40">
				<g id="Clip-39">
				</g>
				<defs>
					<filter id="Adobe_OpacityMaskFilter_12_" filterUnits="userSpaceOnUse" x="6.1" y="2.3" width="1.5" height="10.8">
						<feColorMatrix  type="matrix" values="1 0 0 0 0  0 1 0 0 0  0 0 1 0 0  0 0 0 1 0"/>
					</filter>
				</defs>
				<mask maskUnits="userSpaceOnUse" x="6.1" y="2.3" width="1.5" height="10.8" id="mask-26_1_">
					<g class="st25">
						<path id="path-25_1_" class="st1" d="M0,8.2c0,0,8.2,9.5,17.6,2.8L17.2,0.8c0,0-8.5,5.3-17.2-0.7V8.2z"/>
					</g>
				</mask>
				<path id="Fill-38" class="st26" d="M7.6,2.5c0,0-1.4-0.1-1.5-0.2v10.3c0,0,0.7,0.4,1.5,0.6V2.5z"/>
			</g>
			<g id="Group-43">
				<g id="Clip-42">
				</g>
				<defs>
					<filter id="Adobe_OpacityMaskFilter_13_" filterUnits="userSpaceOnUse" x="5.1" y="2" width="1" height="10.5">
						<feColorMatrix  type="matrix" values="1 0 0 0 0  0 1 0 0 0  0 0 1 0 0  0 0 0 1 0"/>
					</filter>
				</defs>
				<mask maskUnits="userSpaceOnUse" x="5.1" y="2" width="1" height="10.5" id="mask-28_1_">
					<g class="st27">
						<path id="path-27_1_" class="st1" d="M0,8.2c0,0,8.2,9.5,17.6,2.8L17.2,0.8c0,0-8.5,5.3-17.2-0.7V8.2z"/>
					</g>
				</mask>
				<path id="Fill-41" class="st28" d="M6.1,2.2c0,0-0.7-0.1-1-0.2v10c0,0,0.1,0.1,1,0.5V2.2z"/>
			</g>
			<g id="Group-46">
				<g id="Clip-45">
				</g>
				<defs>
					<filter id="Adobe_OpacityMaskFilter_14_" filterUnits="userSpaceOnUse" x="-0.1" y="-0.3" width="5.3" height="12.3">
						<feColorMatrix  type="matrix" values="1 0 0 0 0  0 1 0 0 0  0 0 1 0 0  0 0 0 1 0"/>
					</filter>
				</defs>
				<mask maskUnits="userSpaceOnUse" x="-0.1" y="-0.3" width="5.3" height="12.3" id="mask-30_1_">
					<g class="st29">
						<path id="path-29_1_" class="st1" d="M0,8.2c0,0,8.2,9.5,17.6,2.8L17.2,0.8c0,0-8.5,5.3-17.2-0.7V8.2z"/>
					</g>
				</mask>
				<path id="Fill-44" class="st30" d="M5.2,1.4c0,0-2,1.1-5.3-1.6v8.4c0,0,2.5,2.6,5.2,3.9L5.2,1.4z"/>
			</g>
		</g>
		<g id="Group-85" transform="translate(0.000000, 0.121061)">
			<path id="Fill-48" class="st31" d="M120.5,56.5L84.4,35c0,0-7.3-3.9-12.8-1.6L12.5,63c0,0-6.1,3.4-4.4,9.3L42,100.5
				c0,0,5.4,6.6,17.4,0.7l0.2-0.1l0.5,11.2l57-36.5l-0.6-9.8l4.3-2.7C120.7,63.2,126.2,60,120.5,56.5"/>
			<path id="Combined-Shape" class="st32" d="M60.8,72.4L60.8,72.4L86.9,85l-27.5,17.2c-9.9,5.2-17-0.8-17-0.8L35.7,96
				c1.7-3,7.1-8.5,7.1-8.5L60.8,72.4z M120.5,56.5c6.3,4-0.6,7.9-0.6,7.9L87,84.9l0-0.1L60.9,72.3l31.4-26.4
				c3.1-2.8,6.1-2.6,6.1-2.6S115.1,53,120.5,56.5z"/>
			<path id="Fill-54" class="st33" d="M64.2,72l7.3,3.6c0,0,1.8,0.7,1.6-0.6l-1.8-7.6c0,0-0.6-1.7-1.9-0.6l-5.2,4.6
				C64.2,71.4,63.8,71.7,64.2,72"/>
			<polygon id="Fill-56" class="st34" points="86.8,36.4 91.7,39.3 93.4,1.9 89.1,0 			"/>
			<polygon id="Fill-58" class="st34" points="100.7,44.7 105.9,47.7 108.3,9.7 104.5,7.9 			"/>
			<path id="Fill-60" class="st34" d="M120.8,16.4l-5.1,37.2c0,0,3.2,1.9,5.6,3.6c0.8-7.6,3.9-38.5,3.9-38.5L120.8,16.4z"/>
			<path id="Fill-62" class="st34" d="M0,42.5c0,1.8,5.8,42.5,5.8,42.5s3.6,4.4,5.3,4.9c1.7,0.5-6.9-44.1-6.9-44.1S0.3,40.4,0,42.5"
				/>
			<path id="Fill-64" class="st34" d="M34.6,69.5l-5-3.7l2.1,26.1l-9.4-8l-3.5-26.9l-4.7-3.6l2.9,26l-6.1-5.2v7.8l7.1,6.2l0.9,8.4
				c1,2.4,5.7,5.6,5.7,5.6l-1.2-9.2l9,7.8l0.7,8.6c0,0,3.9,4.5,6.3,5.4c0,0-0.5-4.2-1-9.4l4.1,4.1v-8.2l-5-4
				C36,85,34.6,70.1,34.6,69.5"/>
			<path id="Combined-Shape_1_" class="st35" d="M93.4,1.9c0,0,1.8,1.2,1.6,2l-1.2,36.7l-2.1-1.3L93.4,1.9z M108.3,9.7
				c0,0,2.2,0.2,2,1.8l-2.3,37.3l-2-1.2L108.3,9.7z M125.3,18.7c0,0,2,0.2,1.7,1.8l-3.8,39.4c0,0-0.3-1.7-1.8-2.8
				C122.3,47.8,125.3,18.7,125.3,18.7z M18.8,56.9c-0.1-1.2-1.5-4.9,1.9-4.4l6.9,47.7c0,0-1.9,3-3.1,1.8
				C23.3,100.8,19.9,68,18.8,56.9z M4.3,45.8c0,0-0.9-2.4,1.8-4.4l7.7,47.4c0,0-1.3,1.6-2.7,1L4.3,45.8z M34.8,68.7
				c-0.2-1.4,1.8-3.4,1.8-3.4l5,48.2c-2,2.3-2.8,0.9-2.8,0.9L34.8,68.7z"/>
			<path id="Fill-78" class="st36" d="M20.2,51.8l-2.3-1.7c0,0-0.5-0.5-1.5,0.2c0,0-1.8,1.6-1.8,1.8c0,0-0.8,1.1-0.5,1.7
				c0,0,3.1,3.2,4.7,3.1c0,0,0-1.5,1.4-3.1C20.1,53.8,21.3,52.7,20.2,51.8"/>
			<g id="Group-82" transform="translate(0.000000, 38.983213)">
				<g id="Clip-81">
				</g>
				<defs>
					<filter id="Adobe_OpacityMaskFilter_15_" filterUnits="userSpaceOnUse" x="0" y="0.1" width="6" height="6.7">
						<feColorMatrix  type="matrix" values="1 0 0 0 0  0 1 0 0 0  0 0 1 0 0  0 0 0 1 0"/>
					</filter>
				</defs>
				<mask maskUnits="userSpaceOnUse" x="0" y="0.1" width="6" height="6.7" id="mask-32_1_">
					<g class="st37">
						<polygon id="path-31_1_" class="st1" points="0,0.1 6,0.1 6,6.8 0,6.8 						"/>
					</g>
				</mask>
				<path id="Fill-80" class="st38" d="M5.8,2L3.4,0.2C3-0.1,2.2,0.4,2.2,0.4L0.5,2C-0.1,2.6,0,3.5,0,3.5c1,2.1,4.3,3.3,4.3,3.3
					C4,5.5,5.5,3.7,5.5,3.7C6.5,2.5,5.8,2,5.8,2"/>
			</g>
			<path id="Fill-83" class="st36" d="M36.1,63.8L33.5,62c0,0-0.5-0.5-1.5,0.2c0,0-1.8,1.6-1.8,1.8c0,0-0.8,1.1-0.5,1.7
				c0,0,3.5,3.6,5,3.6c0,0,0.1-1.9,1.6-3.4C36.3,65.8,37.1,64.6,36.1,63.8"/>
		</g>
	</g>
</g>
</svg>
