<?xml version="1.0" encoding="utf-8"?>
<!-- Generator: Adobe Illustrator 22.1.0, SVG Export Plug-In . SVG Version: 6.00 Build 0)  -->
<svg version="1.1" id="图层_1" xmlns="http://www.w3.org/2000/svg" xmlns:xlink="http://www.w3.org/1999/xlink" x="0px" y="0px"
	 viewBox="0 0 127 127" style="enable-background:new 0 0 127 127;" xml:space="preserve">
<style type="text/css">
	.st0{clip-path:url(#SVGID_2_);}
	.st1{fill:#24272E;}
	.st2{fill:#2A2D35;}
	.st3{fill:#2E323B;}
	.st4{fill:#333740;}
	.st5{fill:#363A44;}
	.st6{fill:#393D47;}
	.st7{fill:#3A3F49;}
	.st8{clip-path:url(#SVGID_4_);}
	.st9{fill:#2C2F37;}
	.st10{fill:#33373F;}
	.st11{fill:#292D34;}
	.st12{fill:#22252B;}
	.st13{fill:#1B1D23;}
	.st14{fill:#14161A;}
	.st15{fill:#22252C;}
	.st16{fill:#3C4048;}
	.st17{fill:#EF6019;}
	.st18{fill:#15171B;}
	.st19{fill:#282D39;}
	.st20{fill:#484E5A;}
</style>
<g>
	<g>
		<g>
			<defs>
				<path id="SVGID_1_" d="M123.1,66c-0.4-0.2,0,2.2-7,6.6l0.5,9.4c0,0,5.5-3,5.8-4.6C122.6,77.4,123.3,66,123.1,66z"/>
			</defs>
			<clipPath id="SVGID_2_">
				<use xlink:href="#SVGID_1_"  style="overflow:visible;"/>
			</clipPath>
			<g class="st0">
				<polygon class="st1" points="116.2,72.4 118.3,71.1 118.8,81.9 116.9,83 				"/>
				<path class="st2" d="M117.9,71.4l1.7-1.1l0.8,10.2c0,0-0.7,0.7-1.9,1.5L117.9,71.4z"/>
				<polygon class="st3" points="120.3,80.7 121,79.9 120.3,69.7 119.5,70.4 				"/>
				<path class="st4" d="M120.3,70c0,0,0.8-0.7,0.9-0.8l0.7,9.9c0,0-0.4,0.6-0.9,1.1L120.3,70z"/>
				<path class="st5" d="M121,69.4c0,0,0.9-0.7,0.9-0.8c0.1-0.1,0.4,9.4,0.4,9.4s-0.3,0.7-0.7,1.2L121,69.4z"/>
				<polygon class="st6" points="121.7,68.8 122.5,67.8 122.5,77.8 122.2,78.3 				"/>
				<path class="st7" d="M122.9,66.5v0.2l-0.5,1V78l0.1-0.2v-0.2v0.2c0.1-0.2,0.2-0.5,0.2-0.5l0.9-12.4
					C123.4,65.7,122.9,66.5,122.9,66.5z"/>
			</g>
		</g>
	</g>
	<g>
		<g>
			<defs>
				<path id="SVGID_3_" d="M42.4,115.6c0,0,8.5,9.3,18,2.6L60,107.4c0,0-8.9,5.7-17.7-0.3v8.5H42.4z"/>
			</defs>
			<clipPath id="SVGID_4_">
				<use xlink:href="#SVGID_3_"  style="overflow:visible;"/>
			</clipPath>
			<g class="st8">
				<path class="st9" d="M55.7,109.5l0.4,11.4c0,0,2.7-1.2,4.1-2.1l-0.5-11.3L55.7,109.5z"/>
				<path class="st5" d="M51.5,109.8c0,0,2.4,0,3.3-0.5l0.7,11.2c0,0-2.5,0.6-3.8,0.4L51.5,109.8z"/>
				<polygon class="st10" points="54.3,109.5 56.3,109.1 56.6,120.6 55,121.2 				"/>
				<path class="st10" d="M51.9,110h-1.2l-0.1,10.9c0,0,0.7,0.3,1.4,0.3L51.9,110z"/>
				<polygon class="st11" points="50.9,110 49.6,109.7 49.3,120.7 50.9,120.9 				"/>
				<path class="st12" d="M49.9,109.9c0,0-1.6-0.4-1.7-0.5L47.9,120c0,0,1.1,0.2,2,0.5V109.9z"/>
				<path class="st13" d="M48.4,109.6c0,0-1.1-0.3-1.4-0.4l-0.2,10.4c0,0,0.7-0.1,1.5,0.3v-10.3H48.4z"/>
				<path class="st14" d="M47.6,108.7c0,0-2,1.1-5.3-1.6v8.4c0,0,2.5,2.6,5.2,3.9L47.6,108.7z"/>
			</g>
		</g>
	</g>
	<path class="st15" d="M120.6,62.6L84.5,41c0,0-7.3-3.9-12.8-1.6L12.5,69c0,0-6.1,3.4-4.4,9.3L42,106.6c0,0,5.4,6.6,17.4,0.7
		l0.2-0.1l0.5,11.2l57-36.7l-0.6-9.6l4.3-2.7C120.8,69.3,126.2,66.1,120.6,62.6z"/>
	<g>
		<g>
			<path class="st16" d="M60.8,78.4l-18,15.2c0,0-6.4,6.1-8.1,9.1l7.7,4.8c0,0,7.8,6,17.2,0.7L87,91L60.8,78.4L60.8,78.4z"/>
			<path class="st16" d="M120.5,62.6c-5.3-3.6-22.1-13.2-22.1-13.2s-3-0.2-6.1,2.6L60.9,78.4l26.2,12.5V91L120,70.5
				C119.9,70.5,126.8,66.8,120.5,62.6z"/>
		</g>
		<path class="st17" d="M64.2,78.1l7.3,3.6c0,0,1.8,0.7,1.6-0.6l-1.8-7.6c0,0-0.6-1.7-1.9-0.6l-5.2,4.6
			C64.2,77.5,63.8,77.8,64.2,78.1z"/>
	</g>
	<g>
		<polygon class="st18" points="86.8,42.4 91.9,45.5 93.7,8.1 89.1,6.1 		"/>
		<polygon class="st18" points="100.8,50.7 106.2,54 108.5,15.8 104.5,14 		"/>
		<path class="st18" d="M120.9,22.4l-5.2,37.3c0,0,3.3,1.9,5.8,3.6c0.8-7.6,3.9-38.5,3.9-38.5L120.9,22.4z"/>
		<path class="st18" d="M0,48.6c0,1.8,5.8,42.5,5.8,42.5s3.6,4.4,5.3,4.9S4.8,51.9,4.8,51.9S0.3,46.4,0,48.6z"/>
		<path class="st18" d="M35.4,75.3l-5.8-3.5l2.1,26.1l-9.4-8l-2.5-27.3L14,59.4l2.9,26l-6.1-5.2V88l7.1,6.3l0.9,8.4
			c1,2.4,5.7,5.6,5.7,5.6L23.4,99l9,7.8l0.7,8.6c0,0,3.9,4.5,6.3,5.4c0,0-0.5-3.8-1-9l4,3.8l0-8.1l-4.1-2.6
			C36.8,92.7,35.4,75.9,35.4,75.3z"/>
	</g>
	<g>
		<path class="st19" d="M93.5,8l-1.8,37.4l2.1,1.3L95.1,10C95.2,9.2,93.5,8,93.5,8z"/>
		<path class="st19" d="M108.3,15.8l-2.4,38l2,1.2l2.3-37.4C110.5,16,108.3,15.8,108.3,15.8z"/>
		<path class="st19" d="M125.3,24.7c0,0-3,29.1-3.9,38.5c1.5,1.1,1.8,3,1.8,3l3.8-39.7C127.3,24.9,125.3,24.7,125.3,24.7z"/>
		<path class="st19" d="M18.8,63c1.1,11.1,4.5,43.9,5.7,45.1s3.1-1.8,3.1-1.8l-6.9-47.7C17.3,58.1,18.7,61.7,18.8,63z"/>
		<path class="st19" d="M4.3,51.9L11,96c1.4,0.6,2.7-1,2.7-1L6,47.5C3.3,49.4,4.3,51.9,4.3,51.9z"/>
		<path class="st19" d="M34.8,74.8l4.1,45.7c0,0,0.8,1.4,2.8-0.9l-5-48.2C36.6,71.4,34.7,73.4,34.8,74.8z"/>
	</g>
	<g>
		<path class="st20" d="M20.2,57.9l-2.3-1.7c0,0-0.5-0.5-1.5,0.2c0,0-1.8,1.6-1.8,1.8c0,0-0.8,1.1-0.5,1.7c0,0,3.1,3.2,4.7,3.1
			c0,0,0-1.5,1.4-3.1C20.2,59.9,21.3,58.7,20.2,57.9z"/>
		<path class="st20" d="M5.8,47l-2.4-1.8c-0.5-0.4-1.2,0.2-1.2,0.2L0.5,47C-0.1,47.7,0,48.6,0,48.6c1,2.1,4.3,3.3,4.3,3.3
			c-0.3-1.4,1.3-3.2,1.3-3.2C6.5,47.5,5.8,47,5.8,47z"/>
		<path class="st20" d="M36.1,69.8L33.5,68c0,0-0.5-0.5-1.5,0.2c0,0-1.8,1.6-1.8,1.8c0,0-0.8,1.1-0.5,1.7c0,0,3.5,3.6,5,3.6
			c0,0,0.1-1.9,1.6-3.4C36.3,71.9,37.1,70.6,36.1,69.8z"/>
	</g>
</g>
</svg>
