<?xml version="1.0" encoding="UTF-8"?>
<svg width="60px" height="60px" viewBox="0 0 60 60" version="1.1" xmlns="http://www.w3.org/2000/svg" xmlns:xlink="http://www.w3.org/1999/xlink">
    <!-- Generator: Sketch 51.3 (57544) - http://www.bohemiancoding.com/sketch -->
    <title>Oval 8 Copy 12</title>
    <desc>Created with Sketch.</desc>
    <defs>
        <circle id="path-1" cx="30" cy="30" r="30"></circle>
        <circle id="path-3" cx="30" cy="30" r="30"></circle>
    </defs>
    <g id="Oval-8-Copy-12" stroke="none" stroke-width="1" fill="none" fill-rule="evenodd">
        <g id="Rectangle">
            <mask id="mask-2" fill="white">
                <use xlink:href="#path-1"></use>
            </mask>
            <g id="Mask" opacity="0.400000006"></g>
            <g id="Oval-8-Copy-13" mask="url(#mask-2)">
                <g id="Rectangle">
                    <mask id="mask-4" fill="white">
                        <use xlink:href="#path-3"></use>
                    </mask>
                    <g id="Mask" opacity="0.400000006"></g>
                    <circle id="Mask" stroke="#7D8FB7" opacity="0.200000003" mask="url(#mask-4)" cx="30" cy="30" r="29.5"></circle>
                </g>
            </g>
            <rect id="Rectangle-12" fill="#E5E9F1" mask="url(#mask-2)" x="0" y="49" width="60" height="10"></rect>
        </g>
        <g id="Group-8" transform="translate(20.000000, 52.000000)">
            <path d="M0.9512,2.25815652 L2.4374029,2.25815652 C2.66725797,2.25815652 2.85357682,2.44441738 2.85357682,2.67415652 C2.85357682,2.90383768 2.66725797,3.09009855 2.4374029,3.09009855 L2.2001855,3.0907942 L0.101924638,3.09015652 L0.101924638,3.80314203 L2.85357682,3.80314203 C3.3787942,3.80314203 3.80476522,3.3774029 3.80476522,2.85241738 L3.80476522,2.49589565 C3.80476522,1.97085217 3.3787942,1.54505507 2.85357682,1.54505507 L1.36737391,1.54505507 C1.13751884,1.54505507 0.9512,1.3587942 0.9512,1.12905507 C0.9512,0.899373913 1.13751884,0.713171015 1.36737391,0.713171015 L1.60459131,0.71235942 L3.70285217,0.713113043 L3.70285217,1.15942029e-05 L0.9512,1.15942029e-05 C0.425924638,1.15942029e-05 1.15942029e-05,0.425808695 1.15942029e-05,0.950794203 L1.15942029e-05,1.30737391 C1.15942029e-05,1.83235942 0.425924638,2.25815652 0.9512,2.25815652" id="Fill-1" fill="#FF8E2D" fill-rule="nonzero"></path>
            <polygon id="Clip-4" points="0 3.80322898 19.9750145 3.80322898 19.9750145 -1.73913043e-05 0 -1.73913043e-05"></polygon>
            <polygon id="Fill-3" fill="#FF8E2D" fill-rule="nonzero" points="19.0238262 3.80322898 19.9750145 3.80322898 19.9750145 4.05797102e-05 19.0238262 4.05797102e-05"></polygon>
            <path d="M6.89611595,3.09007537 L5.94492753,3.09007537 C5.68231883,3.09007537 5.46933333,2.8772058 5.46933333,2.61471305 L5.46933333,4.63768117e-05 L4.51814493,4.63768117e-05 L4.51814493,2.42097392 L4.51808695,2.8523942 C4.51808695,3.37737972 4.94411595,3.80317682 5.46933333,3.80317682 L5.96069565,3.80317682 L6.88034783,3.80317682 L7.37171015,3.80317682 C7.89692753,3.80317682 8.32289855,3.37737972 8.32289855,2.8523942 L8.32289855,2.42097392 L8.32289855,4.63768117e-05 L7.37176812,4.63768117e-05 L7.37171015,2.61471305 C7.37171015,2.8772058 7.15872463,3.09007537 6.89611595,3.09007537" id="Fill-5" fill="#FF8E2D" fill-rule="nonzero"></path>
            <path d="M10.4630899,0.713153623 L11.4142783,0.713153623 C11.676887,0.713153623 11.8898725,0.926023188 11.8898725,1.18851594 L11.8898725,3.80318262 L12.8410609,3.80318262 L12.8410609,1.38225507 L12.8411188,0.950834783 C12.8411188,0.425791305 12.4150899,5.2173913e-05 11.8898725,5.2173913e-05 L11.3985101,5.2173913e-05 L10.478858,5.2173913e-05 L9.98749565,5.2173913e-05 C9.46227827,5.2173913e-05 9.03630725,0.425791305 9.03630725,0.950834783 L9.03636522,1.38225507 L9.03630725,3.80318262 L9.98749565,3.80318262 L9.98749565,1.18851594 C9.98749565,0.926023188 10.2004812,0.713153623 10.4630899,0.713153623" id="Fill-6" fill="#FF8E2D" fill-rule="nonzero"></path>
            <path d="M15.4568696,3.80317102 L16.408058,3.80317102 L16.408058,1.42624348 L15.4568696,1.42624348 L15.4568696,3.80317102 Z M14.9812754,0.713142028 L16.8836522,0.713142028 C17.1462608,0.713142028 17.3592463,0.926011595 17.3592463,1.18850435 L17.3592463,3.80317102 L18.3103768,3.80317102 L18.3103768,1.38224348 L18.3104348,0.950823188 C18.3104348,0.425837682 17.8845217,4.05797102e-05 17.3592463,4.05797102e-05 L16.867942,4.05797102e-05 L14.9970435,4.05797102e-05 L14.5056812,4.05797102e-05 C13.9804638,4.05797102e-05 13.5544927,0.425837682 13.5544927,0.950823188 L13.5544927,1.38224348 L13.5544927,3.80317102 L14.5056812,3.80317102 L14.5056812,1.18850435 C14.5056812,0.926011595 14.7186087,0.713142028 14.9812754,0.713142028 Z" id="Fill-7" fill="#FF8E2D" fill-rule="nonzero"></path>
        </g>
    </g>
</svg>