<?xml version="1.0" encoding="utf-8"?>
<!-- Generator: Adobe Illustrator 23.0.1, SVG Export Plug-In . SVG Version: 6.00 Build 0)  -->
<svg version="1.1" id="图层_1" xmlns="http://www.w3.org/2000/svg" xmlns:xlink="http://www.w3.org/1999/xlink" x="0px" y="0px"
	 viewBox="0 0 48 10" style="enable-background:new 0 0 48 10;" xml:space="preserve">
<style type="text/css">
	.st0{opacity:0.4;}
	.st1{filter:url(#Adobe_OpacityMaskFilter);}
	.st2{fill-rule:evenodd;clip-rule:evenodd;fill:#FFFFFF;}
	.st3{mask:url(#mask-2_1_);}
	.st4{fill-rule:evenodd;clip-rule:evenodd;fill:#E5E9F1;}
	.st5{fill:#FF8E2D;}
	.st6{fill:none;}
</style>
<title>Oval 8 Copy 12</title>
<desc>Created with Sketch.</desc>
<g id="Oval-8-Copy-12">
	<g id="Rectangle" transform="translate(-6.000000, -49.000000)">
		<g id="Mask" class="st0">
		</g>
		<defs>
			<filter id="Adobe_OpacityMaskFilter" filterUnits="userSpaceOnUse" x="0" y="49" width="60" height="10">
				<feColorMatrix  type="matrix" values="1 0 0 0 0  0 1 0 0 0  0 0 1 0 0  0 0 0 1 0"/>
			</filter>
		</defs>
		<mask maskUnits="userSpaceOnUse" x="0" y="49" width="60" height="10" id="mask-2_1_">
			<g class="st1">
				<circle id="path-1_1_" class="st2" cx="30" cy="30" r="30"/>
			</g>
		</mask>
		<g id="分组" class="st3">
			<g transform="translate(0.000000, 49.000000)">
				<rect id="Rectangle-12" y="0" class="st4" width="60" height="10"/>
				<g id="Group-8" transform="translate(20.000000, 3.000000)">
					<path id="Fill-1" class="st5" d="M1,2.3h1.5c0.2,0,0.4,0.2,0.4,0.4c0,0.2-0.2,0.4-0.4,0.4l-0.2,0l-2.1,0v0.7h2.8
						c0.5,0,1-0.4,1-1V2.5c0-0.5-0.4-1-1-1H1.4C1.1,1.5,1,1.4,1,1.1c0-0.2,0.2-0.4,0.4-0.4l0.2,0l2.1,0V0H1C0.4,0,0,0.4,0,1v0.4
						C0,1.8,0.4,2.3,1,2.3"/>
					<polygon id="Clip-4" class="st6" points="0,3.8 20,3.8 20,0 0,0 					"/>
					<polygon id="Fill-3" class="st5" points="19,3.8 20,3.8 20,0 19,0 					"/>
					<path id="Fill-5" class="st5" d="M6.9,3.1h-1c-0.3,0-0.5-0.2-0.5-0.5V0h-1v2.4l0,0.4c0,0.5,0.4,1,1,1H6h0.9h0.5
						c0.5,0,1-0.4,1-1V2.4V0h-1l0,2.6C7.4,2.9,7.2,3.1,6.9,3.1"/>
					<path id="Fill-6" class="st5" d="M10.5,0.7h1c0.3,0,0.5,0.2,0.5,0.5v2.6h1V1.4l0-0.4c0-0.5-0.4-1-1-1h-0.5h-0.9H10
						C9.5,0,9,0.4,9,1l0,0.4l0,2.4h1V1.2C10,0.9,10.2,0.7,10.5,0.7"/>
					<path id="Fill-7" class="st5" d="M15.5,3.8h1V1.4h-1V3.8z M15,0.7h1.9c0.3,0,0.5,0.2,0.5,0.5v2.6h1V1.4l0-0.4c0-0.5-0.4-1-1-1
						h-0.5H15h-0.5c-0.5,0-1,0.4-1,1v0.4v2.4h1V1.2C14.5,0.9,14.7,0.7,15,0.7z"/>
				</g>
			</g>
		</g>
	</g>
</g>
</svg>
