<?xml version="1.0" standalone="no"?>
<!DOCTYPE svg PUBLIC "-//W3C//DTD SVG 1.1//EN" "http://www.w3.org/Graphics/SVG/1.1/DTD/svg11.dtd" >
<!--
2013-9-30: Created.
-->
<svg>
<metadata>
Created by iconfont
</metadata>
<defs>

<font id="W1" horiz-adv-x="1024" >
  <font-face
    font-family="W1"
    font-weight="500"
    font-stretch="normal"
    units-per-em="1024"
    ascent="896"
    descent="-128"
  />
    <missing-glyph />
    
    <glyph glyph-name="bandwidth" unicode="&#58915;" d="M312.451282 563.331282V113.55897400000003c0-20.217436-16.541538-36.758974-36.758974-36.758974s-36.758974 16.541538-36.758975 36.758974V562.54359v0.262564L131.019487 454.892308c-14.441026-14.441026-37.546667-14.441026-51.987692 0s-14.441026 37.546667 0 51.987692l170.929231 170.929231c14.441026 14.441026 37.546667 14.441026 51.987692 0l170.929231-170.929231c14.441026-14.441026 14.441026-37.546667 0-51.987692s-37.546667-14.441026-51.987693 0L312.451282 563.331282zM785.066667 202.04307700000004V651.815385c0 20.217436-16.541538 36.758974-36.758975 36.758974s-36.758974-16.541538-36.758974-36.758974v-449.24718L603.634872 310.48205099999996c-14.441026 14.441026-37.546667 14.441026-51.987693 0s-14.441026-37.546667 0-51.987692l170.929231-170.929231c14.441026-14.441026 37.546667-14.441026 51.987693 0l170.92923 170.929231c14.441026 14.441026 14.441026 37.546667 0 51.987692s-37.546667 14.441026-51.987692 0L785.066667 202.04307700000004z"  horiz-adv-x="1024" />

    
    <glyph glyph-name="up" unicode="&#58916;" d="M896 256H128l384 512z"  horiz-adv-x="1024" />

    
    <glyph glyph-name="clean" unicode="&#58917;" d="M511.99968-127.99872000000005a510.527043 510.527043 0 0 0-362.047321 149.951719A508.671046 508.671046 0 0 0 40.320564 184.64069400000005 508.607046 508.607046 0 0 0 0.00064 384.00032a510.527043 510.527043 0 0 0 149.951719 362.047321A508.671046 508.671046 0 0 0 312.640054 855.679436 508.607046 508.607046 0 0 0 511.99968 895.99936a510.527043 510.527043 0 0 0 362.047321-149.951719 508.671046 508.671046 0 0 0 109.695794-162.687695C1010.430745 520.192065 1023.99872 453.056191 1023.99872 384.00032a510.527043 510.527043 0 0 0-149.951719-362.047321 508.671046 508.671046 0 0 0-162.687695-109.695794A508.607046 508.607046 0 0 0 511.99968-127.99872000000005z m45.183915 512.12704l158.335703 158.335703a31.99994 31.99994 0 1 1-45.247915 45.311915L511.87168 429.376235 353.535977 587.775938a31.99994 31.99994 0 1 1-45.311915-45.311915l158.399703-158.335703-158.399703-158.399703a31.99994 31.99994 0 1 1 45.311915-45.247915l158.335703 158.335703 158.399703-158.335703a31.99994 31.99994 0 1 1 45.247915 45.247915L557.183595 384.12832z"  horiz-adv-x="1024" />

    
    <glyph glyph-name="eye-open" unicode="&#58918;" d="M1022.976 396.48c0-95.872-210.944-306.88-511.488-306.88C217.408 89.60000000000002 0 294.20799999999997 0 396.48c0 102.336 217.408 306.944 511.488 306.944 300.544 0 511.488-204.608 511.488-306.944zM511.488 645.888c-134.272 0-242.944-108.736-242.944-249.408 0-140.608 108.672-249.344 249.344-249.344 134.272 0 249.344 115.072 249.344 249.344-6.4 140.672-121.472 249.408-255.744 249.408z m0-89.6a158.272 158.272 0 0 1-159.808-159.808 158.272 158.272 0 0 1 159.808-159.808 158.272 158.272 0 0 1 159.872 159.808 158.272 158.272 0 0 1-159.872 159.872z"  horiz-adv-x="1024" />

    
    <glyph glyph-name="browser" unicode="&#58919;" d="M512 896C229.218462 896 0 666.781538 0 384s229.218462-512 512-512 512 229.218462 512 512S794.781538 896 512 896z m0.262564-73.517949c6.564103 0 16.01641-4.726154 28.882051-17.854359 17.591795-18.116923 35.708718-47.786667 51.462564-86.383589 7.876923-19.167179 14.966154-39.909744 21.267693-61.965129-33.083077-2.888205-67.21641-4.46359-101.874872-4.463589-34.658462 0-68.791795 1.575385-101.612308 4.463589 6.301538 22.055385 13.653333 42.797949 21.530257 61.965129 15.753846 38.596923 33.608205 68.004103 51.462564 86.383589 12.603077 13.128205 22.317949 17.854359 28.882051 17.854359z m118.678974-16.278974c71.68-20.217436 136.008205-58.026667 187.733334-108.701539-38.596923-13.390769-82.970256-24.155897-131.019487-32.03282-15.228718 55.401026-34.395897 103.187692-56.713847 140.734359zM375.991795 420.758974c1.837949 57.501538 7.614359 112.64 17.329231 163.314872 38.071795-3.675897 77.718974-5.77641 118.678974-5.77641 40.96 0 80.607179 2.100513 118.678974 5.77641 9.452308-50.412308 15.491282-105.813333 17.329231-163.314872H375.991795z m272.01641-73.517948c-1.837949-57.501538-7.614359-112.64-17.329231-163.314872-38.071795 3.675897-77.718974 5.77641-118.678974 5.77641-40.96 0-80.607179-2.100513-118.678974-5.77641-9.452308 50.412308-15.491282 105.813333-17.329231 163.314872h272.01641zM336.607179 665.468718c-48.049231 7.876923-92.422564 18.642051-131.019487 32.03282 51.725128 50.674872 116.053333 88.484103 187.733334 108.701539-22.580513-37.546667-41.747692-85.333333-56.713847-140.734359z m-16.278974-71.942564c-9.714872-53.300513-16.01641-111.589744-17.854359-172.76718H75.093333c6.564103 80.607179 35.18359 154.912821 79.556923 217.140513 47.261538-18.904615 103.450256-34.133333 165.677949-44.373333z m-17.854359-246.285128c1.837949-61.177436 7.876923-119.466667 17.854359-172.76718-62.227692-10.24-118.41641-25.468718-165.677949-44.373333C110.276923 192.32820500000003 81.657436 266.63384599999995 75.093333 347.24102600000003h227.380513z m34.133333-244.709744c14.966154-55.401026 34.133333-103.187692 56.713847-140.734359-71.68 20.217436-136.008205 58.026667-187.733334 108.701539 38.596923 13.653333 82.970256 24.418462 131.019487 32.03282z m146.248206-139.158974c-17.591795 18.116923-35.708718 47.786667-51.462564 86.383589-7.876923 19.167179-14.966154 39.909744-21.267693 61.965129 33.083077 2.888205 66.953846 4.46359 101.874872 4.463589 34.658462 0 68.791795-1.575385 101.612308-4.463589-6.301538-22.055385-13.390769-42.797949-21.267693-61.965129-15.753846-38.596923-33.608205-68.004103-51.462564-86.383589-12.603077-13.128205-22.055385-17.854359-28.882051-17.854359-6.826667 0-16.278974 4.726154-29.144615 17.854359z m204.537436 139.158974c47.786667-7.614359 91.897436-18.642051 130.756923-32.295385-51.725128-50.412308-115.790769-88.484103-187.47077-108.438974 22.580513 37.546667 41.747692 85.333333 56.713847 140.734359z m16.278974 71.942564c9.714872 53.300513 16.01641 111.589744 17.854359 172.76718h227.380513c-6.564103-80.607179-35.18359-154.912821-79.556923-217.140513-47.261538 18.904615-103.450256 34.133333-165.677949 44.373333z m17.854359 246.285128c-1.837949 61.177436-7.876923 119.466667-17.854359 172.76718 62.227692 10.24 118.41641 25.468718 165.677949 44.373333 44.373333-62.227692 72.730256-136.795897 79.556923-217.140513h-227.380513z"  horiz-adv-x="1024" />

    
    <glyph glyph-name="correct" unicode="&#58920;" d="M760.888889 539.022222L426.666667 214.75555599999996c-9.955556-9.955556-27.022222-9.955556-36.977778 0l-128 122.311111c-9.955556 9.955556-9.955556 27.022222 0 36.977777 9.955556 9.955556 27.022222 9.955556 36.977778 0l109.511111-103.822222 315.733333 305.777778c9.955556 9.955556 27.022222 9.955556 36.977778 0 9.955556-9.955556 9.955556-27.022222 0-36.977778zM512-128C228.977778-128 0 100.97777799999994 0 384S228.977778 896 512 896s512-228.977778 512-512-228.977778-512-512-512z m0 995.555556C246.044444 867.555556 28.444444 649.955556 28.444444 384s217.6-483.555556 483.555556-483.555556 483.555556 217.6 483.555556 483.555556S777.955556 867.555556 512 867.555556z"  horiz-adv-x="1024" />

    
    <glyph glyph-name="down" unicode="&#58921;" d="M128 512h768L512 0z"  horiz-adv-x="1024" />

    
    <glyph glyph-name="lock" unicode="&#58922;" d="M110.276923 415.507692v-469.989743h803.446154V415.507692H110.276923z m-10.502564 73.517949h824.451282c34.921026 0 63.015385-28.094359 63.015385-63.015385v-490.994871c0-34.921026-28.094359-63.015385-63.015385-63.015385H99.774359c-34.921026 0-63.015385 28.094359-63.015385 63.015385V426.010256c0 34.921026 28.094359 63.015385 63.015385 63.015385zM519.876923 278.97435900000005c20.217436 0 36.758974-16.541538 36.758974-36.758974v-110.276923c0-20.217436-16.541538-36.758974-36.758974-36.758975s-36.758974 16.541538-36.758974 36.758975v110.276923c0 20.217436 16.541538 36.758974 36.758974 36.758974zM727.302564 603.2410259999999c0 121.042051-98.198974 219.241026-219.241026 219.241025S288.820513 724.283077 288.820513 603.2410259999999V489.025641l438.482051-0.525128v114.740513z m73.517949 0v-152.024616l-585.517949 3.413334v148.611282C215.302564 764.980513 346.322051 896 508.061538 896S800.820513 764.980513 800.820513 603.2410259999999z"  horiz-adv-x="1024" />

    
    <glyph glyph-name="mistake" unicode="&#58923;" d="M512-128C228.977778-128 0 100.97777799999994 0 384S228.977778 896 512 896s512-228.977778 512-512-228.977778-512-512-512z m0 995.555556C246.044444 867.555556 28.444444 649.955556 28.444444 384s217.6-483.555556 483.555556-483.555556 483.555556 217.6 483.555556 483.555556S777.955556 867.555556 512 867.555556zM512 640c15.644444 0 28.444444-12.8 28.444444-28.444444v-341.333334c0-15.644444-12.8-28.444444-28.444444-28.444444s-28.444444 12.8-28.444444 28.444444V611.555556C483.555556 627.2 496.355556 640 512 640zM512 156.44444399999998m-28.444444 0a28.444444 28.444444 0 1 1 56.888888 0 28.444444 28.444444 0 1 1-56.888888 0Z"  horiz-adv-x="1024" />

    
    <glyph glyph-name="pulldown" unicode="&#58925;" d="M512 224l384 384c12.8 12.8 32 12.8 44.8 0 12.8-12.8 12.8-32 0-44.8l-409.6-409.6c-12.8-12.8-32-12.8-44.8 0L83.2 563.2c-12.8 12.8-12.8 32 0 44.8 12.8 12.8 32 12.8 44.8 0l384-384z"  horiz-adv-x="1024" />

    
    <glyph glyph-name="logo" unicode="&#58926;" d="M97.28 341.33333300000004h151.893333c23.893333 0 42.666667-18.773333 42.666667-42.666666s-18.773333-42.666667-42.666667-42.666667H10.24v-73.386667h281.6c54.613333 0 97.28 44.373333 97.28 97.28V315.733333c0 54.613333-44.373333 97.28-97.28 97.28H139.946667c-23.893333 0-42.666667 18.773333-42.666667 42.666667s18.773333 42.666667 42.666667 42.666667h238.933333V571.733333H97.28C44.373333 571.733333 0 527.36 0 474.453333v-35.84c0-54.613333 44.373333-97.28 97.28-97.28M1947.306667 182.613333h98.986666V571.733333h-98.986666zM706.56 256h-97.28c-27.306667 0-49.493333 22.186667-49.493333 49.493333V571.733333h-97.28v-291.84c0-52.906667 44.373333-97.28 97.28-97.28h192.853333c54.613333 0 97.28 44.373333 97.28 97.28V571.733333h-97.28v-267.946666c1.706667-27.306667-18.773333-47.786667-46.08-47.786667M1071.786667 498.346667h97.28c27.306667 0 49.493333-22.186667 49.493333-49.493334v-267.946666H1314.133333V474.453333C1314.133333 527.36 1271.466667 571.733333 1216.853333 571.733333H1024c-54.613333 0-97.28-44.373333-97.28-97.28v-291.84H1024V450.56c-1.706667 25.6 20.48 47.786667 47.786667 47.786667M1582.08 182.613333h97.28V424.96h-97.28v-242.346667zM1534.293333 498.346667h194.56c27.306667 0 49.493333-22.186667 49.493334-49.493334v-267.946666h97.28V474.453333c0 52.906667-44.373333 97.28-97.28 97.28H1484.8c-54.613333 0-97.28-44.373333-97.28-97.28v-291.84H1484.8V450.56c0 25.6 22.186667 47.786667 49.493333 47.786667z"  horiz-adv-x="2048" />

    
    <glyph glyph-name="pullup" unicode="&#58927;" d="M512 544l384-384c12.8-12.8 32-12.8 44.8 0 12.8 12.8 12.8 32 0 44.8L537.6 608c-12.8 12.8-32 12.8-44.8 0l-409.6-409.6c-12.8-12.8-12.8-32 0-44.8 12.8-12.8 32-12.8 44.8 0l384 390.4z"  horiz-adv-x="1024" />

    
    <glyph glyph-name="refresh" unicode="&#58928;" d="M962.56 634.88c-20.48 5.12-35.84 0-40.96-20.48l-25.6-66.56c-30.72 66.56-71.68 122.88-133.12 163.84C583.68 844.8 322.56 808.96 184.32 629.76 117.76 542.72 92.16 435.2 107.52 327.67999999999995c15.36-107.52 71.68-204.8 163.84-271.36 76.8-56.32 163.84-81.92 245.76-81.92 128 0 250.88 56.32 332.8 163.84 35.84 46.08 61.44 102.4 71.68 158.72 5.12 15.36-5.12 35.84-25.6 35.84-15.36 5.12-35.84-5.12-35.84-25.6-10.24-46.08-30.72-92.16-61.44-133.12-117.76-153.6-337.92-184.32-491.52-71.68-76.8 56.32-122.88 138.24-138.24 230.4-15.36 92.16 10.24 184.32 66.56 256 117.76 153.6 337.92 184.32 491.52 71.68 56.32-40.96 97.28-97.28 122.88-163.84L742.4 537.6c-15.36 5.12-35.84 0-40.96-15.36-5.12-15.36 0-35.84 15.36-40.96l158.72-61.44H890.88c15.36 0 25.6 10.24 30.72 20.48l56.32 158.72c5.12 10.24 0 30.72-15.36 35.84z"  horiz-adv-x="1024" />

    
    <glyph glyph-name="wifi" unicode="&#58929;" d="M994.330256 507.667692c16.804103-19.954872 14.441026-49.624615-5.251282-66.691282s-49.624615-14.441026-66.691282 5.251282C820.512821 565.956923 671.901538 636.0615379999999 511.737436 636.0615379999999 351.835897 636.0615379999999 203.487179 566.2194870000001 101.612308 446.752821c-17.066667-19.954872-46.73641-22.317949-66.691282-5.251283s-22.317949 46.73641-5.251282 66.691283C149.398974 648.402051 324.004103 730.584615 511.737436 730.584615c188.258462 0 362.86359-82.445128 482.59282-222.916923zM812.898462 300.50461499999994c15.228718-21.267692 10.502564-50.674872-10.765129-65.903589-21.267692-15.228718-50.674872-10.502564-65.903589 10.765128-51.725128 71.68-134.432821 115.003077-224.754872 115.003077-89.796923 0-172.242051-42.797949-223.96718-114.215385-15.228718-21.005128-44.898462-25.731282-65.903589-10.502564-21.005128 15.228718-25.731282 44.898462-10.502565 65.90359C280.681026 397.390769 391.220513 454.892308 511.474872 454.892308c121.042051 0 232.106667-58.289231 301.42359-154.387693zM512 100.43076900000005m-73.517949 0a73.517949 73.517949 0 1 1 147.035898 0 73.517949 73.517949 0 1 1-147.035898 0Z"  horiz-adv-x="1024" />

    
    <glyph glyph-name="dashboard" unicode="&#58932;" d="M510.72-126.72c-206.72 0-392.96 124.16-471.68 314.88-79.36 191.36-35.2 410.88 110.72 556.8C295.68 890.88 515.2 935.04 705.92 855.68c190.72-78.72 314.88-264.96 314.88-471.68 0.64-282.24-228.48-510.72-510.08-510.72z m0 957.44C263.68 830.72 64 631.04 64 384c0-247.04 200.32-446.72 446.72-446.72 247.04 0 446.72 200.32 446.72 446.72 0 118.4-47.36 232.32-130.56 316.16C742.4 784 629.12 830.72 510.72 830.72zM806.4 352c-17.28 0-32 14.08-32 32 0 41.6-9.6 82.56-27.52 119.68-7.04 10.24-7.04 23.68-1.28 34.56 6.4 10.88 17.92 16.64 30.72 15.36 12.16-1.28 23.04-9.6 26.88-21.12C826.24 486.4 838.4 435.84 838.4 384c0-17.92-14.08-32-32-32z m-595.2 0c-17.28 0-32 14.08-32 32 0 109.44 53.12 211.84 142.72 273.92 89.6 62.08 202.88 76.16 304.64 37.12 10.88-3.84 18.56-13.44 19.84-24.96 1.92-11.52-2.56-23.04-11.52-30.08s-21.12-8.96-31.36-5.12c-81.92 31.36-173.44 19.84-245.76-30.08C286.08 554.88 243.2 472.32 243.2 384c0-17.92-14.72-32-32-32zM512 256c-51.84 0-98.56 31.36-118.4 78.72-19.84 48-8.96 103.04 27.52 139.52 36.48 36.48 91.52 47.36 139.52 27.52 48-19.2 79.36-65.92 79.36-117.76 0-70.4-57.6-128-128-128z m0 192c-35.2 0-64-28.8-64-64s28.8-64 64-64 64 28.8 64 64c0 17.28-7.04 33.28-18.56 45.44-12.16 11.52-28.16 18.56-45.44 18.56zM576 422.4c-12.8 0-24.32 7.68-28.8 19.2-5.12 11.52-2.56 25.6 5.76 34.56L684.8 620.8c7.04 10.24 19.2 14.72 31.36 12.16 12.16-2.56 21.76-11.52 24.96-23.04 3.2-12.16-0.64-24.96-9.6-32.64L599.04 433.28c-5.76-7.04-14.72-10.88-23.04-10.88z"  horiz-adv-x="1024" />

    
    <glyph glyph-name="help" unicode="&#58935;" d="M512 896C230.4 896 0 665.6 0 384s230.4-512 512-512 512 230.4 512 512-230.4 512-512 512z m313.6-825.6c-38.4-38.4-89.6-70.4-140.8-96-51.2-25.6-108.8-32-172.8-32s-115.2 12.8-172.8 32c-51.2 19.2-102.4 51.2-140.8 96-38.4 38.4-70.4 89.6-96 140.8-19.2 57.6-32 115.2-32 172.8s12.8 115.2 32 172.8c25.6 51.2 57.6 96 96 140.8 44.8 38.4 89.6 70.4 140.8 89.6 57.6 25.6 115.2 38.4 172.8 38.4s115.2-12.8 172.8-32c51.2-19.2 102.4-51.2 140.8-96 38.4-38.4 70.4-89.6 96-140.8 25.6-51.2 32-108.8 32-172.8s-12.8-115.2-32-172.8c-25.6-51.2-57.6-96-96-140.8z m-320 160c-25.6 0-38.4 19.2-38.4 38.4 6.4 51.2 44.8 96 83.2 134.4 64 64 64 83.2 64 108.8 0 25.6-6.4 51.2-25.6 70.4-19.2 19.2-44.8 32-76.8 32-57.6 0-108.8-51.2-108.8-108.8 0-19.2-19.2-38.4-38.4-38.4s-38.4 19.2-38.4 38.4c0 44.8 19.2 96 51.2 128s76.8 51.2 128 51.2 102.4-19.2 134.4-57.6c32-32 51.2-76.8 44.8-121.6 0-44.8-19.2-83.2-89.6-153.6-38.4-38.4-57.6-64-64-89.6 6.4-19.2-6.4-32-25.6-32zM460.8 128c0 12.8 6.4 32 19.2 38.4s32 6.4 44.8 0c12.8-6.4 19.2-19.2 19.2-38.4 0-25.6-19.2-44.8-44.8-44.8s-38.4 19.2-38.4 44.8z"  horiz-adv-x="1024" />

    
    <glyph glyph-name="lanset" unicode="&#58937;" d="M950.857143 201.142857h-91.428572v182.857143c0 21.942857-14.628571 36.571429-36.571428 36.571429H548.571429V566.857143h182.857142c40.228571 0 73.142857 32.914286 73.142858 73.142857V786.285714c0 40.228571-32.914286 73.142857-73.142858 73.142857H292.571429c-40.228571 0-73.142857-32.914286-73.142858-73.142857v-146.285714c0-40.228571 32.914286-73.142857 73.142858-73.142857h182.857142v-146.285714H201.142857c-21.942857 0-36.571429-14.628571-36.571428-36.571429v-182.857143H73.142857c-40.228571 0-73.142857-32.914286-73.142857-73.142857v-146.285714c0-40.228571 32.914286-73.142857 73.142857-73.142857h256c40.228571 0 73.142857 32.914286 73.142857 73.142857v146.285714c0 40.228571-32.914286 73.142857-73.142857 73.142857H237.714286v146.285714h548.571428v-146.285714H694.857143c-40.228571 0-73.142857-32.914286-73.142857-73.142857v-146.285714c0-40.228571 32.914286-73.142857 73.142857-73.142857h256c40.228571 0 73.142857 32.914286 73.142857 73.142857v146.285714c0 40.228571-32.914286 73.142857-73.142857 73.142857zM292.571429 786.285714h438.857142v-146.285714H292.571429V786.285714z m36.571428-804.571428H73.142857v146.285714h256v-146.285714z m621.714286 0h-256v146.285714h256v-146.285714z"  horiz-adv-x="1024" />

    
    <glyph glyph-name="wifiset" unicode="&#58939;" d="M512 658.285714c164.571429 0 318.171429-65.828571 435.2-179.2 18.285714-18.285714 47.542857-18.285714 65.828571 0s18.285714 47.542857 0 65.828572C877.714286 672.914286 702.171429 749.714286 512 749.714286S146.285714 672.914286 14.628571 541.257143c-18.285714-18.285714-18.285714-47.542857 0-65.828572s47.542857-18.285714 65.828572 0c113.371429 117.028571 266.971429 182.857143 431.542857 182.857143z m0-197.485714c113.371429 0 215.771429-43.885714 296.228571-120.685714 18.285714-18.285714 47.542857-18.285714 65.828572 0s18.285714 47.542857 0 65.828571c-95.085714 95.085714-223.085714 149.942857-358.4 149.942857-135.314286 0-263.314286-54.857143-358.4-149.942857-18.285714-18.285714-18.285714-47.542857 0-65.828571s47.542857-18.285714 65.828571 0c73.142857 76.8 175.542857 120.685714 288.914286 120.685714z m0-201.142857c58.514286 0 113.371429-21.942857 153.6-62.171429 18.285714-18.285714 47.542857-18.285714 65.828571 0s18.285714 47.542857 0 65.828572c-58.514286 58.514286-135.314286 91.428571-219.428571 91.428571s-160.914286-32.914286-219.428571-91.428571c-18.285714-18.285714-18.285714-47.542857 0-65.828572s47.542857-18.285714 65.828571 0c40.228571 40.228571 95.085714 62.171429 153.6 62.171429z m76.8-164.571429c0-43.885714-36.571429-76.8-76.8-76.8-43.885714 0-76.8 36.571429-76.8 76.8 0 43.885714 36.571429 76.8 76.8 76.8 43.885714 3.657143 76.8-32.914286 76.8-76.8z"  horiz-adv-x="1026" />

    
    <glyph glyph-name="hint" unicode="&#58941;" d="M512 822.857143c58.514286 0 117.028571-14.628571 168.228571-36.571429 51.2-21.942857 102.4-51.2 138.971429-95.085714 43.885714-43.885714 73.142857-87.771429 95.085714-138.971429 29.257143-51.2 36.571429-109.714286 36.571429-168.228571s-14.628571-117.028571-36.571429-168.228571c-21.942857-51.2-51.2-102.4-95.085714-138.971429-43.885714-43.885714-87.771429-73.142857-138.971429-95.085714-51.2-29.257143-109.714286-36.571429-168.228571-36.571429s-117.028571 14.628571-168.228571 36.571429c-51.2 21.942857-102.4 51.2-138.971429 95.085714-43.885714 43.885714-73.142857 87.771429-95.085714 138.971429C80.457143 266.971429 73.142857 325.485714 73.142857 384s14.628571 117.028571 36.571429 168.228571c21.942857 51.2 51.2 102.4 95.085714 138.971429 43.885714 43.885714 87.771429 73.142857 138.971429 95.085714C394.971429 815.542857 453.485714 822.857143 512 822.857143z m0 73.142857C226.742857 896 0 669.257143 0 384s226.742857-512 512-512 512 226.742857 512 512-226.742857 512-512 512z m0-643.657143c-21.942857 0-36.571429 14.628571-36.571429 36.571429v365.714285c0 21.942857 14.628571 36.571429 36.571429 36.571429s36.571429-14.628571 36.571429-36.571429v-365.714285c0-14.628571-14.628571-36.571429-36.571429-36.571429z m-43.885714-102.4c0 21.942857 21.942857 43.885714 43.885714 43.885714s43.885714-21.942857 43.885714-43.885714-21.942857-51.2-43.885714-51.2-43.885714 21.942857-43.885714 51.2z"  horiz-adv-x="1024" />

    
    <glyph glyph-name="loading" unicode="&#58942;" d="M1024 384c0-22.528-18.432-40.96-40.96-40.96s-40.96 18.432-40.96 40.96C942.08 621.568 749.568 814.08 512 814.08c-22.528 0-40.96 18.432-40.96 40.96s18.432 40.96 40.96 40.96c282.624 0 512-229.376 512-512z"  horiz-adv-x="1024" />

    
    <glyph glyph-name="networkspeeddistribution" unicode="&#58944;" d="M431.542857 855.771429c21.942857 3.657143 40.228571-10.971429 43.885714-32.914286 3.657143-18.285714-10.971429-40.228571-29.257142-43.885714C252.342857 749.714286 109.714286 581.4857139999999 109.714286 384c0-219.428571 179.2-402.285714 402.285714-402.285714 197.485714 0 365.714286 142.628571 394.971429 336.457143 3.657143 18.285714 21.942857 32.914286 43.885714 29.257142 18.285714-3.657143 32.914286-21.942857 29.257143-43.885714C943.542857 80.45714299999997 746.057143-91.42857100000003 512-91.42857100000003 248.685714-91.42857100000003 36.571429 124.34285699999998 36.571429 384 36.571429 618.057143 204.8 815.542857 431.542857 855.771429zM987.428571 424.228571c0-21.942857-14.628571-36.571429-32.914285-40.228571-21.942857 0-36.571429 14.628571-40.228572 32.914286-7.314286 76.8-32.914286 146.285714-76.8 204.8-14.628571 18.285714-10.971429 43.885714 3.657143 54.857143 14.628571 10.971429 40.228571 7.314286 51.2-7.314286 54.857143-69.485714 87.771429-153.6 95.085714-245.028572z m-175.542857 329.142858c14.628571-10.971429 18.285714-36.571429 3.657143-51.2-10.971429-14.628571-36.571429-18.285714-51.2-3.657143-62.171429 51.2-138.971429 80.457143-219.428571 87.771428-21.942857 0-36.571429 18.285714-32.914286 40.228572s18.285714 36.571429 40.228571 32.914285c95.085714-7.314286 186.514286-43.885714 259.657143-106.057142zM544.914286 336.457143s0-3.657143 0 0c-14.628571-14.628571-29.257143-25.6-47.542857-25.6-32.914286 0-58.514286 25.6-58.514286 58.514286 0 18.285714 7.314286 32.914286 18.285714 43.885714l3.657143 3.657143 237.714286 182.857143c7.314286 7.314286 18.285714 7.314286 25.6 0 7.314286-7.314286 10.971429-18.285714 3.657143-29.257143l-182.857143-234.057143z"  horiz-adv-x="1024" />

    
    <glyph glyph-name="auth" unicode="&#58947;" d="M914.285714 493.714286c0 223.085714-179.2 402.285714-402.285714 402.285714S109.714286 716.8 109.714286 493.714286c0-135.314286 65.828571-256 171.885714-329.142857l-51.2-248.685715c0-7.314286 0-14.628571 3.657143-18.285714 7.314286-18.285714 29.257143-29.257143 47.542857-21.942857l219.428571 84.114286c7.314286 3.657143 18.285714 3.657143 25.6 0l219.428572-84.114286c7.314286-3.657143 10.971429-3.657143 18.285714-3.657143 18.285714 3.657143 32.914286 21.942857 29.257143 43.885714L742.4 164.571429c106.057143 73.142857 171.885714 193.828571 171.885714 329.142857zM182.857143 493.714286c0 182.857143 146.285714 329.142857 329.142857 329.142857s329.142857-146.285714 329.142857-329.142857-146.285714-329.142857-329.142857-329.142857-329.142857 146.285714-329.142857 329.142857z m369.371428-464.457143c-25.6 10.971429-54.857143 10.971429-76.8 0l-157.257142-62.171429 29.257142 160.914286c51.2-21.942857 106.057143-36.571429 164.571429-36.571429s113.371429 14.628571 164.571429 36.571429l32.914285-160.914286-157.257143 62.171429zM687.542857 541.257143c14.628571 14.628571 14.628571 36.571429 0 51.2-14.628571 14.628571-36.571429 14.628571-51.2 0l-128-128-76.8 76.8c-14.628571 14.628571-36.571429 14.628571-51.2 0-14.628571-14.628571-14.628571-36.571429 0-51.2l102.4-102.4c14.628571-14.628571 36.571429-14.628571 51.2 0l153.6 153.6z"  horiz-adv-x="1024" />

    
    <glyph glyph-name="defeated" unicode="&#58950;" d="M512 832c248 0 448-200 448-448S760-64 512-64 64 136 64 384 264 832 512 832z m0 64C228.8 896 0 667.2 0 384s228.8-512 512-512 512 228.8 512 512S795.2 896 512 896zM512 428.8l134.4 134.4c12.8 12.8 33.6 14.4 46.4 1.6 12.8-12.8 11.2-33.6-1.6-46.4L556.8 384l134.4-134.4c12.8-12.8 14.4-33.6 1.6-46.4s-33.6-11.2-46.4 1.6L512 339.2l-134.4-134.4c-12.8-12.8-33.6-14.4-46.4-1.6-12.8 12.8-11.2 33.6 1.6 46.4l134.4 134.4-134.4 134.4c-12.8 12.8-14.4 33.6-1.6 46.4 12.8 12.8 33.6 11.2 46.4-1.6l134.4-134.4z"  horiz-adv-x="1024" />

    
    <glyph glyph-name="delete" unicode="&#58951;" d="M911.36 665.6V25.6c0-76.8-61.44-143.36-143.36-143.36H256c-76.8 0-143.36 61.44-143.36 143.36V665.6h-20.48c-25.6 0-40.96 15.36-40.96 35.84s15.36 40.96 40.96 40.96h230.4v25.6c0 61.44 51.2 112.64 112.64 112.64h153.6c61.44 0 112.64-51.2 112.64-112.64V742.4h230.4c25.6 0 40.96-15.36 40.96-40.96s-15.36-40.96-40.96-40.96h-20.48z m-716.8 0V25.6c0-35.84 30.72-61.44 61.44-61.44h512c35.84 0 61.44 30.72 61.44 61.44V665.6H194.56zM624.64 742.4v25.6c0 20.48-15.36 40.96-40.96 40.96h-153.6c-20.48 0-40.96-15.36-40.96-40.96V742.4h235.52z m-307.2-204.8c25.6 0 40.96-15.36 40.96-40.96v-384c0-20.48-15.36-35.84-40.96-35.84s-40.96 15.36-40.96 40.96V496.64c5.12 25.6 20.48 40.96 40.96 40.96zM512 537.6c20.48 0 40.96-15.36 40.96-40.96v-384c0-20.48-15.36-40.96-40.96-40.96s-40.96 15.36-40.96 40.96V496.64c0 25.6 20.48 40.96 40.96 40.96z m194.56 0c20.48 0 40.96-15.36 40.96-40.96v-384c0-20.48-15.36-40.96-40.96-40.96s-40.96 20.48-40.96 46.08V496.64c0 25.6 15.36 40.96 40.96 40.96z"  horiz-adv-x="1024" />

    
    <glyph glyph-name="downloadtraffic" unicode="&#58952;" d="M512-128l512 512H0zM426.666667 896h170.666666v-512H426.666667z"  horiz-adv-x="1024" />

    
    <glyph glyph-name="kbyte" unicode="&#58954;" d="M512 896l512-512H0zM426.666667 384h170.666666v-512H426.666667z"  horiz-adv-x="1024" />

    
    <glyph glyph-name="select" unicode="&#58956;" d="M1011.2 640L345.6-8.533333c-17.066667-17.066667-51.2-17.066667-76.8 0l-256 247.466666c-17.066667 17.066667-17.066667 51.2 0 76.8 17.066667 17.066667 51.2 17.066667 76.8 0l221.866667-204.8 631.466666 597.333334c17.066667 17.066667 51.2 17.066667 76.8 0 17.066667-17.066667 17.066667-51.2-8.533333-68.266667z"  horiz-adv-x="1031" />

    
    <glyph glyph-name="shape" unicode="&#58957;" d="M491.52 793.6c0 10.24 10.24 10.24 20.48 10.24s20.48 0 20.48-10.24l143.36-143.36c10.24-10.24 10.24-30.72 0-51.2h-20.48c-10.24 0-20.48 0-20.48 10.24L542.72 691.2v-542.72c0-20.48-10.24-30.72-30.72-30.72-20.48 0-30.72 10.24-30.72 30.72V691.2l-92.16-81.92c-10.24-20.48-30.72-20.48-40.96 0-10.24 10.24-10.24 30.72 0 51.2L491.52 793.6z m399.36-532.48c-20.48 0-30.72-10.24-30.72-30.72v-184.32c0-10.24-10.24-20.48-20.48-20.48H184.32c-10.24 0-20.48 10.24-20.48 20.48V230.4c0 20.48-10.24 30.72-30.72 30.72s-30.72-10.24-30.72-30.72v-215.04c0-30.72 20.48-61.44 61.44-61.44h706.56c30.72 10.24 51.2 30.72 51.2 61.44V230.4c0 20.48-10.24 30.72-30.72 30.72z"  horiz-adv-x="1024" />

    
    <glyph glyph-name="securitycenter" unicode="&#58958;" d="M939.885714 702.171429c0-7.314286 29.257143-146.285714-3.657143-310.857143-21.942857-98.742857-58.514286-186.514286-117.028571-263.314286-69.485714-95.085714-168.228571-168.228571-288.914286-215.771429-3.657143 0-10.971429-3.657143-18.285714-3.657142 0 0-10.971429 3.657143-14.628571 3.657142-120.685714 51.2-219.428571 124.342857-288.914286 215.771429-54.857143 73.142857-95.085714 164.571429-117.028572 263.314286-36.571429 168.228571-7.314286 307.2-3.657142 310.857143v3.657142c3.657143 14.628571 21.942857 25.6 40.228571 18.285715 76.8-21.942857 157.257143-10.971429 245.028571 40.228571 65.828571 36.571429 109.714286 84.114286 113.371429 84.114286 3.657143 7.314286 14.628571 10.971429 25.6 10.971428 10.971429 0 21.942857-3.657143 29.257143-10.971428 0 0 43.885714-47.542857 113.371428-84.114286 87.771429-47.542857 168.228571-62.171429 245.028572-40.228571h3.657143c14.628571 7.314286 32.914286-3.657143 36.571428-21.942857z m-782.628571-18.285715z m460.8 18.285715c-40.228571 21.942857-76.8 51.2-106.057143 73.142857-25.6-21.942857-65.828571-51.2-106.057143-73.142857-87.771429-47.542857-175.542857-69.485714-256-54.857143 0-14.628571 0-29.257143-3.657143-43.885715-3.657143-62.171429 0-131.657143 14.628572-197.485714 18.285714-87.771429 54.857143-168.228571 102.4-234.057143 58.514286-80.457143 142.628571-142.628571 248.685714-186.514285 102.4 43.885714 186.514286 109.714286 248.685714 186.514285 51.2 65.828571 84.114286 142.628571 102.4 234.057143 14.628571 65.828571 18.285714 131.657143 14.628572 197.485714 0 14.628571-3.657143 29.257143-3.657143 43.885715-84.114286-14.628571-171.885714 3.657143-256 54.857143zM471.771429 340.114286l179.2 179.2c14.628571 14.628571 36.571429 14.628571 51.2 0 14.628571-14.628571 14.628571-36.571429 0-51.2l-208.457143-208.457143c-14.628571-14.628571-36.571429-14.628571-51.2 0l-128 128c-14.628571 14.628571-14.628571 36.571429 0 51.2 14.628571 14.628571 36.571429 14.628571 51.2 0l106.057143-98.742857z"  horiz-adv-x="1024" />

    
    <glyph glyph-name="systemsetup" unicode="&#58960;" d="M182.857143 859.428571C102.4 859.428571 36.571429 793.6 36.571429 713.142857c0-69.485714 47.542857-124.342857 109.714285-142.628571V-54.857143c0-21.942857 14.628571-36.571429 36.571429-36.571428s36.571429 14.628571 36.571428 36.571428V570.514286c62.171429 14.628571 109.714286 73.142857 109.714286 142.628571 0 80.457143-65.828571 146.285714-146.285714 146.285714z m0-219.428571c-40.228571 0-73.142857 32.914286-73.142857 73.142857s32.914286 73.142857 73.142857 73.142857 73.142857-32.914286 73.142857-73.142857-32.914286-73.142857-73.142857-73.142857zM548.571429 526.628571V822.857143c0 21.942857-14.628571 36.571429-36.571429 36.571428s-36.571429-14.628571-36.571429-36.571428v-296.228572c-62.171429-14.628571-109.714286-73.142857-109.714285-142.628571s47.542857-124.342857 109.714285-142.628571V-54.857143c0-21.942857 14.628571-36.571429 36.571429-36.571428s36.571429 14.628571 36.571429 36.571428v292.571429 3.657143c62.171429 14.628571 109.714286 73.142857 109.714285 142.628571s-47.542857 124.342857-109.714285 142.628571zM512 310.857143c-40.228571 0-73.142857 32.914286-73.142857 73.142857s32.914286 73.142857 73.142857 73.142857 73.142857-32.914286 73.142857-73.142857-32.914286-73.142857-73.142857-73.142857zM877.714286 197.485714V822.857143c0 21.942857-14.628571 36.571429-36.571429 36.571428s-36.571429-14.628571-36.571428-36.571428v-625.371429c-62.171429-14.628571-109.714286-73.142857-109.714286-142.628571 0-80.457143 65.828571-146.285714 146.285714-146.285714s146.285714 65.828571 146.285714 146.285714c0 69.485714-47.542857 124.342857-109.714285 142.628571zM841.142857-18.285714c-40.228571 0-73.142857 32.914286-73.142857 73.142857s32.914286 73.142857 73.142857 73.142857 73.142857-32.914286 73.142857-73.142857-32.914286-73.142857-73.142857-73.142857z"  horiz-adv-x="1024" />

    
    <glyph glyph-name="succeed" unicode="&#58961;" d="M512 832c248 0 448-200 448-448S760-64 512-64 64 136 64 384 264 832 512 832z m0 64C228.8 896 0 667.2 0 384s228.8-512 512-512 512 228.8 512 512S795.2 896 512 896zM420.8 267.2l294.4 294.4c12.8 12.8 32 12.8 44.8 0 12.8-12.8 12.8-32 0-44.8L443.2 200c-12.8-12.8-32-12.8-44.8 0L262.4 336c-12.8 12.8-12.8 32 0 44.8 12.8 12.8 32 12.8 44.8 0l113.6-113.6z"  horiz-adv-x="1024" />

    
    <glyph glyph-name="set" unicode="&#58962;" d="M849.066667 384l-170.666667 298.666667H345.6l-170.666667-298.666667 170.666667-298.666667H682.666667l166.4 298.666667z m76.8-42.666667l-170.666667-298.666666c-17.066667-25.6-46.933333-42.666667-76.8-42.666667H345.6c-29.866667 0-59.733333 17.066667-76.8 42.666667l-170.666667 298.666666c-12.8 25.6-12.8 55.466667 0 81.066667l170.666667 298.666667c17.066667 25.6 46.933333 42.666667 76.8 42.666666H682.666667c29.866667 0 59.733333-17.066667 76.8-42.666666l170.666666-298.666667c12.8-21.333333 12.8-55.466667-4.266666-81.066667zM512 298.66666699999996c46.933333 0 85.333333 38.4 85.333333 85.333333s-38.4 85.333333-85.333333 85.333333-85.333333-38.4-85.333333-85.333333 38.4-85.333333 85.333333-85.333333z m0-85.333334c-93.866667 0-170.666667 76.8-170.666667 170.666667s76.8 170.666667 170.666667 170.666667 170.666667-76.8 170.666667-170.666667-76.8-170.666667-170.666667-170.666667z"  horiz-adv-x="1024" />

    
    <glyph glyph-name="netstat" unicode="&#58964;" d="M810.666667 337.06666700000005V725.333333c0 25.6-17.066667 42.666667-42.666667 42.666667s-42.666667-17.066667-42.666667-42.666667v-384h-170.666666V725.333333c0 25.6-17.066667 42.666667-42.666667 42.666667s-42.666667-17.066667-42.666667-42.666667v-384H298.666667V725.333333c0 25.6-17.066667 42.666667-42.666667 42.666667s-42.666667-17.066667-42.666667-42.666667v-388.266666c-72.533333-8.533333-128-72.533333-128-145.066667C85.333333 110.93333299999995 153.6 42.66666699999996 234.666667 42.66666699999996h554.666666c81.066667 0 149.333333 68.266667 149.333334 149.333333 0 76.8-55.466667 136.533333-128 145.066667z m-21.333334-209.066667h-554.666666c-34.133333 0-64 29.866667-64 64S200.533333 256 234.666667 256h554.666666c34.133333 0 64-29.866667 64-64s-29.866667-64-64-64zM576 213.33333300000004h-85.333333c-12.8 0-21.333333-8.533333-21.333334-21.333333s8.533333-21.333333 21.333334-21.333333h85.333333c12.8 0 21.333333 8.533333 21.333333 21.333333s-8.533333 21.333333-21.333333 21.333333zM789.333333 213.33333300000004h-85.333333c-12.8 0-21.333333-8.533333-21.333333-21.333333s8.533333-21.333333 21.333333-21.333333h85.333333c12.8 0 21.333333 8.533333 21.333334 21.333333s-8.533333 21.333333-21.333334 21.333333z"  horiz-adv-x="1024" />

    
    <glyph glyph-name="eye-close" unicode="&#58953;" d="M787.2 153.60000000000002c147.2 70.4 236.8 179.2 236.8 243.2C1024 499.2 812.8 704 512 704c-83.2 0-160-19.2-230.4-44.8L102.4 838.4C89.6 851.2 70.4 851.2 57.6 838.4c-12.8-12.8-12.8-32 0-44.8l160-160C83.2 563.2 0 460.8 0 396.8c0-102.4 217.6-307.2 512-307.2 76.8 0 147.2 12.8 211.2 38.4l192-192c12.8-12.8 32-12.8 44.8 0s12.8 32 0 44.8l-172.8 172.8zM512 646.4c134.4 0 249.6-108.8 256-249.6 0-57.6-25.6-115.2-64-160l-64 64c19.2 25.6 32 57.6 32 96 0 89.6-70.4 160-160 160-38.4 0-70.4-12.8-96-32l-64 64c44.8 32 102.4 57.6 160 57.6z m6.4-499.2c-140.8 0-249.6 108.8-249.6 249.6 0 51.2 19.2 102.4 44.8 140.8l64-64c-19.2-19.2-25.6-44.8-25.6-76.8 0-89.6 70.4-160 160-160 32 0 57.6 6.4 83.2 19.2l64-64c-38.4-25.6-89.6-44.8-140.8-44.8z"  horiz-adv-x="1024" />

    
    <glyph glyph-name="verification" unicode="&#58965;" d="M512 2.327273c-9.309091 0-20.945455 2.327273-27.927273 9.309091L395.636364 81.454545H162.909091c-76.8 0-139.636364 62.836364-139.636364 139.636364V593.454545c0 76.8 62.836364 139.636364 139.636364 139.636364h698.181818c76.8 0 139.636364-62.836364 139.636364-139.636364v-372.363636c0-76.8-62.836364-139.636364-139.636364-139.636364H628.363636l-88.436363-69.818181c-6.981818-6.981818-18.618182-9.309091-27.927273-9.309091zM162.909091 686.545455c-51.2 0-93.090909-41.890909-93.090909-93.09091v-372.363636c0-51.2 41.890909-93.090909 93.090909-93.090909h249.018182l100.072727-79.127273 100.072727 79.127273H861.090909c51.2 0 93.090909 41.890909 93.090909 93.090909V593.454545c0 51.2-41.890909 93.090909-93.090909 93.09091H162.909091zM279.272727 407.272727m-46.545454 0a46.545455 46.545455 0 1 1 93.090909 0 46.545455 46.545455 0 1 1-93.090909 0ZM512 407.272727m-46.545455 0a46.545455 46.545455 0 1 1 93.09091 0 46.545455 46.545455 0 1 1-93.09091 0ZM744.727273 407.272727m-46.545455 0a46.545455 46.545455 0 1 1 93.090909 0 46.545455 46.545455 0 1 1-93.090909 0Z"  horiz-adv-x="1024" />

    
    <glyph glyph-name="number" unicode="&#58966;" d="M744.727273 896H302.545455c-65.163636 0-116.363636-51.2-116.363637-116.363636v-791.272728c0-65.163636 51.2-116.363636 116.363637-116.363636h442.181818c65.163636 0 116.363636 51.2 116.363636 116.363636V779.636364c0 65.163636-51.2 116.363636-116.363636 116.363636z m69.818182-907.636364c0-39.563636-30.254545-69.818182-69.818182-69.818181H302.545455c-39.563636 0-69.818182 30.254545-69.818182 69.818181V779.636364c0 39.563636 30.254545 69.818182 69.818182 69.818181h442.181818c39.563636 0 69.818182-30.254545 69.818182-69.818181v-791.272728zM581.818182 802.909091h-116.363637c-13.963636 0-23.272727-9.309091-23.272727-23.272727s9.309091-23.272727 23.272727-23.272728h116.363637c13.963636 0 23.272727 9.309091 23.272727 23.272728s-9.309091 23.272727-23.272727 23.272727zM523.636364 128c-44.218182 0-81.454545-37.236364-81.454546-81.454545s37.236364-81.454545 81.454546-81.454546 81.454545 37.236364 81.454545 81.454546-37.236364 81.454545-81.454545 81.454545z m0-116.363636c-18.618182 0-34.909091 16.290909-34.909091 34.909091s16.290909 34.909091 34.909091 34.90909 34.909091-16.290909 34.909091-34.90909-16.290909-34.909091-34.909091-34.909091z"  horiz-adv-x="1024" />

    
    <glyph glyph-name="bootdevice" unicode="&#58955;" d="M950.857143 420.571429V749.714286c0 40.228571-32.914286 73.142857-73.142857 73.142857H73.142857C32.914286 822.857143 0 789.942857 0 749.714286v-475.428572c0-40.228571 32.914286-73.142857 73.142857-73.142857h365.714286v-109.714286H182.857143c-21.942857 0-36.571429-14.628571-36.571429-36.571428s14.628571-36.571429 36.571429-36.571429h512c0-40.228571 32.914286-73.142857 73.142857-73.142857h182.857143c40.228571 0 73.142857 32.914286 73.142857 73.142857v329.142857c0 40.228571-32.914286 73.142857-73.142857 73.142858zM73.142857 274.285714V749.714286h804.571429v-329.142857h-109.714286c-40.228571 0-73.142857-32.914286-73.142857-73.142858v-73.142857H73.142857z m438.857143-182.857143v109.714286h182.857143v-109.714286h-182.857143z m438.857143-73.142857h-182.857143v329.142857h182.857143v-329.142857zM676.571429 629.028571c-14.628571 14.628571-36.571429 14.628571-51.2 0l-153.6-153.6-76.8 76.8c-14.628571 14.628571-36.571429 14.628571-51.2 0-14.628571-14.628571-14.628571-36.571429 0-51.2l102.4-102.4c14.628571-14.628571 36.571429-14.628571 51.2 0l179.2 179.2c14.628571 14.628571 14.628571 36.571429 0 51.2z"  horiz-adv-x="1024" />

    
    <glyph glyph-name="blacklis" unicode="&#58959;" d="M530.285714 310.85714299999995c149.942857 0 274.285714 124.342857 274.285715 274.285714S680.228571 859.428571 530.285714 859.428571 256 735.085714 256 585.142857s124.342857-274.285714 274.285714-274.285714z m0 475.428571c109.714286 0 201.142857-91.428571 201.142857-201.142857S640 384 530.285714 384 329.142857 475.428571 329.142857 585.142857 420.571429 786.285714 530.285714 786.285714zM585.142857 274.285714h-219.428571c-182.857143 0-329.142857-146.285714-329.142857-329.142857 0-21.942857 14.628571-36.571429 36.571428-36.571428s36.571429 14.628571 36.571429 36.571428c0 142.628571 113.371429 256 256 256h219.428571c21.942857 0 36.571429 14.628571 36.571429 36.571429s-14.628571 36.571429-36.571429 36.571428zM804.571429 274.285714c-102.4 0-182.857143-80.457143-182.857143-182.857143s80.457143-182.857143 182.857143-182.857142 182.857143 80.457143 182.857142 182.857142-80.457143 182.857143-182.857142 182.857143z m0-73.142857c18.285714 0 32.914286-3.657143 47.542857-10.971428l-146.285715-146.285715c-7.314286 14.628571-10.971429 29.257143-10.971428 47.542857 0 62.171429 47.542857 109.714286 109.714286 109.714286z m0-219.428571c-18.285714 0-32.914286 3.657143-47.542858 10.971428l146.285715 146.285715c7.314286-14.628571 10.971429-29.257143 10.971428-47.542858 0-62.171429-47.542857-109.714286-109.714285-109.714285z"  horiz-adv-x="1024" />

    
    <glyph glyph-name="advancedsetup" unicode="&#58972;" d="M384 768H213.333333c-46.933333 0-85.333333-38.4-85.333333-85.333333v-170.666667c0-46.933333 38.4-85.333333 85.333333-85.333333h170.666667c46.933333 0 85.333333 38.4 85.333333 85.333333V682.666667c0 46.933333-38.4 85.333333-85.333333 85.333333z m0-256H213.333333V682.666667h170.666667v-170.666667zM384 341.333333H213.333333c-46.933333 0-85.333333-38.4-85.333333-85.333333v-170.666667c0-46.933333 38.4-85.333333 85.333333-85.333333h170.666667c46.933333 0 85.333333 38.4 85.333333 85.333333v170.666667c0 46.933333-38.4 85.333333-85.333333 85.333333z m0-256H213.333333v170.666667h170.666667v-170.666667zM640 426.666667h170.666667c46.933333 0 85.333333 38.4 85.333333 85.333333V682.666667c0 46.933333-38.4 85.333333-85.333333 85.333333h-170.666667c-46.933333 0-85.333333-38.4-85.333333-85.333333v-170.666667c0-46.933333 38.4-85.333333 85.333333-85.333333z m0 256h170.666667v-170.666667h-170.666667V682.666667zM913.066667 192L849.066667 298.666667c-17.066667 25.6-42.666667 42.666667-72.533334 42.666666h-106.666666c-29.866667 0-59.733333-17.066667-72.533334-42.666666l-51.2-85.333334c-17.066667-25.6-17.066667-59.733333 0-85.333333l51.2-85.333333c17.066667-25.6 42.666667-42.666667 72.533334-42.666667h106.666666c29.866667 0 59.733333 17.066667 72.533334 42.666667l64 106.666666c4.266667 12.8 4.266667 29.866667 0 42.666667z m-119.466667-119.466667c-4.266667-8.533333-12.8-8.533333-17.066667-8.533333h-106.666666c-8.533333 0-12.8 4.266667-17.066667 8.533333l-51.2 85.333334c-4.266667 8.533333-4.266667 17.066667 0 21.333333l51.2 85.333333c4.266667 8.533333 12.8 8.533333 17.066667 8.533334h106.666666c8.533333 0 12.8-4.266667 17.066667-8.533334l55.466667-98.133333-55.466667-93.866667zM725.333333 234.666667c-34.133333 0-64-29.866667-64-64s29.866667-64 64-64 64 29.866667 64 64-29.866667 64-64 64z m0-85.333334c-12.8 0-21.333333 8.533333-21.333333 21.333334s8.533333 21.333333 21.333333 21.333333 21.333333-8.533333 21.333334-21.333333-8.533333-21.333333-21.333334-21.333334z"  horiz-adv-x="1024" />

    
    <glyph glyph-name="detection" unicode="&#58963;" d="M777.077236 505.925656h32.030852c17.697411 0 32.030852-14.33344 32.030851-32.030852 0-17.697411-14.33344-32.030852-32.030851-32.030851h-14.333441l-133.388752-231.090163c-0.292519-0.585038-0.731298-1.170077-1.023817-1.755115l-0.292519-0.585038-0.14626-0.14626c-1.023817-1.608856-2.193894-3.217711-3.51023-4.826566-0.14626-0.292519-0.438779-0.438779-0.731298-0.731298-1.170077-1.170077-2.340154-2.340154-3.65649-3.363971-0.438779-0.438779-0.877558-0.731298-1.462596-1.023817-0.731298-0.585038-1.462596-1.170077-2.193894-1.608856-0.438779-0.292519-1.023817-0.438779-1.462596-0.731298-0.585038-0.292519-1.316336-0.585038-1.901374-0.877557-1.316336-0.585038-2.486413-1.023817-3.80275-1.462596-0.731298-0.292519-1.462596-0.292519-2.340153-0.438779-1.170077-0.292519-2.486413-0.438779-3.65649-0.585039-1.023817-0.14626-1.901375-0.14626-2.925192-0.146259s-1.901375 0-2.925192 0.146259c-1.170077 0.14626-2.486413 0.292519-3.65649 0.585039-0.731298 0.14626-1.462596 0.292519-2.340154 0.438779-1.316336 0.438779-2.486413 0.877558-3.802749 1.462596-0.731298 0.292519-1.316336 0.585038-1.901375 0.877557-0.438779 0.292519-1.023817 0.438779-1.462596 0.731298-0.877558 0.438779-1.462596 1.023817-2.193894 1.608856-0.438779 0.292519-1.023817 0.585038-1.462596 1.023817-1.316336 1.023817-2.632673 2.193894-3.65649 3.363971-0.14626 0.292519-0.438779 0.438779-0.585038 0.731298-1.316336 1.462596-2.486413 3.071452-3.51023 4.826566l-0.14626 0.14626-0.292519 0.585038c-0.292519 0.585038-0.731298 1.170077-1.023817 1.755115l-211.198858 365.648992L299.832173 416.414783c-3.65649-6.289163-9.068095-10.676951-15.210998-13.309623-0.292519-0.14626-0.731298-0.292519-1.023817-0.438779-1.462596-0.585038-3.071452-1.023817-4.534048-1.462596-0.731298-0.14626-1.316336-0.292519-2.047634-0.292519-1.316336-0.14626-2.632673-0.438779-3.949009-0.438779-0.438779 0-0.731298-0.14626-1.170077-0.14626h-239.865738C14.33344 400.326227 0 414.659668 0 432.357079c0 17.697411 14.33344 32.030852 32.030852 32.030852h221.729548L364.478914 656.134262c4.095269 7.020461 10.530691 11.847027 17.697412 14.187181 0.14626 0 0.292519 0.14626 0.292519 0.146259 1.608856 0.438779 3.217711 0.877558 4.826567 1.023817 0.585038 0.14626 1.170077 0.292519 1.755115 0.29252 1.023817 0.14626 2.193894 0.14626 3.217711 0.146259 1.170077 0 2.193894 0 3.217711-0.146259 0.585038 0 1.170077-0.14626 1.755115-0.29252 1.608856-0.292519 3.217711-0.585038 4.826567-1.023817 0.14626 0 0.292519-0.14626 0.292519-0.146259 7.16672-2.340154 13.602142-7.16672 17.697411-14.187181l212.222675-367.550366 116.276379 201.253205c4.826567 8.483057 13.017104 13.748402 21.938939 15.357257h0.14626c1.608856 0.292519 3.363971 0.438779 5.119086 0.585039 0.438779 0 0.877558 0.14626 1.316336 0.146259zM24.425353 227.739904c-5.411605 16.819854 3.949009 34.809784 20.768862 40.221389 16.819854 5.411605 34.809784-3.949009 40.221389-20.768863 21.500161-67.279414 58.796358-128.708445 109.840957-179.899304 174.926477-174.926477 458.523835-174.926477 633.450313 0s174.926477 458.523835 0 633.450313-458.523835 174.926477-633.450313 0c-23.694055-23.694055-44.462917-49.728263-62.160328-77.663846-9.506874-14.918479-29.251919-19.452526-44.170398-9.945653-14.918479 9.506874-19.452526 29.251919-9.945653 44.170399 20.183824 31.884592 43.877879 61.57529 70.935904 88.633315 199.936868 199.936868 524.048134 199.936868 723.985003 0s199.936868-524.048134 0-723.985003-524.048134-199.936868-723.985003 0c-58.357579 58.503839-100.919122 128.854705-125.490733 205.787253z"  horiz-adv-x="1024" />

    
    <glyph glyph-name="earth" unicode="&#58973;" d="M1010.0736 390.7584c-1.2288 0-2.4576-0.2048-3.4816-0.4096l-96.0512 284.8768c5.12 2.2528 8.6016 7.3728 8.6016 13.312 0 8.192-6.5536 14.7456-14.5408 14.7456-4.9152 0-9.4208-2.4576-12.0832-6.3488L659.456 848.896c1.4336 2.048 2.2528 4.7104 2.2528 7.3728 0 7.168-5.7344 13.312-13.1072 13.312-6.5536 0-12.0832-5.12-13.1072-11.4688l-197.632 13.5168c-0.6144 6.9632-6.5536 12.288-13.312 12.0832-7.3728 0-13.5168-5.9392-13.5168-13.5168 0-1.024 0-1.8432 0.2048-2.8672l-56.5248-26.624c-3.4816 0-6.5536-1.6384-8.6016-4.096L165.2736 751.8208c-2.4576 3.072-6.144 5.3248-10.4448 5.3248-7.168 0-13.1072-5.9392-13.1072-13.1072 0-4.3008 2.048-8.192 5.5296-10.6496L21.7088 527.36c-4.5056 2.4576-9.8304 2.4576-14.336-0.2048-4.7104-2.6624-7.3728-7.5776-7.3728-12.6976 0-5.3248 2.8672-10.0352 7.3728-12.6976 2.048-1.2288 4.5056-1.8432 6.7584-1.8432v-251.4944c-7.7824-0.2048-14.1312-6.5536-14.1312-14.5408 0-7.9872 6.5536-14.7456 14.5408-14.7456 2.2528 0 4.5056 0.6144 6.3488 1.4336l139.4688-218.7264c-3.072-2.4576-4.9152-6.144-4.9152-10.24 0-7.168 5.7344-12.9024 12.9024-12.9024 4.7104 0 8.8064 2.4576 11.0592 6.3488l171.8272-65.7408c0-0.6144-0.2048-1.2288-0.2048-1.8432 0-5.7344 4.7104-10.6496 10.6496-10.6496 1.2288 0 2.4576 0.2048 3.4816 0.6144l36.4544-12.4928 0.2048 0.4096c1.2288-5.9392 6.5536-10.4448 12.9024-10.4448 3.2768 0 6.3488 1.2288 8.6016 3.2768h217.9072v0.8192c2.4576-2.8672 5.9392-4.7104 10.0352-4.7104 7.168 0 12.9024 5.9392 12.9024 12.9024 0 7.168-5.7344 12.9024-12.9024 12.9024-4.096 0-7.7824-2.048-10.24-5.12l-28.8768 26.0096 93.184 19.8656c2.2528-2.8672 5.7344-4.7104 9.6256-4.7104 6.9632 0 12.4928 5.7344 12.4928 12.4928 0 2.4576-0.6144 4.7104-1.8432 6.5536l54.272 88.6784c1.4336-0.6144 2.8672-1.024 4.5056-1.024 5.9392 0 10.6496 4.7104 10.6496 10.8544 0 2.8672-1.024 5.3248-2.8672 7.168l82.7392 131.8912c0.6144 0 1.4336-0.2048 2.048-0.2048 1.4336 0 2.8672 0.2048 4.3008 0.6144l22.1184-123.0848c-6.7584-0.6144-12.0832-6.3488-12.0832-13.312v-0.6144l-96.256-2.2528v-4.5056l96.4608 4.5056c0.4096-1.6384 1.024-3.072 1.8432-4.3008l-0.2048-0.2048-165.888-96.256 2.048-3.072 106.496 61.0304-173.2608-115.3024v-3.6864L887.1936 50.176l10.24 5.9392c2.2528-1.6384 4.9152-2.6624 7.9872-2.6624 7.3728 0 13.312 5.9392 13.312 13.312 0 6.5536-4.7104 11.8784-10.8544 13.1072l-22.3232 124.7232c4.7104 2.6624 7.9872 7.9872 7.9872 13.7216 0 8.192-6.3488 14.9504-14.336 15.7696l2.4576 33.9968 31.3344-11.8784-23.1424-27.2384 2.8672-2.2528 23.9616 28.0576 16.7936-6.3488c-0.8192-1.6384-1.4336-3.2768-1.4336-5.3248 0-6.144 4.9152-11.0592 11.0592-11.264l-28.0576-134.3488-5.7344-16.7936h2.2528l-0.2048-1.8432h4.3008l3.072 16.1792L1009.664 362.7008h0.4096c7.7824 0 13.9264 6.144 13.9264 13.9264s-6.3488 14.1312-13.9264 14.1312z m-148.0704-172.4416c0-2.4576 0.6144-4.5056 1.4336-6.5536L673.792 148.8896l-53.248 214.8352c0.6144 0.8192 1.2288 1.8432 1.6384 2.8672l188.6208-71.4752 56.1152-65.3312c-3.072-3.072-4.9152-6.9632-4.9152-11.4688zM671.744 143.9744l28.2624-113.664-47.5136-18.0224-106.0864 84.1728-2.2528-0.8192c1.6384 2.6624 2.6624 5.9392 2.6624 9.216 0 5.12-2.2528 9.8304-5.7344 13.1072h0.8192l74.1376 242.688-0.4096 0.4096c0.8192 0.2048 1.6384 0.4096 2.4576 0.8192l53.0432-213.8112-121.2416-40.1408v-4.096l121.856 40.1408z m-15.36-134.5536l44.4416 16.9984 13.7216-55.296c-2.4576-0.2048-4.9152-1.024-6.7584-2.6624l-51.4048 40.96z m-87.4496-28.672c-1.4336 4.3008-5.3248 7.168-10.0352 7.3728-4.3008 0-8.192-2.6624-9.8304-6.5536l-60.6208 33.1776 39.1168 72.4992h1.6384c5.5296 0 10.4448 2.6624 13.5168 6.5536l105.8816-82.944-79.6672-30.1056z m-215.4496-57.1392l-3.4816 1.4336-172.4416 146.6368v22.1184l180.0192-14.336c0-0.4096-0.2048-0.8192-0.2048-1.2288 0-4.3008 3.072-7.9872 7.3728-8.6016l-3.6864-142.1312c-3.2768 0-5.9392-1.4336-7.5776-3.8912z m-199.2704 162.6112l19.8656-16.7936v-65.9456c-1.4336 0.6144-3.072 1.2288-4.7104 1.2288l-15.1552 81.5104z m-7.3728 25.1904L141.312 138.4448l15.7696-11.6736c-1.024-2.048-1.4336-4.3008-1.4336-6.7584 0-9.0112 7.168-16.1792 16.1792-16.1792 7.9872 0 14.5408 5.7344 15.7696 13.312v-0.2048l184.32-6.5536-5.7344-22.9376c-3.4816 0-6.3488-2.048-7.7824-4.9152L177.5616 97.28v5.7344h-3.2768v-5.3248l-16.1792 1.4336c0 0.4096 0.2048 0.8192 0.2048 1.4336 0 6.144-4.9152 11.0592-11.0592 11.0592-0.2048-0.2048-0.2048-0.2048-0.4096-0.2048zM71.68 456.4992h-0.4096c0 0.2048 0.2048 0.2048 0.4096 0z m85.1968 274.432c1.2288 0.2048 2.4576 0.6144 3.4816 1.024l30.9248-160.1536-108.544-93.184c-0.4096 1.024-1.024 1.8432-1.4336 2.6624L158.3104 730.9312h-1.4336z m182.4768-41.3696l-20.8896-193.536-101.376-19.6608c-0.6144 2.6624-2.2528 4.9152-4.5056 6.5536l-17.2032 86.8352 139.6736 121.2416c1.4336-0.6144 2.8672-1.2288 4.3008-1.4336z m17.2032 14.5408c0 3.072-0.8192 5.9392-2.4576 8.192l46.8992 95.0272 141.9264-58.368L359.0144 705.536v-4.9152l191.0784 45.4656 5.12-2.048c-0.6144-1.2288-0.8192-2.6624-0.8192-4.096 0-2.8672 1.024-5.3248 2.6624-7.168l-55.0912-139.264L355.9424 697.344v-5.3248l144.1792-103.2192-21.0944-53.4528h-0.2048c-4.5056 0-8.192-3.6864-8.192-8.3968 0-0.4096 0-1.024 0.2048-1.4336L322.1504 496.64l20.48 192.7168c7.5776 0.4096 13.9264 6.9632 13.9264 14.7456z m283.8528 141.9264l-62.464-88.6784-27.4432-6.5536-147.456 60.6208 10.24 20.8896 223.4368 18.0224c0.8192-1.6384 2.048-3.2768 3.6864-4.3008zM575.488 745.472l5.5296 7.9872L679.936 777.0112c2.6624-2.6624 6.3488-4.3008 10.24-4.3008 7.9872 0 14.5408 6.5536 14.5408 14.7456 0 1.024 0 1.8432-0.2048 2.8672l13.9264-14.5408-13.7216 6.5536v-6.144l24.3712-11.4688 49.5616-51.8144c-1.024-1.6384-1.4336-3.6864-1.4336-5.7344 0-3.2768 1.2288-6.144 3.2768-8.192L673.3824 490.496l-5.7344-1.2288v-1.2288c-0.6144 6.144-4.096 11.264-9.0112 14.1312L688.128 721.1008l88.8832-12.6976v2.4576L688.5376 723.968l6.3488 47.7184h-4.3008l-6.5536-47.104-108.3392 16.1792c-0.4096 4.7104-3.6864 8.6016-7.9872 9.6256l6.144 1.4336-2.2528-3.2768 3.8912-3.072z m109.9776 55.7056l-16.5888 26.4192L693.6576 801.792c-1.024 0.2048-2.2528 0.4096-3.4816 0.4096-1.6384-0.2048-3.2768-0.4096-4.7104-1.024z m198.2464-263.7824l-206.6432-45.8752L782.5408 697.344c1.8432-1.2288 3.8912-1.8432 6.3488-1.8432 1.024 0 2.048 0.2048 3.072 0.4096l94.6176-142.336c-2.4576-2.8672-4.096-6.5536-4.096-10.6496 0.2048-2.048 0.6144-3.8912 1.2288-5.5296z m-94.8224 181.4528c-3.2768 0-6.144-1.2288-8.192-3.2768l-43.8272 45.4656 147.6608-69.2224-84.3776 12.288c0.2048 1.024 0.4096 2.048 0.4096 3.072 0 6.5536-5.12 11.6736-11.6736 11.6736z m-125.5424-248.0128l-2.8672-1.2288 1.4336-1.6384-46.6944-90.7264c-0.4096 0-0.6144 0.2048-1.024 0.2048-0.8192 0-1.8432-0.2048-2.6624-0.4096l-63.2832 75.5712 84.3776 27.2384c2.6624-6.7584 9.216-11.4688 16.7936-11.4688 9.6256 0 17.408 7.5776 18.0224 17.2032l3.2768 0.8192-7.3728-15.5648z m-134.144-348.3648c-3.2768 0-6.144-0.8192-8.8064-2.4576l-108.544 134.144 195.1744 110.592c1.2288-2.048 3.072-3.4816 5.5296-3.8912L538.0096 119.808c-2.4576 1.6384-5.5296 2.6624-8.8064 2.6624zM368.64 86.8352l5.7344 23.1424 137.216-4.9152c0-7.7824 5.12-14.5408 12.0832-16.5888L485.376 16.5888l-110.7968 60.8256c0 0.4096 0.2048 0.6144 0.2048 1.024 0 3.8912-2.6624 7.168-6.144 8.3968z m-182.272 39.5264l220.7744 125.1328L372.736 113.664l-184.9344 5.9392v0.2048c0 2.4576-0.6144 4.5056-1.4336 6.5536z m23.3472 338.1248c4.3008 1.024 7.5776 4.9152 7.7824 9.4208l100.9664 19.8656-10.6496-98.9184h-1.2288c-6.5536 0-12.0832-3.4816-14.9504-8.8064L204.8 420.0448l4.9152 44.4416zM557.6704 747.7248h-0.2048l0.6144 0.2048c-0.2048 0-0.2048 0-0.4096-0.2048z m1.4336-16.7936c1.6384-1.024 3.6864-1.8432 5.9392-1.8432 5.12 0 9.216 3.4816 10.4448 8.192l108.1344-15.5648-30.1056-217.4976c-1.2288 0.2048-2.4576 0.4096-3.6864 0.4096-5.5296 0-10.4448-2.4576-13.7216-6.5536l-131.4816 93.3888L559.104 730.9312z m73.9328-237.3632c-1.024-2.2528-1.4336-4.7104-1.4336-7.168 0-1.024 0-1.8432 0.2048-2.8672l-86.016-27.8528-58.9824 70.2464v1.024c0 3.2768-2.048 6.144-4.9152 7.3728l20.6848 52.4288 130.4576-93.184z m-27.0336-124.3136c0-0.4096 0-0.8192 0.2048-1.2288l-194.56-110.3872 41.3696 164.2496 93.3888 30.1056 63.0784-76.1856c-2.2528-1.6384-3.4816-4.096-3.4816-6.5536z m-152.1664 56.7296l23.3472 92.7744c0.4096 0 0.8192-0.2048 1.4336-0.2048 3.6864 0 6.5536 2.2528 7.7824 5.3248l57.1392-69.0176-89.7024-28.8768z m20.6848 93.7984L450.7648 424.96l-128.2048-41.3696c-2.048 6.144-7.5776 10.6496-14.336 11.264h2.8672l10.6496 99.5328 149.2992 29.4912c0.6144-1.6384 1.8432-3.072 3.4816-4.096z m-184.5248-136.8064c-0.4096-1.6384-0.8192-3.2768-0.8192-5.12 0-6.5536 3.6864-12.0832 8.8064-14.9504L180.6336 133.7344H184.32l116.9408 227.9424c1.6384-0.6144 3.4816-0.8192 5.3248-0.8192 9.4208 0 16.9984 7.5776 16.9984 17.2032 0 0.8192 0 1.4336-0.2048 2.2528l126.1568 40.5504-40.7552-162.6112-86.6304 107.3152-4.3008-2.8672 88.064-108.1344-220.9792-125.5424c-2.6624 3.8912-6.9632 6.5536-11.8784 6.9632l31.1296 280.576 85.8112-33.5872z m119.6032-133.12l107.52-132.096c-2.4576-2.2528-4.096-5.12-4.9152-8.3968l-137.0112 4.5056 34.4064 135.9872z m-201.5232 234.7008h-0.8192c-5.7344 0-10.24-4.5056-10.24-10.24 0-5.12 3.6864-9.216 8.3968-10.0352L200.704 421.4784l-117.5552 45.6704c0.6144 1.6384 0.8192 3.2768 0.8192 4.9152 0 2.2528-0.4096 4.5056-1.4336 6.5536l4.096-3.2768 105.472 91.5456 15.9744-82.3296zM81.92 463.872l118.5792-46.08L169.984 135.7824c-4.096-0.4096-7.7824-2.4576-10.4448-5.5296l-19.456 14.5408L74.9568 457.728c2.8672 1.4336 5.3248 3.4816 6.9632 6.144z m72.0896-372.1216c1.2288 1.024 2.2528 2.2528 2.8672 3.6864l17.2032-1.4336v-19.456l-20.0704 17.2032zM364.544-72.4992l3.2768 142.336c1.8432 0.4096 3.4816 1.4336 4.7104 2.6624l110.592-60.2112-37.0688-68.608-74.9568-21.2992c-1.4336 2.6624-3.8912 4.5056-6.5536 5.12z m121.6512 83.1488l62.0544-33.792c0-1.2288 0.4096-2.4576 0.8192-3.6864l-98.0992-27.8528 35.2256 65.3312z m136.192 359.2192c-0.2048 2.8672-2.048 5.12-4.3008 6.5536l45.8752 89.4976 141.9264-165.0688-183.5008 69.0176z m43.8272 100.352l8.6016 16.5888 211.1488 46.4896c2.4576-3.2768 6.144-5.5296 10.24-6.144L878.3872 273.408l-63.0784 23.7568-149.0944 173.056z m231.424 88.6784c-3.072-0.2048-6.144-1.2288-8.3968-3.072l-93.3888 141.9264c1.4336 1.024 2.6624 2.4576 3.4816 4.096l90.5216-15.36v3.072l0.2048-0.2048v-0.8192c0-7.168 5.12-13.1072 11.8784-14.336l-4.3008-115.3024zM890.88 693.4528l-164.4544 78.6432L661.504 839.4752l-2.048 3.2768 231.424-149.2992zM655.7696 845.4144c0.4096 0.2048 0.6144 0.4096 1.024 0.8192l-0.6144-1.2288-0.4096 0.4096z m0.6144-0.8192l1.2288-0.8192-0.2048-0.2048-1.024 1.024z m-2.4576-0.2048v-1.024l1.6384-1.6384-1.6384-1.8432 27.4432-40.7552c-3.4816-2.6624-5.7344-6.9632-5.7344-11.6736 0-2.4576 0.6144-4.7104 1.6384-6.5536l-92.3648-21.7088 59.5968 84.7872c1.2288-0.4096 2.6624-0.6144 4.096-0.6144 1.8432-0.2048 3.6864 0.2048 5.3248 1.024zM437.6576 867.328l197.8368-12.9024c0-0.4096 0.2048-0.8192 0.2048-1.4336l-220.5696-16.9984 10.24 20.6848c5.9392 0.4096 11.0592 4.9152 12.288 10.6496z m-22.9376-6.3488c1.6384-1.6384 3.6864-3.072 5.9392-3.6864l-10.6496-21.7088-39.7312-3.072 44.4416 26.2144v2.2528z m-0.4096 0.4096l-48.9472-27.0336c-0.8192 1.6384-2.048 3.2768-3.6864 4.3008l51.6096 24.1664c0.2048-0.6144 0.6144-1.024 1.024-1.4336z m-69.4272-37.888L195.7888 760.832l147.6608 69.2224v-0.8192c-0.2048-2.048 0.4096-4.096 1.4336-5.7344zM194.3552 760.2176l1.4336-1.4336 150.1184 59.8016v3.072c2.048-2.6624 5.3248-4.3008 9.0112-4.3008 6.5536 0 11.6736 5.12 11.6736 11.6736v1.2288l2.2528 1.4336v-3.072l39.1168 3.072-9.216-18.6368-31.5392 12.9024-1.2288-3.072v-1.2288l30.72-12.6976-46.08-93.3888c-2.4576 1.8432-5.5296 3.072-9.0112 3.072-7.5776 0-13.7216-5.5296-14.7456-12.6976l-154.624 34.816-3.072-5.12L327.2704 701.44c0.6144-3.4816 2.4576-6.5536 4.9152-8.6016L194.56 574.6688 162.816 733.5936c3.072 2.4576 4.9152 6.144 4.9152 10.24 0 1.2288-0.2048 2.4576-0.6144 3.6864l27.2384 12.6976zM154.0096 730.9312l-77.824-244.9408c-2.2528 1.2288-4.9152 2.048-7.7824 2.048-4.096 0-7.9872-1.6384-10.6496-4.096l-27.648 22.1184-3.6864-3.072 27.4432-24.576c-0.8192-1.8432-1.2288-3.8912-1.2288-6.144 0-8.8064 7.168-15.7696 15.7696-15.7696h1.4336L21.7088 246.784c-1.4336 0.8192-3.072 1.2288-4.7104 1.4336v251.904c1.6384 0.2048 3.4816 0.8192 4.9152 1.6384 4.5056 2.6624 7.3728 7.5776 7.3728 12.6976 0 3.6864-1.4336 6.9632-3.6864 9.6256L150.3232 731.5456c1.2288-0.4096 2.4576-0.6144 3.6864-0.6144zM23.9616 222.4128c3.2768 2.6624 5.3248 6.7584 5.3248 11.264 0 3.4816-1.2288 6.5536-3.072 9.0112l46.6944 207.872 62.8736-302.6944L30.72 225.8944l-2.6624-2.6624L137.216 141.5168l6.3488-30.9248c-4.096-1.6384-7.168-5.7344-7.168-10.4448 0-6.144 4.9152-11.0592 11.0592-11.0592 1.024 0 1.8432 0.2048 2.8672 0.4096l17.2032-84.992c-1.024 0-1.8432-0.2048-2.6624-0.6144L23.9616 222.4128z m157.2864-232.6528c0 0.6144 0.2048 1.2288 0.2048 1.8432 0 3.6864-1.4336 6.9632-3.8912 9.216v65.536l162.4064-137.6256-158.72 61.0304z m220.7744-89.4976l-31.9488 10.4448c1.4336 1.8432 2.4576 4.096 2.4576 6.7584 0 0.4096 0 0.8192-0.2048 1.2288l70.8608 20.2752-17.6128-32.768 3.2768-2.2528 19.456 36.4544 103.0144 29.4912c1.8432-1.8432 4.5056-3.072 7.3728-3.072 2.4576 0 4.7104 0.8192 6.5536 2.4576l39.3216-35.4304-176.5376-37.0688v1.2288c0 7.168-5.9392 13.1072-13.1072 13.312-6.3488 0-11.8784-4.9152-12.9024-11.0592zM428.032-103.424l2.2528-3.8912h-3.2768c0.6144 1.2288 1.024 2.4576 1.024 3.8912z m211.7632 5.5296c-0.6144-1.6384-1.024-3.2768-1.024-5.12 0-1.4336 0.2048-2.8672 0.8192-4.3008H433.5616l175.3088 37.2736 30.9248-27.8528z m-31.3344 32.3584l-40.96 36.864c1.024 1.2288 1.6384 2.8672 1.8432 4.5056l83.3536 31.9488 53.0432-41.5744c-1.6384-2.048-2.6624-4.9152-2.6624-7.7824 0-1.4336 0.2048-2.8672 0.6144-4.096l-95.232-19.8656z m114.0736 34.6112c-1.4336 0.8192-2.8672 1.6384-4.5056 1.8432l-14.1312 56.7296 72.9088 28.0576v1.4336c0.4096-0.6144 1.024-1.2288 1.6384-1.6384l-55.9104-86.4256z m68.608 103.424c-1.6384 1.024-3.6864 1.8432-5.9392 1.8432-5.7344 0.2048-10.6496-4.7104-10.6496-10.8544 0-1.6384 0.4096-3.2768 1.024-4.5056l-72.4992-27.4432-28.0576 113.4592 191.2832 63.0784c1.6384-1.8432 3.4816-3.2768 5.7344-4.3008l-80.896-131.2768z m84.5824 161.5872c-1.6384-0.2048-3.2768-0.6144-4.7104-1.4336l-50.5856 58.7776 57.7536-21.9136-2.4576-35.4304z m6.144 37.888l17.6128 254.7712c1.8432 0 3.6864 0.4096 5.12 1.2288l92.5696-138.8544 2.2528 2.048-90.9312 139.264c3.4816 2.8672 5.7344 7.3728 5.7344 12.288 0 8.192-5.9392 14.7456-13.5168 15.7696l3.8912 115.0976c0.6144 0 1.4336 0 2.048 0.2048l-1.8432-1.4336L1001.8816 388.096c-3.4816-2.4576-5.9392-6.7584-5.9392-11.4688 0-5.7344 3.2768-10.4448 7.9872-12.6976l-88.4736-104.448-33.5872 12.4928z m63.6928-39.936c5.3248 1.024 9.216 5.5296 9.216 11.0592 0 6.144-4.9152 11.264-11.264 11.0592-2.8672 0-5.3248-1.024-7.3728-2.6624l-16.7936 6.3488 80.896 95.0272-48.7424-98.5088 3.072-3.072 41.1648 83.968-71.0656-209.7152 20.8896 106.496z"  horiz-adv-x="1024" />

    
    <glyph glyph-name="m" unicode="&#58974;" d="M358.4-62.577778l31.288889 62.577778h244.622222l31.288889-62.577778c34.133333 2.844444 68.266667 8.533333 102.4 14.222222V810.666667c0 17.066667-11.377778 28.444444-28.444444 28.444444H284.444444c-17.066667 0-28.444444-11.377778-28.444444-28.444444v-859.022223c34.133333-5.688889 68.266667-11.377778 102.4-14.222222z m31.288889-2.844444c42.666667-2.844444 82.488889-5.688889 122.311111-5.688889s82.488889 2.844444 122.311111 5.688889l-19.911111 36.977778h-210.488889l-14.222222-36.977778zM284.444444 867.555556h455.111112c31.288889 0 56.888889-25.6 56.888888-56.888889v-859.022223c0-14.222222-11.377778-25.6-22.755555-28.444444-88.177778-14.222222-173.511111-22.755556-261.688889-22.755556s-173.511111 8.533333-261.688889 22.755556c-14.222222 2.844444-22.755556 14.222222-22.755555 28.444444V810.666667c0 31.288889 25.6 56.888889 56.888888 56.888889z m28.444445-85.333334v-739.555555h398.222222V782.222222H312.888889z m0 28.444445h398.222222c17.066667 0 28.444444-11.377778 28.444445-28.444445v-739.555555c0-17.066667-11.377778-28.444444-28.444445-28.444445H312.888889c-17.066667 0-28.444444 11.377778-28.444445 28.444445V782.222222c0 17.066667 11.377778 28.444444 28.444445 28.444445z"  horiz-adv-x="1024" />

    
    <glyph glyph-name="ds" unicode="&#58975;" d="M312.888889 270.222222H113.777778c-17.066667 0-28.444444 11.377778-28.444445 28.444445V753.777778c0 17.066667 11.377778 28.444444 28.444445 28.444444h56.888889V810.666667c0 17.066667 11.377778 28.444444 28.444444 28.444444h625.777778c17.066667 0 28.444444-11.377778 28.444444-28.444444v-28.444445h56.888889c17.066667 0 28.444444-11.377778 28.444445-28.444444v-455.111111c0-17.066667-11.377778-28.444444-28.444445-28.444445h-199.111111v-256h142.222222c17.066667 0 28.444444-11.377778 28.444445-28.444444v-28.444445c0-17.066667-11.377778-28.444444-28.444445-28.444444H170.666667c-17.066667 0-28.444444 11.377778-28.444445 28.444444v28.444445c0 17.066667 11.377778 28.444444 28.444445 28.444444h142.222222v256zM170.666667 753.777778H113.777778v-455.111111h199.111111v85.333333H199.111111c-17.066667 0-28.444444 11.377778-28.444444 28.444444V753.777778z m540.444444-455.111111h199.111111V753.777778h-56.888889v-341.333334c0-17.066667-11.377778-28.444444-28.444444-28.444444h-113.777778v-85.333333zM426.666667 14.222222v28.444445c0 17.066667 11.377778 28.444444 28.444444 28.444444h113.777778c17.066667 0 28.444444-11.377778 28.444444-28.444444v-28.444445h85.333334V384H341.333333v-369.777778h85.333334z m0-28.444444H170.666667v-28.444445h682.666666v28.444445H426.666667z m-113.777778 426.666666h512V810.666667H199.111111v-398.222223h113.777778zM256 753.777778v-284.444445h512V753.777778H256z m0 28.444444h512c17.066667 0 28.444444-11.377778 28.444444-28.444444v-284.444445c0-17.066667-11.377778-28.444444-28.444444-28.444444H256c-17.066667 0-28.444444 11.377778-28.444444 28.444444V753.777778c0 17.066667 11.377778 28.444444 28.444444 28.444444z m199.111111-768h113.777778v28.444445h-113.777778v-28.444445z"  horiz-adv-x="1024" />

    
    <glyph glyph-name="k" unicode="&#58976;" d="M312.888889 839.111111c-17.066667 0-28.444444-11.377778-28.444445-28.444444v-853.333334c0-17.066667 11.377778-28.444444 28.444445-28.444444h398.222222c17.066667 0 28.444444 11.377778 28.444445 28.444444V810.666667c0 17.066667-11.377778 28.444444-28.444445 28.444444H312.888889z m0 28.444445h398.222222c31.288889 0 56.888889-25.6 56.888889-56.888889v-853.333334c0-31.288889-25.6-56.888889-56.888889-56.888889H312.888889c-31.288889 0-56.888889 25.6-56.888889 56.888889V810.666667c0 31.288889 25.6 56.888889 56.888889 56.888889z m28.444444-142.222223v-568.888889h341.333334V725.333333H341.333333z m0 28.444445h341.333334c17.066667 0 28.444444-11.377778 28.444444-28.444445v-568.888889c0-17.066667-11.377778-28.444444-28.444444-28.444444H341.333333c-17.066667 0-28.444444 11.377778-28.444444 28.444444V725.333333c0 17.066667 11.377778 28.444444 28.444444 28.444445z m213.333334-654.222222H682.666667c17.066667 0 28.444444-11.377778 28.444444-28.444445v-56.888889c0-17.066667-11.377778-28.444444-28.444444-28.444444h-142.222223c-17.066667 0-28.444444 11.377778-28.444444 28.444444v56.888889h-184.888889c-8.533333 0-14.222222 5.688889-14.222222 14.222222s5.688889 14.222222 14.222222 14.222223h227.555556z m0-28.444445H540.444444v-56.888889h142.222223v56.888889h-128z m-142.222223 739.555556h199.111112c8.533333 0 14.222222-5.688889 14.222222-14.222223s-5.688889-14.222222-14.222222-14.222222h-199.111112c-8.533333 0-14.222222 5.688889-14.222222 14.222222s5.688889 14.222222 14.222222 14.222223z"  horiz-adv-x="1024" />

    
    <glyph glyph-name="l" unicode="&#58977;" d="M332.8 839.111111h361.244444l17.066667 28.444445h56.888889c17.066667 0 28.444444-11.377778 28.444444-28.444445v-199.111111l-28.444444-28.444444v-483.555556l28.444444-28.444444v-170.666667c0-17.066667-11.377778-28.444444-28.444444-28.444445h-85.333333l-28.444445 28.444445H369.777778l-28.444445-28.444445H256c-17.066667 0-28.444444 11.377778-28.444444 28.444445v170.666667l28.444444 28.444444V611.555556L227.555556 640V839.111111c0 17.066667 11.377778 28.444444 28.444444 28.444445h56.888889l19.911111-28.444445z m17.066667-28.444444l19.911111-28.444445h284.444444l19.911111 28.444445H349.866667zM256 651.377778l28.444444-28.444445v-506.311111l-28.444444-28.444444V-71.111111h73.955556l28.444444 28.444444h307.2l28.444444-28.444444H768v159.288889l-28.444444 28.444444V622.933333l28.444444 28.444445V839.111111h-42.666667l-56.888889-85.333333h-312.888888l-56.888889 85.333333H256v-187.733333zM583.111111 42.666667h-139.377778l-8.533333-14.222223 8.533333-14.222222h139.377778l8.533333 14.222222-8.533333 14.222223z m42.666667-14.222223L597.333333-14.222222h-170.666666l-28.444445 42.666666 28.444445 42.666667h170.666666l28.444445-42.666667zM341.333333 696.888889v-568.888889h341.333334V696.888889H341.333333z m0 28.444444h341.333334c17.066667 0 28.444444-11.377778 28.444444-28.444444v-568.888889c0-17.066667-11.377778-28.444444-28.444444-28.444444H341.333333c-17.066667 0-28.444444 11.377778-28.444444 28.444444V696.888889c0 17.066667 11.377778 28.444444 28.444444 28.444444z"  horiz-adv-x="1024" />

    
    <glyph glyph-name="d" unicode="&#58978;" d="M597.333333 270.222222h341.333334V810.666667H85.333333v-540.444445h512z m0-28.444444v-28.444445c0-48.355556-36.977778-85.333333-85.333333-85.333333s-85.333333 36.977778-85.333333 85.333333v28.444445h-79.644445c5.688889-34.133333 2.844444-73.955556-5.688889-119.466667-5.688889-31.288889-14.222222-56.888889-25.6-79.644444h398.222223c-14.222222 25.6-25.6 51.2-31.288889 79.644444-5.688889 34.133333-8.533333 73.955556-2.844445 119.466667H597.333333z m110.933334 0c-2.844444-42.666667-2.844444-82.488889 2.844444-113.777778 5.688889-28.444444 17.066667-56.888889 36.977778-85.333333H824.888889c17.066667 0 28.444444-11.377778 28.444444-28.444445v-56.888889c0-17.066667-11.377778-28.444444-28.444444-28.444444H199.111111c-17.066667 0-28.444444 11.377778-28.444444 28.444444v56.888889c0 17.066667 11.377778 28.444444 28.444444 28.444445h82.488889c14.222222 19.911111 22.755556 48.355556 31.288889 85.333333 8.533333 42.666667 11.377778 79.644444 5.688889 113.777778H85.333333c-17.066667 0-28.444444 11.377778-28.444444 28.444444V810.666667c0 17.066667 11.377778 28.444444 28.444444 28.444444h853.333334c17.066667 0 28.444444-11.377778 28.444444-28.444444v-540.444445c0-17.066667-11.377778-28.444444-28.444444-28.444444h-230.4z m59.733333-227.555556H199.111111v-56.888889h625.777778v56.888889h-56.888889zM142.222222 753.777778v-426.666667h739.555556V753.777778H142.222222z m0 28.444444h739.555556c17.066667 0 28.444444-11.377778 28.444444-28.444444v-426.666667c0-17.066667-11.377778-28.444444-28.444444-28.444444H142.222222c-17.066667 0-28.444444 11.377778-28.444444 28.444444V753.777778c0 17.066667 11.377778 28.444444 28.444444 28.444444z m312.888889-540.444444v-28.444445c0-31.288889 25.6-56.888889 56.888889-56.888889s56.888889 25.6 56.888889 56.888889v28.444445h-113.777778z"  horiz-adv-x="1024" />

    
    <glyph glyph-name="d1" unicode="&#58979;" d="M369.777778 384h-59.733334L284.444444-42.666667h452.266667L711.111111 384h-56.888889v-28.444444c0-31.288889-25.6-56.888889-56.888889-56.888889h-170.666666c-31.288889 0-56.888889 25.6-56.888889 56.888889v28.444444z m284.444444 28.444444h170.666667V810.666667H199.111111v-398.222223h455.111111z m91.022222-113.777777H910.222222V753.777778h-56.888889v-341.333334c0-17.066667-11.377778-28.444444-28.444444-28.444444h-82.488889l2.844444-85.333333z m2.844445-28.444445l14.222222-256H853.333333c17.066667 0 28.444444-11.377778 28.444445-28.444444v-28.444445c0-17.066667-11.377778-28.444444-28.444445-28.444444H170.666667c-17.066667 0-28.444444 11.377778-28.444445 28.444444v28.444445c0 17.066667 11.377778 28.444444 28.444445 28.444444h91.022222l14.222222 256H113.777778c-17.066667 0-28.444444 11.377778-28.444445 28.444445V753.777778c0 17.066667 11.377778 28.444444 28.444445 28.444444h56.888889V810.666667c0 17.066667 11.377778 28.444444 28.444444 28.444444h625.777778c17.066667 0 28.444444-11.377778 28.444444-28.444444v-28.444445h56.888889c17.066667 0 28.444444-11.377778 28.444445-28.444444v-455.111111c0-17.066667-11.377778-28.444444-28.444445-28.444445h-162.133333zM278.755556 298.666667l5.688888 85.333333H199.111111c-17.066667 0-28.444444 11.377778-28.444444 28.444444V753.777778H113.777778v-455.111111h164.977778z m-19.911112-312.888889H170.666667v-28.444445h88.177777v28.444445z m506.311112-28.444445H853.333333v28.444445h-88.177777v-28.444445zM256 753.777778v-284.444445h512V753.777778H256z m0 28.444444h512c17.066667 0 28.444444-11.377778 28.444444-28.444444v-284.444445c0-17.066667-11.377778-28.444444-28.444444-28.444444H256c-17.066667 0-28.444444 11.377778-28.444444 28.444444V753.777778c0 17.066667 11.377778 28.444444 28.444444 28.444444z m142.222222-398.222222v-28.444444c0-17.066667 11.377778-28.444444 28.444445-28.444445h170.666666c17.066667 0 28.444444 11.377778 28.444445 28.444445v28.444444h-227.555556z"  horiz-adv-x="1024" />

    
    <glyph glyph-name="p" unicode="&#58980;" d="M312.888889 702.577778h398.222222v142.222222c-65.422222 14.222222-133.688889 22.755556-199.111111 22.755556s-133.688889-8.533333-199.111111-22.755556v-142.222222z m0-28.444445V-99.555556h398.222222V674.133333H312.888889z m-5.688889 199.111111C375.466667 887.466667 443.733333 896 512 896s136.533333-8.533333 204.8-22.755556c14.222222-2.844444 22.755556-14.222222 22.755556-28.444444V-99.555556c0-17.066667-11.377778-28.444444-28.444445-28.444444H312.888889c-17.066667 0-28.444444 11.377778-28.444445 28.444444V844.8c0 14.222222 8.533333 25.6 22.755556 28.444444zM369.777778 790.755556V753.777778h284.444444V790.755556c-48.355556 14.222222-93.866667 19.911111-142.222222 19.911111-48.355556 0-93.866667-5.688889-142.222222-19.911111z m-8.533334 25.6c51.2 14.222222 99.555556 22.755556 150.755556 22.755555s99.555556-8.533333 150.755556-22.755555c11.377778-2.844444 19.911111-14.222222 19.911111-28.444445V753.777778c0-17.066667-11.377778-28.444444-28.444445-28.444445H369.777778c-17.066667 0-28.444444 11.377778-28.444445 28.444445V790.755556c0 11.377778 8.533333 22.755556 19.911111 25.6z m8.533334-190.577778c-8.533333 0-14.222222-5.688889-14.222222-14.222222v-654.222223c0-8.533333 5.688889-14.222222 14.222222-14.222222h284.444444c8.533333 0 14.222222 5.688889 14.222222 14.222222V611.555556c0 8.533333-5.688889 14.222222-14.222222 14.222222H369.777778z m0 28.444444h284.444444c22.755556 0 42.666667-19.911111 42.666667-42.666666v-654.222223c0-22.755556-19.911111-42.666667-42.666667-42.666666H369.777778c-22.755556 0-42.666667 19.911111-42.666667 42.666666V611.555556c0 22.755556 19.911111 42.666667 42.666667 42.666666z"  horiz-adv-x="1024" />

    
    <glyph glyph-name="plite" unicode="&#58981;" d="M665.6 830.577778l-31.288889-62.577778h-244.622222l-31.288889 62.577778c-34.133333-2.844444-68.266667-8.533333-102.4-14.222222v-164.977778l28.444444-28.444445v-506.311111l-28.444444-28.444444v-136.533334c85.333333-17.066667 170.666667-22.755556 256-22.755555s170.666667 8.533333 256 22.755555v136.533334l-28.444444 28.444444V622.933333l28.444444 28.444445V816.355556c-34.133333 5.688889-68.266667 11.377778-102.4 14.222222z m-31.288889 2.844444C594.488889 836.266667 551.822222 839.111111 512 839.111111s-82.488889-2.844444-122.311111-5.688889l19.911111-36.977778h210.488889l14.222222 36.977778zM250.311111 844.8c88.177778 14.222222 173.511111 22.755556 261.688889 22.755556 88.177778 0 173.511111-8.533333 261.688889-22.755556 14.222222-2.844444 22.755556-14.222222 22.755555-28.444444V640l-28.444444-28.444444v-483.555556l28.444444-28.444444v-147.911112c0-14.222222-8.533333-25.6-22.755555-28.444444-88.177778-14.222222-173.511111-22.755556-261.688889-22.755556-88.177778 0-173.511111 8.533333-261.688889 22.755556-14.222222 2.844444-22.755556 14.222222-22.755555 28.444444V99.555556l28.444444 28.444444V611.555556L227.555556 640V816.355556c0 14.222222 8.533333 25.6 22.755555 28.444444zM455.111111 14.222222v-28.444444h113.777778v28.444444h-113.777778z m0 28.444445h113.777778c17.066667 0 28.444444-11.377778 28.444444-28.444445v-28.444444c0-17.066667-11.377778-28.444444-28.444444-28.444445h-113.777778c-17.066667 0-28.444444 11.377778-28.444444 28.444445v28.444444c0 17.066667 11.377778 28.444444 28.444444 28.444445zM341.333333 711.111111c-8.533333 0-14.222222-5.688889-14.222222-14.222222v-597.333333c0-8.533333 5.688889-14.222222 14.222222-14.222223h341.333334c8.533333 0 14.222222 5.688889 14.222222 14.222223V696.888889c0 8.533333-5.688889 14.222222-14.222222 14.222222H341.333333z m0 28.444445h341.333334c22.755556 0 42.666667-19.911111 42.666666-42.666667v-597.333333c0-22.755556-19.911111-42.666667-42.666666-42.666667H341.333333c-22.755556 0-42.666667 19.911111-42.666666 42.666667V696.888889c0 22.755556 19.911111 42.666667 42.666666 42.666667z"  horiz-adv-x="1024" />

    
    <glyph glyph-name="tmini" unicode="&#58982;" d="M568.888889 782.222222v-199.111111h-28.444445V782.222222H113.777778c-17.066667 0-28.444444-11.377778-28.444445-28.444444v-170.666667h853.333334V753.777778c0 17.066667-11.377778 28.444444-28.444445 28.444444h-85.333333v-199.111111h-28.444445V782.222222h-227.555555zM85.333333 554.666667v-540.444445c0-17.066667 11.377778-28.444444 28.444445-28.444444h796.444444c17.066667 0 28.444444 11.377778 28.444445 28.444444V554.666667H85.333333z m28.444445 256h796.444444c31.288889 0 56.888889-25.6 56.888889-56.888889v-739.555556c0-31.288889-25.6-56.888889-56.888889-56.888889H113.777778c-31.288889 0-56.888889 25.6-56.888889 56.888889V753.777778c0 31.288889 25.6 56.888889 56.888889 56.888889z m28.444444-312.888889v-455.111111h739.555556V497.777778H142.222222z m0 28.444444h739.555556c17.066667 0 28.444444-11.377778 28.444444-28.444444v-455.111111c0-17.066667-11.377778-28.444444-28.444444-28.444445H142.222222c-17.066667 0-28.444444 11.377778-28.444444 28.444445V497.777778c0 17.066667 11.377778 28.444444 28.444444 28.444444z m0 199.111111v-85.333333h341.333334V725.333333H142.222222z m0 28.444445h341.333334c17.066667 0 28.444444-11.377778 28.444444-28.444445v-85.333333c0-17.066667-11.377778-28.444444-28.444444-28.444444H142.222222c-17.066667 0-28.444444 11.377778-28.444444 28.444444V725.333333c0 17.066667 11.377778 28.444444 28.444444 28.444445z"  horiz-adv-x="1024" />

    
    <glyph glyph-name="s" unicode="&#58983;" d="M682.666667 298.666667v-227.555556h176.355555c14.222222 0 25.6-8.533333 28.444445-22.755555l17.066666-85.333334c2.844444-14.222222-5.688889-31.288889-22.755555-34.133333H147.911111c-17.066667 0-28.444444 11.377778-28.444444 28.444444v5.688889l17.066666 85.333334c2.844444 14.222222 14.222222 22.755556 28.444445 22.755555H341.333333v227.555556H170.666667c-31.288889 0-56.888889 25.6-56.888889 56.888889V782.222222c0 31.288889 25.6 56.888889 56.888889 56.888889h682.666666c31.288889 0 56.888889-25.6 56.888889-56.888889v-426.666666c0-31.288889-25.6-56.888889-56.888889-56.888889h-170.666666z m-28.444445 0h-28.444444v-142.222223c0-31.288889-25.6-56.888889-56.888889-56.888888h-113.777778c-31.288889 0-56.888889 25.6-56.888889 56.888888v142.222223h-28.444444v-227.555556h284.444444v227.555556z m0-256H164.977778l-17.066667-85.333334h728.177778l-17.066667 85.333334H654.222222z m-256 284.444444h455.111111c17.066667 0 28.444444 11.377778 28.444445 28.444445V782.222222c0 17.066667-11.377778 28.444444-28.444445 28.444445H170.666667c-17.066667 0-28.444444-11.377778-28.444445-28.444445v-426.666666c0-17.066667 11.377778-28.444444 28.444445-28.444445h227.555555z m199.111111-28.444444h-170.666666v-142.222223c0-17.066667 11.377778-28.444444 28.444444-28.444444h113.777778c17.066667 0 28.444444 11.377778 28.444444 28.444444v142.222223zM199.111111 753.777778v-369.777778h625.777778V753.777778H199.111111z m0 28.444444h625.777778c17.066667 0 28.444444-11.377778 28.444444-28.444444v-369.777778c0-17.066667-11.377778-28.444444-28.444444-28.444444H199.111111c-17.066667 0-28.444444 11.377778-28.444444 28.444444V753.777778c0 17.066667 11.377778 28.444444 28.444444 28.444444z"  horiz-adv-x="1024" />

    
    <glyph glyph-name="tlite" unicode="&#58984;" d="M455.111111 213.333333h-116.622222l-22.755556-170.666666h389.688889l-22.755555 170.666666h-113.777778v-85.333333c0-17.066667-11.377778-28.444444-28.444445-28.444444h-56.888888c-17.066667 0-28.444444 11.377778-28.444445 28.444444v85.333333z m113.777778 28.444445h369.777778V725.333333H85.333333v-483.555555h483.555556z m-258.844445-28.444445H85.333333c-17.066667 0-28.444444 11.377778-28.444444 28.444445V725.333333c0 17.066667 11.377778 28.444444 28.444444 28.444445h28.444445V810.666667c0 17.066667 11.377778 28.444444 28.444444 28.444444h739.555556c17.066667 0 28.444444-11.377778 28.444444-28.444444v-56.888889h28.444445c17.066667 0 28.444444-11.377778 28.444444-28.444445v-483.555555c0-17.066667-11.377778-28.444444-28.444444-28.444445h-224.711111l22.755555-170.666666H824.888889c17.066667 0 28.444444-11.377778 28.444444-28.444445v-56.888889c0-17.066667-11.377778-28.444444-28.444444-28.444444H199.111111c-17.066667 0-28.444444 11.377778-28.444444 28.444444v56.888889c0 17.066667 11.377778 28.444444 28.444444 28.444445h88.177778l22.755555 170.666666zM739.555556 14.222222H199.111111v-56.888889h625.777778v56.888889h-85.333333zM142.222222 753.777778h739.555556V810.666667H142.222222v-56.888889z m0-85.333334v-369.777777h739.555556V668.444444H142.222222z m0 28.444445h739.555556c17.066667 0 28.444444-11.377778 28.444444-28.444445v-369.777777c0-17.066667-11.377778-28.444444-28.444444-28.444445H142.222222c-17.066667 0-28.444444 11.377778-28.444444 28.444445V668.444444c0 17.066667 11.377778 28.444444 28.444444 28.444445z m341.333334-483.555556v-85.333333h56.888888v85.333333h-56.888888z"  horiz-adv-x="1024" />

    
    <glyph glyph-name="vs" unicode="&#58985;" d="M312.888889 620.088889c65.422222 14.222222 133.688889 19.911111 199.111111 19.911111s133.688889-5.688889 199.111111-19.911111V844.8c-65.422222 14.222222-133.688889 22.755556-199.111111 22.755556s-133.688889-8.533333-199.111111-22.755556v-224.711111z m0-65.422222v-654.222223h398.222222V554.666667H312.888889zM307.2 873.244444C375.466667 887.466667 443.733333 896 512 896s136.533333-8.533333 204.8-22.755556c14.222222-2.844444 22.755556-14.222222 22.755556-28.444444V-99.555556c0-17.066667-11.377778-28.444444-28.444445-28.444444H312.888889c-17.066667 0-28.444444 11.377778-28.444445 28.444444V844.8c0 14.222222 8.533333 25.6 22.755556 28.444444zM369.777778 790.755556V696.888889h284.444444V790.755556c-48.355556 14.222222-93.866667 19.911111-142.222222 19.911111s-93.866667-5.688889-142.222222-19.911111z m-8.533334 25.6c51.2 14.222222 99.555556 22.755556 150.755556 22.755555 51.2 0 99.555556-8.533333 150.755556-22.755555 11.377778-2.844444 19.911111-14.222222 19.911111-28.444445V696.888889c0-17.066667-11.377778-28.444444-28.444445-28.444445H369.777778c-17.066667 0-28.444444 11.377778-28.444445 28.444445V790.755556c0 11.377778 8.533333 22.755556 19.911111 25.6zM327.111111 583.111111h369.777778v11.377778c-62.577778 11.377778-122.311111 17.066667-184.888889 17.066667s-122.311111-5.688889-184.888889-17.066667v-11.377778z m42.666667-85.333333v-540.444445h284.444444V497.777778H369.777778z m0 28.444444h284.444444c17.066667 0 28.444444-11.377778 28.444445-28.444444v-540.444445c0-17.066667-11.377778-28.444444-28.444445-28.444444H369.777778c-17.066667 0-28.444444 11.377778-28.444445 28.444444V497.777778c0 17.066667 11.377778 28.444444 28.444445 28.444444z"  horiz-adv-x="1024" />

    
    <glyph glyph-name="t" unicode="&#58986;" d="M364.088889 327.111111H938.666667V810.666667H85.333333v-483.555556h278.755556z m-2.844445-28.444444h-25.6L312.888889-11.377778v-2.844444c0-17.066667 11.377778-28.444444 28.444444-28.444445H676.977778c17.066667 0 28.444444 14.222222 25.6 31.288889L679.822222 298.666667h-28.444444l19.911111-221.866667c2.844444-31.288889-19.911111-59.733333-51.2-62.577778H398.222222c-31.288889 0-56.888889 25.6-56.888889 56.888889v5.688889l19.911111 221.866667z m-59.733333-85.333334H170.666667c-17.066667 0-28.444444 11.377778-28.444445 28.444445v56.888889H85.333333c-17.066667 0-28.444444 11.377778-28.444444 28.444444V810.666667c0 17.066667 11.377778 28.444444 28.444444 28.444444h853.333334c17.066667 0 28.444444-11.377778 28.444444-28.444444v-483.555556c0-17.066667-11.377778-28.444444-28.444444-28.444444h-56.888889v-56.888889c0-17.066667-11.377778-28.444444-28.444445-28.444445h-139.377777l17.066666-224.711111c2.844444-31.288889-22.755556-59.733333-54.044444-59.733333H341.333333c-31.288889 0-56.888889 25.6-56.888889 56.888889v2.844444l17.066667 224.711111z m0 28.444445l2.844445 56.888889H170.666667v-56.888889h130.844444z m406.755556 56.888889l2.844444-56.888889h142.222222v56.888889h-145.066666zM369.777778 73.955556s0-2.844444 0 0c0-17.066667 11.377778-31.288889 28.444444-31.288889H617.244444c17.066667 2.844444 28.444444 14.222222 25.6 31.288889l-19.911111 224.711111h-233.244444l-19.911111-224.711111zM142.222222 753.777778v-369.777778h739.555556V753.777778H142.222222z m0 28.444444h739.555556c17.066667 0 28.444444-11.377778 28.444444-28.444444v-369.777778c0-17.066667-11.377778-28.444444-28.444444-28.444444H142.222222c-17.066667 0-28.444444 11.377778-28.444444 28.444444V753.777778c0 17.066667 11.377778 28.444444 28.444444 28.444444z"  horiz-adv-x="1024" />

    
    <glyph glyph-name="vpro" unicode="&#58987;" d="M341.333333 867.555556c-17.066667 0-28.444444-11.377778-28.444444-28.444445v-915.911111c65.422222-14.222222 133.688889-22.755556 199.111111-22.755556s133.688889 8.533333 199.111111 22.755556V839.111111c0 17.066667-11.377778 28.444444-28.444444 28.444445H341.333333z m0 28.444444h341.333334c31.288889 0 56.888889-25.6 56.888889-56.888889v-915.911111c0-14.222222-8.533333-25.6-22.755556-28.444444-68.266667-14.222222-136.533333-22.755556-204.8-22.755556s-136.533333 8.533333-204.8 22.755556c-14.222222 2.844444-22.755556 14.222222-22.755556 28.444444V839.111111c0 31.288889 25.6 56.888889 56.888889 56.888889z m28.444445-298.666667c-8.533333 0-14.222222-5.688889-14.222222-14.222222v-611.555555c0-8.533333 5.688889-14.222222 14.222222-14.222223h284.444444c8.533333 0 14.222222 5.688889 14.222222 14.222223V583.111111c0 8.533333-5.688889 14.222222-14.222222 14.222222H369.777778z m0 28.444445h284.444444c22.755556 0 42.666667-19.911111 42.666667-42.666667v-611.555555c0-22.755556-19.911111-42.666667-42.666667-42.666667H369.777778c-22.755556 0-42.666667 19.911111-42.666667 42.666667V583.111111c0 22.755556 19.911111 42.666667 42.666667 42.666667zM312.888889 668.444444h398.222222v-28.444444H312.888889V668.444444z"  horiz-adv-x="1024" />

    
    <glyph glyph-name="sunmi-unknown" unicode="&#58988;" d="M224.711111 810.666667C179.2 810.666667 142.222222 776.533333 142.222222 733.866667v-699.733334C142.222222-5.688889 179.2-42.666667 227.555556-42.666667h568.888888c48.355556 0 85.333333 36.977778 85.333334 79.644445V736.711111C881.777778 776.533333 844.8 810.666667 799.288889 810.666667H224.711111z m0 28.444444h574.577778C861.866667 839.111111 910.222222 793.6 910.222222 733.866667v-699.733334c0-59.733333-51.2-108.088889-113.777778-108.088889L227.555556-71.111111c-62.577778 0-113.777778 48.355556-113.777778 108.088889V733.866667C113.777778 793.6 162.133333 839.111111 224.711111 839.111111zM483.555556 99.555556c0 17.066667 11.377778 28.444444 28.444444 28.444444 8.533333 0 14.222222-2.844444 19.911111-8.533333 5.688889-5.688889 8.533333-11.377778 8.533333-19.911111 0-17.066667-11.377778-28.444444-28.444444-28.444445-14.222222 0-28.444444 11.377778-28.444444 28.444445z m-162.133334 429.511111c2.844444 102.4 88.177778 187.733333 193.422222 187.733333h2.844445c108.088889 0 193.422222-85.333333 196.266667-193.422222 0-34.133333-11.377778-68.266667-31.288889-99.555556-17.066667-25.6-39.822222-48.355556-65.422223-71.111111-22.755556-19.911111-42.666667-39.822222-59.733333-62.577778-17.066667-25.6-25.6-54.044444-25.6-85.333333-2.844444-5.688889-8.533333-8.533333-14.222222-8.533333s-14.222222 5.688889-14.222222 11.377777c0 34.133333 11.377778 68.266667 34.133333 96.711112 17.066667 25.6 39.822222 48.355556 62.577778 68.266666 19.911111 17.066667 25.6 25.6 34.133333 34.133334 36.977778 36.977778 51.2 71.111111 51.2 116.622222 0 91.022222-73.955556 164.977778-164.977778 164.977778-88.177778 0-162.133333-71.111111-164.977777-159.288889-2.844444-5.688889-8.533333-8.533333-14.222223-8.533334-11.377778 0-17.066667 2.844444-19.911111 8.533334z"  horiz-adv-x="1024" />

    
    <glyph glyph-name="cellphone" unicode="&#58967;" d="M349.090909 802.909091c-39.563636 0-69.818182-30.254545-69.818182-69.818182v-698.181818c0-39.563636 30.254545-69.818182 69.818182-69.818182h325.818182c39.563636 0 69.818182 30.254545 69.818182 69.818182V733.090909c0 39.563636-30.254545 69.818182-69.818182 69.818182H349.090909z m0 23.272727h325.818182c51.2 0 93.090909-41.890909 93.090909-93.090909v-698.181818c0-51.2-41.890909-93.090909-93.090909-93.090909H349.090909c-51.2 0-93.090909 41.890909-93.090909 93.090909V733.090909c0 51.2 41.890909 93.090909 93.090909 93.090909z m46.545455-23.272727h232.727272c0-25.6-20.945455-46.545455-46.545454-46.545455h-139.636364c-25.6 0-46.545455 20.945455-46.545454 46.545455z"  horiz-adv-x="1024" />

    
    <glyph glyph-name="computer" unicode="&#58968;" d="M139.636364 197.818182h744.727272V593.454545c0 13.963636-9.309091 23.272727-23.272727 23.272728H162.909091c-13.963636 0-23.272727-9.309091-23.272727-23.272728v-395.636363z m768 0h46.545454c0-25.6-20.945455-46.545455-46.545454-46.545455H116.363636c-25.6 0-46.545455 20.945455-46.545454 46.545455h46.545454V593.454545c0 25.6 20.945455 46.545455 46.545455 46.545455h698.181818c25.6 0 46.545455-20.945455 46.545455-46.545455v-395.636363zM139.636364 221.090909h744.727272v-23.272727H139.636364v23.272727z"  horiz-adv-x="1024" />

    
    <glyph glyph-name="pad" unicode="&#58969;" d="M162.909091 663.272727c-39.563636 0-69.818182-30.254545-69.818182-69.818182v-418.90909c0-39.563636 30.254545-69.818182 69.818182-69.818182h698.181818c39.563636 0 69.818182 30.254545 69.818182 69.818182V593.454545c0 39.563636-30.254545 69.818182-69.818182 69.818182H162.909091z m0 23.272728h698.181818c51.2 0 93.090909-41.890909 93.090909-93.09091v-418.90909c0-51.2-41.890909-93.090909-93.090909-93.09091H162.909091c-51.2 0-93.090909 41.890909-93.090909 93.09091V593.454545c0 51.2 41.890909 93.090909 93.090909 93.09091z m674.909091-302.545455c0 9.309091 4.654545 16.290909 11.636363 20.945455 6.981818 4.654545 16.290909 4.654545 23.272728 0 6.981818-4.654545 11.636364-11.636364 11.636363-20.945455 0-13.963636-9.309091-23.272727-23.272727-23.272727s-23.272727 9.309091-23.272727 23.272727z"  horiz-adv-x="1024" />

    
    <glyph glyph-name="android" unicode="&#58970;" d="M325.818182 779.636364c-39.563636 0-69.818182-30.254545-69.818182-69.818182v-651.636364c0-39.563636 30.254545-69.818182 69.818182-69.818182h372.363636c39.563636 0 69.818182 30.254545 69.818182 69.818182V709.818182c0 39.563636-30.254545 69.818182-69.818182 69.818182H325.818182z m0 23.272727h372.363636c51.2 0 93.090909-41.890909 93.090909-93.090909v-651.636364c0-51.2-41.890909-93.090909-93.090909-93.090909H325.818182c-51.2 0-93.090909 41.890909-93.090909 93.090909V709.818182c0 51.2 41.890909 93.090909 93.090909 93.090909z m46.545454-698.181818c13.963636 0 23.272727-9.309091 23.272728-23.272728s-9.309091-23.272727-23.272728-23.272727-23.272727 9.309091-23.272727 23.272727 9.309091 23.272727 23.272727 23.272728z m139.636364 0c13.963636 0 23.272727-9.309091 23.272727-23.272728s-9.309091-23.272727-23.272727-23.272727-23.272727 9.309091-23.272727 23.272727 9.309091 23.272727 23.272727 23.272728z m139.636364 0c13.963636 0 23.272727-9.309091 23.272727-23.272728s-9.309091-23.272727-23.272727-23.272727-23.272727 9.309091-23.272728 23.272727 9.309091 23.272727 23.272728 23.272728z"  horiz-adv-x="1024" />

    
    <glyph glyph-name="unknown" unicode="&#58971;" d="M276.945455 733.090909C239.709091 733.090909 209.454545 705.163636 209.454545 670.254545v-572.50909c0-34.909091 30.254545-65.163636 69.818182-65.163637h465.454546c39.563636 0 69.818182 30.254545 69.818182 65.163637V670.254545C814.545455 705.163636 784.290909 733.090909 747.054545 733.090909H276.945455z m0 23.272727h470.10909C798.254545 756.363636 837.818182 719.127273 837.818182 670.254545v-572.50909c0-48.872727-41.890909-88.436364-93.090909-88.436364H279.272727c-51.2 0-93.090909 39.563636-93.090909 88.436364V670.254545C186.181818 719.127273 225.745455 756.363636 276.945455 756.363636zM488.727273 151.272727c0 13.963636 9.309091 23.272727 23.272727 23.272728 6.981818 0 11.636364-2.327273 16.290909-6.981819 4.654545-4.654545 6.981818-9.309091 6.981818-16.290909 0-13.963636-9.309091-23.272727-23.272727-23.272727-11.636364 0-23.272727 9.309091-23.272727 23.272727z m-132.654546 351.418182c2.327273 83.781818 72.145455 153.6 158.254546 153.6h2.327272c88.436364 0 158.254545-69.818182 160.581819-158.254545 0-27.927273-9.309091-55.854545-25.6-81.454546-13.963636-20.945455-32.581818-39.563636-53.527273-58.181818-18.618182-16.290909-34.909091-32.581818-48.872727-51.2-13.963636-20.945455-20.945455-44.218182-20.945455-69.818182-2.327273-4.654545-6.981818-6.981818-11.636364-6.981818s-11.636364 4.654545-11.636363 9.309091c0 27.927273 9.309091 55.854545 27.927273 79.127273 13.963636 20.945455 32.581818 39.563636 51.2 55.854545 16.290909 13.963636 20.945455 20.945455 27.927272 27.927273 30.254545 30.254545 41.890909 58.181818 41.890909 95.418182 0 74.472727-60.509091 134.981818-134.981818 134.981818-72.145455 0-132.654545-58.181818-134.981818-130.327273-2.327273-4.654545-6.981818-6.981818-11.636364-6.981818-9.309091 0-13.963636 2.327273-16.290909 6.981818z"  horiz-adv-x="1024" />

    
    <glyph glyph-name="m1" unicode="&#58989;" d="M312.888889 82.488889v-17.066667c65.422222-14.222222 133.688889-22.755556 199.111111-22.755555s133.688889 8.533333 199.111111 22.755555V745.244444 725.333333H312.888889V753.777778h398.222222v-11.377778 17.066667c-65.422222 14.222222-133.688889 22.755556-199.111111 22.755555s-133.688889-8.533333-199.111111-22.755555V71.111111h398.222222v28.444445H312.888889v-17.066667z m45.511111-145.066667l31.288889 62.577778h244.622222l31.288889-62.577778c34.133333 2.844444 68.266667 8.533333 102.4 14.222222V810.666667c0 17.066667-11.377778 28.444444-28.444444 28.444444H284.444444c-17.066667 0-28.444444-11.377778-28.444444-28.444444v-859.022223c34.133333-5.688889 68.266667-11.377778 102.4-14.222222z m31.288889-2.844444c42.666667-2.844444 82.488889-5.688889 122.311111-5.688889s82.488889 2.844444 122.311111 5.688889l-19.911111 36.977778h-210.488889l-14.222222-36.977778zM284.444444 867.555556h455.111112c31.288889 0 56.888889-25.6 56.888888-56.888889v-859.022223c0-14.222222-11.377778-25.6-22.755555-28.444444-88.177778-14.222222-173.511111-22.755556-261.688889-22.755556s-173.511111 8.533333-261.688889 22.755556c-14.222222 2.844444-22.755556 14.222222-22.755555 28.444444V810.666667c0 31.288889 25.6 56.888889 56.888888 56.888889z m22.755556-79.644445c68.266667 14.222222 136.533333 22.755556 204.8 22.755556 68.266667 0 136.533333-8.533333 204.8-22.755556 14.222222-2.844444 22.755556-14.222222 22.755556-28.444444v-694.044445c0-14.222222-8.533333-25.6-22.755556-28.444444-68.266667-14.222222-136.533333-22.755556-204.8-22.755556s-136.533333 8.533333-204.8 22.755556c-14.222222 2.844444-22.755556 14.222222-22.755556 28.444444V759.466667c0 14.222222 8.533333 25.6 22.755556 28.444444z"  horiz-adv-x="1024" />

    
    <glyph glyph-name="benji" unicode="&#58990;" d="M512 896c-53.527273 0-104.727273-6.981818-151.272727-23.272727L1000.727273 232.727273c13.963636 48.872727 23.272727 97.745455 23.272727 151.272727C1024 667.927273 795.927273 896 512 896zM758.690909 740.072727l23.272727 23.272728 9.309091-9.309091-23.272727-23.272728 51.2-51.2-9.309091-9.309091L768 712.145455c-11.636364-30.254545-13.963636-65.163636-9.309091-102.4l-13.963636-2.327273c-4.654545 41.890909 2.327273 79.127273 16.290909 111.709091l-51.2-51.2 27.927273-27.927273-9.309091-9.309091-27.927273 27.927273-27.927273-27.927273-9.309091 9.309091 27.927273 27.927273-27.927273 27.927272 9.309091 9.309091L698.181818 679.563636l51.2 51.2c-37.236364-16.290909-74.472727-23.272727-116.363636-16.290909l2.327273 13.963637c37.236364-6.981818 72.145455-4.654545 104.727272 9.309091L698.181818 781.963636l9.309091 9.309091 51.2-51.2zM856.436364 640l25.6 25.6 9.309091-9.309091-25.6-25.6 16.290909-16.290909-9.309091-9.309091-16.290909 16.290909-6.981819-6.981818c0-11.636364 0-25.6-2.327272-39.563636l-13.963637-2.327273c2.327273 13.963636 4.654545 23.272727 6.981819 32.581818l-69.818182-69.818182-9.309091 11.636364 67.490909 67.490909c-18.618182-9.309091-34.909091-13.963636-53.527273-18.618182l6.981818 13.963637c23.272727 2.327273 44.218182 9.309091 65.163637 23.272727l-18.618182 18.618182 9.309091 9.309091 18.618182-20.945455z m-30.254546-93.090909c9.309091 6.981818 20.945455 16.290909 34.909091 30.254545l48.872727 48.872728 41.890909-41.890909-100.072727-100.072728c-2.327273-2.327273-2.327273-4.654545 0-6.981818l4.654546-4.654545c2.327273-2.327273 2.327273-2.327273 4.654545-2.327273s4.654545 0 4.654546 2.327273c2.327273 2.327273 11.636364 9.309091 23.272727 20.945454l6.981818-11.636363c-9.309091-9.309091-16.290909-16.290909-23.272727-20.945455-4.654545-4.654545-9.309091-6.981818-13.963637-4.654545-4.654545 0-6.981818 2.327273-11.636363 6.981818l-4.654546 4.654545c-9.309091 9.309091-9.309091 16.290909-2.327272 23.272727l90.763636 90.763637-23.272727 23.272727-41.890909-41.890909c-13.963636-13.963636-27.927273-25.6-39.563637-32.581818-11.636364-6.981818-25.6-13.963636-41.890909-16.290909v13.963636c16.290909 6.981818 30.254545 11.636364 41.890909 18.618182z"  horiz-adv-x="1024" />

    


  </font>
</defs>
</svg>
